{
.appVersion = "998";
copyright = "Copyright 2015 Google Inc. All Rights Reserved.";
customParameters = (
{
name = description;
value = "Designed by Monotype design team.";
},
{
name = vendorID;
value = GOOG;
},
{
name = glyphOrder;
value = (
.notdef,
NULL,
CR,
space,
uni10A0,
uni10A1,
uni10A2,
uni10A3,
uni10A4,
uni10A5,
uni10A6,
uni10A7,
uni10A8,
uni10A9,
uni10AA,
uni10AB,
uni10AC,
uni10AD,
uni10AE,
uni10AF,
uni10B0,
uni10B1,
uni10B2,
uni10B3,
uni10B4,
uni10B5,
uni10B6,
uni10B7,
uni10B8,
uni10B9,
uni10BA,
uni10BB,
uni10BC,
uni10BD,
uni10BE,
uni10BF,
uni10C0,
uni10C1,
uni10C2,
uni10C3,
uni10C4,
uni10C5,
uni10D0,
uni10D1,
uni10D2,
uni10D3,
uni10D4,
uni10D5,
uni10D6,
uni10D7,
uni10D8,
uni10D9,
uni10DA,
uni10DB,
uni10DC,
uni10DD,
uni10DE,
uni10DF,
uni10E0,
uni10E1,
uni10E2,
uni10E3,
uni10E4,
uni10E5,
uni10E6,
uni10E7,
uni10E8,
uni10E9,
uni10EA,
uni10EB,
uni10EC,
uni10ED,
uni10EE,
uni10EF,
uni10F0,
uni10F1,
uni10F2,
uni10F3,
uni10F4,
uni10F5,
uni10F6,
uni10F7,
uni10F8,
uni10F9,
uni10FA,
uni10FB,
uni10FC,
uni2D00,
uni2D01,
uni2D02,
uni2D03,
uni2D04,
uni2D05,
uni2D06,
uni2D07,
uni2D08,
uni2D09,
uni2D0A,
uni2D0B,
uni2D0C,
uni2D0D,
uni2D0E,
uni2D0F,
uni2D10,
uni2D11,
uni2D12,
uni2D13,
uni2D14,
uni2D15,
uni2D16,
uni2D17,
uni2D18,
uni2D19,
uni2D1A,
uni2D1B,
uni2D1C,
uni2D1D,
uni2D1E,
uni2D1F,
uni2D20,
uni2D21,
uni2D22,
uni2D23,
uni2D24,
uni2D25,
uni0589,
uniFEFF
);
},
{
name = fsType;
value = (
);
},
{
name = licenseURL;
value = "http://scripts.sil.org/OFL";
},
{
name = trademark;
value = "Noto is a trademark of Google Inc.";
},
{
name = license;
value = "This Font Software is licensed under the SIL Open Font License, Version 1.1. This Font Software is distributed on an \"AS IS\" BASIS, WITHOUT WARRANTIES OR CONDITIONS OF ANY KIND, either express or implied. See the SIL Open Font License for the specific language, permissions and limitations governing your use of this Font Software.";
},
{
name = versionString;
value = "Version 1.902";
},
{
name = "Has WWS Names";

glyphs = (
{
glyphname = .notdef;
lastChange = "2017-03-28 18:51:32 +0000";
layers = (
{
layerId = "1D4F67F9-897D-45AD-B7F0-CA61A6862C03";
paths = (
{
closed = 1;
nodes = (
"449 0 LINE",
"449 714 LINE",
"50 714 LINE",
"50 0 LINE"
);
},
{
closed = 1;
nodes = (
"97 666 LINE",
"402 666 LINE",
"402 48 LINE",
"97 48 LINE"
);
}
);
width = 553;
},
{
layerId = "101C8DBD-EDBB-4DB6-972E-FA2DBA854B69";
paths = (
{
closed = 1;
nodes = (
"453 0 LINE",
"453 714 LINE",
"52 714 LINE",
"52 0 LINE"
);
},
{
closed = 1;
nodes = (
"101 666 LINE",
"404 666 LINE",
"404 48 LINE",
"101 48 LINE"
);
}
);
width = 600;
},
{
layerId = "5E7FF211-9823-4E5B-BC80-AC4B3CA4BC69";
paths = (
{
closed = 1;
nodes = (
"450 0 LINE",
"450 714 LINE",
"50 714 LINE",
"50 0 LINE"
);
},
{
closed = 1;
nodes = (
"98 666 LINE",
"402 666 LINE",
"402 48 LINE",
"98 48 LINE"
);
}
);
width = 554;
},
{
layerId = "75A83886-EED5-4C31-9670-660514D8A4F6";
paths = (
{
closed = 1;
nodes = (
"449 0 LINE",
"449 714 LINE",
"50 714 LINE",
"50 0 LINE"
);
},
{
closed = 1;
nodes = (
"97 666 LINE",
"402 666 LINE",
"402 48 LINE",
"97 48 LINE"
);
}
);
width = 499;
},
{
layerId = "E7C4F5EE-4982-479C-BF20-1C8706EFFC5D";
paths = (
{
closed = 1;
nodes = (
"449 0 LINE",
"449 714 LINE",
"50 714 LINE",
"50 0 LINE"
);
},
{
closed = 1;
nodes = (
"97 666 LINE",
"402 666 LINE",
"402 48 LINE",
"97 48 LINE"
);
}
);
width = 499;
},
{
layerId = "5E7C5774-385D-4E06-B68E-CBE970134A7B";
paths = (
{
closed = 1;
nodes = (
"449 0 LINE",
"449 714 LINE",
"50 714 LINE",
"50 0 LINE"
);
},
{
closed = 1;
nodes = (
"97 666 LINE",
"402 666 LINE",
"402 48 LINE",
"97 48 LINE"
);
}
);
width = 553;
},
{
layerId = "C91144B6-58F5-45F2-9CE4-7ED6CE127FD4";
paths = (
{
closed = 1;
nodes = (
"449 0 LINE",
"449 714 LINE",
"50 714 LINE",
"50 0 LINE"
);
},
{
closed = 1;
nodes = (
"97 666 LINE",
"402 666 LINE",
"402 48 LINE",
"97 48 LINE"
);
}
);
width = 499;
},
{
layerId = "E17BEC9D-CAAD-449F-91D9-03766E30097E";
paths = (
{
closed = 1;
nodes = (
"455 0 LINE",
"455 714 LINE",
"53 714 LINE",
"53 0 LINE"
);
},
{
closed = 1;
nodes = (
"103 666 LINE",
"405 666 LINE",
"405 48 LINE",
"103 48 LINE"
);
}
);
width = 629;
},
{
associatedMasterId = "1D4F67F9-897D-45AD-B7F0-CA61A6862C03";
background = {
paths = (
{
closed = 1;
nodes = (
"449 0 LINE",
"449 714 LINE",
"50 714 LINE",
"50 0 LINE"
);
},
{
closed = 1;
nodes = (
"97 666 LINE",
"402 666 LINE",
"402 48 LINE",
"97 48 LINE"
);
}
);
};
layerId = "1086D230-603B-4D38-8D45-DC229094BA3E";
paths = (
{
closed = 1;
nodes = (
"449 0 LINE",
"449 714 LINE",
"50 714 LINE",
"50 0 LINE"
);
},
{
closed = 1;
nodes = (
"97 666 LINE",
"402 666 LINE",
"402 48 LINE",
"97 48 LINE"
);
}
);
width = 553;
},
{
layerId = "642E8BFC-F41E-4F9A-93D4-B8BFD55081C9";
paths = (
{
closed = 1;
nodes = (
"449 0 LINE",
"449 714 LINE",
"50 714 LINE",
"50 0 LINE"
);
},
{
closed = 1;
nodes = (
"97 666 LINE",
"402 666 LINE",
"402 48 LINE",
"97 48 LINE"
);
}
);
width = 499;
}
);
note = .notdef;
},
{
glyphname = "An-oldgeorgian";
lastChange = "2017-03-28 18:51:32 +0000";
layers = (
{
layerId = "5E7FF211-9823-4E5B-BC80-AC4B3CA4BC69";
paths = (
{
closed = 1;
nodes = (
"517 -12 OFFCURVE",
"624 22 OFFCURVE",
"624 110 CURVE SMOOTH",
"624 159 OFFCURVE",
"592 184 OFFCURVE",
"540 184 CURVE",
"540 98 OFFCURVE",
"490 41 OFFCURVE",
"388 41 CURVE SMOOTH",
"241 41 OFFCURVE",
"183 159 OFFCURVE",
"183 318 CURVE SMOOTH",
"183 560 OFFCURVE",
"287 669 OFFCURVE",
"424 669 CURVE SMOOTH",
"500 669 OFFCURVE",
"523 648 OFFCURVE",
"531 596 CURVE",
"572 606 OFFCURVE",
"599 629 OFFCURVE",
"599 659 CURVE SMOOTH",
"599 704 OFFCURVE",
"566 726 OFFCURVE",
"501 726 CURVE SMOOTH",
"453 726 OFFCURVE",
"396 711 OFFCURVE",
"341 697 CURVE SMOOTH",
"291 684 OFFCURVE",
"242 672 OFFCURVE",
"202 672 CURVE SMOOTH",
"151 672 OFFCURVE",
"129 689 OFFCURVE",
"124 724 CURVE",
"78 713 OFFCURVE",
"55 695 OFFCURVE",
"55 670 CURVE SMOOTH",
"55 630 OFFCURVE",
"88 611 OFFCURVE",
"134 611 CURVE SMOOTH",
"182 611 OFFCURVE",
"191 614 OFFCURVE",
"220 624 CURVE",
"131 562 OFFCURVE",
"64 459 OFFCURVE",
"64 318 CURVE SMOOTH",
"64 117 OFFCURVE",
"189 -12 OFFCURVE",
"388 -12 CURVE SMOOTH"
);
}
);
width = 658;
},
{
layerId = "101C8DBD-EDBB-4DB6-972E-FA2DBA854B69";
paths = (
{
closed = 1;
nodes = (
"608 -13 OFFCURVE",
"695 35 OFFCURVE",
"695 106 CURVE SMOOTH",
"695 159 OFFCURVE",
"648 193 OFFCURVE",
"570 193 CURVE",
"570 106 OFFCURVE",
"528 51 OFFCURVE",
"440 51 CURVE SMOOTH",
"307 51 OFFCURVE",
"253 165 OFFCURVE",
"253 328 CURVE SMOOTH",
"253 514 OFFCURVE",
"336 647 OFFCURVE",
"474 653 CURVE SMOOTH",
"549 656 OFFCURVE",
"575 615 OFFCURVE",
"575 546 CURVE",
"648 546 OFFCURVE",
"685 579 OFFCURVE",
"685 631 CURVE SMOOTH",
"685 688 OFFCURVE",
"636 727 OFFCURVE",
"568 727 CURVE SMOOTH",
"506 727 OFFCURVE",
"448 705 OFFCURVE",
"395 684 CURVE SMOOTH",
"344 664 OFFCURVE",
"299 642 OFFCURVE",
"262 642 CURVE SMOOTH",
"180 642 OFFCURVE",
"160 662 OFFCURVE",
"160 724 CURVE",
"87 724 OFFCURVE",
"50 696 OFFCURVE",
"50 649 CURVE SMOOTH",
"50 602 OFFCURVE",
"99 569 OFFCURVE",
"167 569 CURVE SMOOTH",
"193 569 OFFCURVE",
"214 575 OFFCURVE",
"246 583 CURVE",
"156 517 OFFCURVE",
"85 421 OFFCURVE",
"85 288 CURVE SMOOTH",
"85 137 OFFCURVE",
"199 -13 OFFCURVE",
"447 -13 CURVE SMOOTH"
);
}
);
width = 755;
},
{
layerId = "5E7C5774-385D-4E06-B68E-CBE970134A7B";
paths = (
{
closed = 1;
nodes = (
"490 -11 OFFCURVE",
"556 45 OFFCURVE",
"556 96 CURVE SMOOTH",
"556 136 OFFCURVE",
"528 158 OFFCURVE",
"499 158 CURVE",
"499 93 OFFCURVE",
"455 35 OFFCURVE",
"359 35 CURVE SMOOTH",
"210 35 OFFCURVE",
"130 149 OFFCURVE",
"130 328 CURVE SMOOTH",
"130 564 OFFCURVE",
"245 682 OFFCURVE",
"421 682 CURVE SMOOTH",
"481 682 OFFCURVE",
"499 663 OFFCURVE",
"506 621 CURVE",
"536 629 OFFCURVE",
"556 647 OFFCURVE",
"556 671 CURVE SMOOTH",
"556 707 OFFCURVE",
"530 725 OFFCURVE",
"482 725 CURVE SMOOTH",
"435 725 OFFCURVE",
"380 712 OFFCURVE",
"323 700 CURVE SMOOTH",
"271 689 OFFCURVE",
"217 678 OFFCURVE",
"164 678 CURVE SMOOTH",
"123 678 OFFCURVE",
"106 692 OFFCURVE",
"102 724 CURVE",
"67 717 OFFCURVE",
"50 701 OFFCURVE",
"50 681 CURVE SMOOTH",
"50 649 OFFCURVE",
"76 634 OFFCURVE",
"115 634 CURVE SMOOTH",
"159 634 OFFCURVE",
"185 637 OFFCURVE",
"219 644 CURVE",
"125 588 OFFCURVE",
"55 485 OFFCURVE",
"55 328 CURVE SMOOTH",
"55 119 OFFCURVE",
"172 -11 OFFCURVE",
"365 -11 CURVE SMOOTH"
);
}
);
width = 613;
},
{
layerId = "1D4F67F9-897D-45AD-B7F0-CA61A6862C03";
paths = (
{
closed = 1;
nodes = (
"457 -10 OFFCURVE",
"519 58 OFFCURVE",
"519 107 CURVE SMOOTH",
"519 131 OFFCURVE",
"504 146 OFFCURVE",
"495 146 CURVE",
"495 73 OFFCURVE",
"450 15 OFFCURVE",
"326 15 CURVE SMOOTH",
"175 15 OFFCURVE",
"78 127 OFFCURVE",
"78 328 CURVE SMOOTH",
"78 558 OFFCURVE",
"203 697 OFFCURVE",
"424 697 CURVE SMOOTH",
"465 697 OFFCURVE",
"478 679 OFFCURVE",
"483 649 CURVE",
"501 654 OFFCURVE",
"514 668 OFFCURVE",
"514 685 CURVE SMOOTH",
"514 711 OFFCURVE",
"495 724 OFFCURVE",
"466 724 CURVE SMOOTH",
"418 724 OFFCURVE",
"364 713 OFFCURVE",
"302 702 CURVE SMOOTH",
"255 694 OFFCURVE",
"193 685 OFFCURVE",
"128 685 CURVE SMOOTH",
"98 685 OFFCURVE",
"85 694 OFFCURVE",
"83 724 CURVE",
"61 720 OFFCURVE",
"50 707 OFFCURVE",
"50 694 CURVE SMOOTH",
"50 671 OFFCURVE",
"69 660 OFFCURVE",
"100 660 CURVE SMOOTH",
"138 660 OFFCURVE",
"183 662 OFFCURVE",
"224 667 CURVE",
"124 616 OFFCURVE",
"50 502 OFFCURVE",
"50 328 CURVE SMOOTH",
"50 111 OFFCURVE",
"158 -10 OFFCURVE",
"327 -10 CURVE SMOOTH"
);
}
);
width = 573;
},
{
layerId = "C91144B6-58F5-45F2-9CE4-7ED6CE127FD4";
paths = (
{
closed = 1;
nodes = (
"366 -10 OFFCURVE",
"421 43 OFFCURVE",
"421 102 CURVE SMOOTH",
"421 132 OFFCURVE",
"413 148 OFFCURVE",
"400 148 CURVE",
"400 64 OFFCURVE",
"353 15 OFFCURVE",
"265 15 CURVE SMOOTH",
"142 15 OFFCURVE",
"83 162 OFFCURVE",
"83 338 CURVE SMOOTH",
"83 523 OFFCURVE",
"165 698 OFFCURVE",
"329 698 CURVE SMOOTH",
"356 698 OFFCURVE",
"369 681 OFFCURVE",
"374 651 CURVE",
"392 656 OFFCURVE",
"405 670 OFFCURVE",
"405 687 CURVE SMOOTH",
"405 713 OFFCURVE",
"386 724 OFFCURVE",
"357 724 CURVE SMOOTH",
"325 724 OFFCURVE",
"296 714 OFFCURVE",
"259 705 CURVE SMOOTH",
"228 697 OFFCURVE",
"192 690 OFFCURVE",
"146 690 CURVE SMOOTH",
"116 690 OFFCURVE",
"103 694 OFFCURVE",
"101 724 CURVE",
"82 720 OFFCURVE",
"69 711 OFFCURVE",
"69 697 CURVE SMOOTH",
"69 678 OFFCURVE",
"88 667 OFFCURVE",
"111 667 CURVE SMOOTH",
"133 667 OFFCURVE",
"156 667 OFFCURVE",
"200 677 CURVE",
"102 607 OFFCURVE",
"55 502 OFFCURVE",
"55 338 CURVE SMOOTH",
"55 137 OFFCURVE",
"128 -10 OFFCURVE",
"265 -10 CURVE SMOOTH"
);
}
);
width = 460;
},
{
layerId = "E7C4F5EE-4982-479C-BF20-1C8706EFFC5D";
paths = (
{
closed = 1;
nodes = (
"449 -12 OFFCURVE",
"511 47 OFFCURVE",
"511 103 CURVE SMOOTH",
"511 143 OFFCURVE",
"482 171 OFFCURVE",
"438 171 CURVE",
"438 102 OFFCURVE",
"407 40 OFFCURVE",
"331 40 CURVE SMOOTH",
"220 40 OFFCURVE",
"168 161 OFFCURVE",
"168 325 CURVE SMOOTH",
"168 516 OFFCURVE",
"227 668 OFFCURVE",
"370 668 CURVE SMOOTH",
"410 668 OFFCURVE",
"429 644 OFFCURVE",
"432 596 CURVE",
"467 602 OFFCURVE",
"497 627 OFFCURVE",
"497 661 CURVE SMOOTH",
"497 703 OFFCURVE",
"467 726 OFFCURVE",
"423 726 CURVE SMOOTH",
"378 726 OFFCURVE",
"337 713 OFFCURVE",
"298 701 CURVE SMOOTH",
"259 689 OFFCURVE",
"222 676 OFFCURVE",
"181 676 CURVE SMOOTH",
"144 676 OFFCURVE",
"130 689 OFFCURVE",
"128 725 CURVE",
"88 718 OFFCURVE",
"63 697 OFFCURVE",
"63 667 CURVE SMOOTH",
"63 636 OFFCURVE",
"85 613 OFFCURVE",
"123 613 CURVE SMOOTH",
"143 613 OFFCURVE",
"163 615 OFFCURVE",
"193 627 CURVE",
"109 550 OFFCURVE",
"62 435 OFFCURVE",
"62 310 CURVE SMOOTH",
"62 128 OFFCURVE",
"163 -12 OFFCURVE",
"332 -12 CURVE SMOOTH"
);
}
);
width = 552;
},
{
layerId = "75A83886-EED5-4C31-9670-660514D8A4F6";
paths = (
{
closed = 1;
nodes = (
"504 -14 OFFCURVE",
"572 49 OFFCURVE",
"572 113 CURVE SMOOTH",
"572 164 OFFCURVE",
"531 208 OFFCURVE",
"444 208 CURVE",
"444 140 OFFCURVE",
"423 53 OFFCURVE",
"357 53 CURVE SMOOTH",
"270 53 OFFCURVE",
"227 153 OFFCURVE",
"227 331 CURVE SMOOTH",
"227 467 OFFCURVE",
"258 632 OFFCURVE",
"371 632 CURVE SMOOTH",
"411 632 OFFCURVE",
"442 617 OFFCURVE",
"442 567 CURVE",
"503 567 OFFCURVE",
"559 601 OFFCURVE",
"559 653 CURVE SMOOTH",
"559 695 OFFCURVE",
"525 728 OFFCURVE",
"468 728 CURVE SMOOTH",
"416 728 OFFCURVE",
"370 713 OFFCURVE",
"328 697 CURVE SMOOTH",
"284 680 OFFCURVE",
"245 665 OFFCURVE",
"206 665 CURVE SMOOTH",
"172 665 OFFCURVE",
"158 683 OFFCURVE",
"158 724 CURVE",
"87 724 OFFCURVE",
"45 697 OFFCURVE",
"45 653 CURVE SMOOTH",
"45 613 OFFCURVE",
"75 590 OFFCURVE",
"113 590 CURVE SMOOTH",
"153 590 OFFCURVE",
"187 595 OFFCURVE",
"206 601 CURVE",
"105 534 OFFCURVE",
"51 431 OFFCURVE",
"51 308 CURVE SMOOTH",
"51 133 OFFCURVE",
"152 -14 OFFCURVE",
"356 -14 CURVE SMOOTH"
);
}
);
width = 606;
},
{
layerId = "E17BEC9D-CAAD-449F-91D9-03766E30097E";
paths = (
{
closed = 1;
nodes = (
"610 -14 OFFCURVE",
"702 46 OFFCURVE",
"702 103 CURVE SMOOTH",
"702 165 OFFCURVE",
"653 208 OFFCURVE",
"549 208 CURVE",
"549 141 OFFCURVE",
"524 58 OFFCURVE",
"434 58 CURVE SMOOTH",
"325 58 OFFCURVE",
"274 155 OFFCURVE",
"274 308 CURVE SMOOTH",
"274 546 OFFCURVE",
"380 632 OFFCURVE",
"474 632 CURVE SMOOTH",
"529 632 OFFCURVE",
"555 606 OFFCURVE",
"555 537 CURVE",
"628 537 OFFCURVE",
"690 570 OFFCURVE",
"690 632 CURVE SMOOTH",
"690 689 OFFCURVE",
"646 728 OFFCURVE",
"568 728 CURVE SMOOTH",
"510 728 OFFCURVE",
"447 711 OFFCURVE",
"392 693 CURVE SMOOTH",
"330 673 OFFCURVE",
"276 652 OFFCURVE",
"247 652 CURVE SMOOTH",
"190 652 OFFCURVE",
"170 677 OFFCURVE",
"170 724 CURVE",
"97 724 OFFCURVE",
"50 682 OFFCURVE",
"50 638 CURVE SMOOTH",
"50 572 OFFCURVE",
"99 549 OFFCURVE",
"145 549 CURVE SMOOTH",
"164 549 OFFCURVE",
"184 554 OFFCURVE",
"207 564 CURVE",
"112 500 OFFCURVE",
"64 404 OFFCURVE",
"64 279 CURVE SMOOTH",
"64 111 OFFCURVE",
"202 -14 OFFCURVE",
"435 -14 CURVE SMOOTH"
);
}
);
width = 740;
},
{
layerId = "642E8BFC-F41E-4F9A-93D4-B8BFD55081C9";
paths = (
{
closed = 1;
nodes = (
"495 -13 OFFCURVE",
"566 47 OFFCURVE",
"566 107 CURVE SMOOTH",
"566 153 OFFCURVE",
"531 190 OFFCURVE",
"462 190 CURVE",
"462 122 OFFCURVE",
"437 47 OFFCURVE",
"369 47 CURVE SMOOTH",
"260 47 OFFCURVE",
"223 158 OFFCURVE",
"223 322 CURVE SMOOTH",
"223 489 OFFCURVE",
"252 650 OFFCURVE",
"393 650 CURVE SMOOTH",
"435 650 OFFCURVE",
"455 627 OFFCURVE",
"457 576 CURVE",
"506 579 OFFCURVE",
"553 610 OFFCURVE",
"553 655 CURVE SMOOTH",
"553 698 OFFCURVE",
"521 727 OFFCURVE",
"468 727 CURVE SMOOTH",
"419 727 OFFCURVE",
"375 713 OFFCURVE",
"334 699 CURVE SMOOTH",
"295 686 OFFCURVE",
"258 673 OFFCURVE",
"222 673 CURVE SMOOTH",
"182 673 OFFCURVE",
"168 686 OFFCURVE",
"167 725 CURVE",
"109 721 OFFCURVE",
"74 695 OFFCURVE",
"74 657 CURVE SMOOTH",
"74 624 OFFCURVE",
"96 598 OFFCURVE",
"135 598 CURVE SMOOTH",
"163 598 OFFCURVE",
"187 600 OFFCURVE",
"213 612 CURVE",
"129 536 OFFCURVE",
"72 426 OFFCURVE",
"72 294 CURVE SMOOTH",
"72 122 OFFCURVE",
"177 -13 OFFCURVE",
"366 -13 CURVE SMOOTH"
);
}
);
width = 611;
}
);
note = uni10A0;
unicode = 10A0;
},
{
glyphname = "Ban-oldgeorgian";
lastChange = "2017-03-31 12:59:02 +0000";
layers = (
{
layerId = "5E7FF211-9823-4E5B-BC80-AC4B3CA4BC69";
paths = (
{
closed = 1;
nodes = (
"742 -117 OFFCURVE",
"776 -90 OFFCURVE",
"776 -53 CURVE SMOOTH",
"776 20 OFFCURVE",
"712 54 OFFCURVE",
"592 54 CURVE SMOOTH",
"575 54 LINE",
"575 610 LINE SMOOTH",
"575 663 OFFCURVE",
"608 672 OFFCURVE",
"633 672 CURVE SMOOTH",
"646 672 LINE",
"646 714 LINE",
"399 714 LINE",
"399 672 LINE",
"412 672 LINE SMOOTH",
"437 672 OFFCURVE",
"474 663 OFFCURVE",
"474 610 CURVE SMOOTH",
"474 476 LINE SMOOTH",
"474 365 OFFCURVE",
"419 312 OFFCURVE",
"310 312 CURVE SMOOTH",
"214 312 OFFCURVE",
"166 372 OFFCURVE",
"166 497 CURVE SMOOTH",
"166 584 OFFCURVE",
"185 661 OFFCURVE",
"269 679 CURVE",
"269 695 OFFCURVE",
"261 726 OFFCURVE",
"207 726 CURVE SMOOTH",
"127 726 OFFCURVE",
"55 645 OFFCURVE",
"55 496 CURVE SMOOTH",
"55 338 OFFCURVE",
"147 258 OFFCURVE",
"298 258 CURVE SMOOTH",
"384 258 OFFCURVE",
"449 286 OFFCURVE",
"473 329 CURVE",
"478 329 LINE",
"475 290 OFFCURVE",
"474 262 OFFCURVE",
"474 244 CURVE SMOOTH",
"474 0 LINE",
"575 0 LINE SMOOTH",
"662 0 OFFCURVE",
"698 -37 OFFCURVE",
"698 -117 CURVE"
);
}
);
width = 804;
},
{
layerId = "101C8DBD-EDBB-4DB6-972E-FA2DBA854B69";
paths = (
{
closed = 1;
nodes = (
"758 -132 OFFCURVE",
"806 -94 OFFCURVE",
"806 -41 CURVE SMOOTH",
"806 24 OFFCURVE",
"743 62 OFFCURVE",
"636 62 CURVE SMOOTH",
"613 62 LINE",
"613 606 LINE SMOOTH",
"613 653 OFFCURVE",
"635 661 OFFCURVE",
"664 661 CURVE SMOOTH",
"686 661 LINE",
"686 714 LINE",
"384 714 LINE",
"384 661 LINE",
"406 661 LINE SMOOTH",
"435 661 OFFCURVE",
"454 653 OFFCURVE",
"454 606 CURVE SMOOTH",
"454 464 LINE SMOOTH",
"454 363 OFFCURVE",
"416 312 OFFCURVE",
"337 312 CURVE SMOOTH",
"254 312 OFFCURVE",
"218 358 OFFCURVE",
"218 473 CURVE SMOOTH",
"218 609 OFFCURVE",
"249 661 OFFCURVE",
"317 661 CURVE",
"317 679 OFFCURVE",
"317 722 OFFCURVE",
"259 722 CURVE SMOOTH",
"141 722 OFFCURVE",
"50 640 OFFCURVE",
"50 473 CURVE SMOOTH",
"50 315 OFFCURVE",
"131 228 OFFCURVE",
"278 228 CURVE SMOOTH",
"363 228 OFFCURVE",
"419 251 OFFCURVE",
"456 308 CURVE",
"463 308 LINE",
"458 247 OFFCURVE",
"455 207 OFFCURVE",
"455 187 CURVE SMOOTH",
"455 0 LINE",
"568 0 LINE SMOOTH",
"651 0 OFFCURVE",
"686 -34 OFFCURVE",
"686 -132 CURVE"
);
}
);
width = 821;
},
{
layerId = "5E7C5774-385D-4E06-B68E-CBE970134A7B";
paths = (
{
closed = 1;
nodes = (
"691 -98 OFFCURVE",
"714 -79 OFFCURVE",
"714 -52 CURVE SMOOTH",
"714 6 OFFCURVE",
"670 39 OFFCURVE",
"567 39 CURVE SMOOTH",
"537 39 LINE",
"537 617 LINE SMOOTH",
"537 675 OFFCURVE",
"558 684 OFFCURVE",
"594 684 CURVE SMOOTH",
"611 684 LINE",
"611 714 LINE",
"396 714 LINE",
"396 684 LINE",
"414 684 LINE SMOOTH",
"450 684 OFFCURVE",
"472 675 OFFCURVE",
"472 617 CURVE SMOOTH",
"472 471 LINE SMOOTH",
"472 359 OFFCURVE",
"417 286 OFFCURVE",
"288 286 CURVE SMOOTH",
"179 286 OFFCURVE",
"126 360 OFFCURVE",
"126 489 CURVE SMOOTH",
"126 605 OFFCURVE",
"163 684 OFFCURVE",
"252 691 CURVE",
"252 701 OFFCURVE",
"248 723 OFFCURVE",
"214 723 CURVE SMOOTH",
"114 723 OFFCURVE",
"55 617 OFFCURVE",
"55 488 CURVE SMOOTH",
"55 331 OFFCURVE",
"142 247 OFFCURVE",
"282 247 CURVE SMOOTH",
"380 247 OFFCURVE",
"443 284 OFFCURVE",
"472 340 CURVE",
"476 340 LINE",
"474 305 OFFCURVE",
"473 274 OFFCURVE",
"473 249 CURVE SMOOTH",
"473 0 LINE",
"556 0 LINE SMOOTH",
"633 0 OFFCURVE",
"663 -27 OFFCURVE",
"663 -98 CURVE"
);
}
);
width = 737;
},
{
layerId = "1D4F67F9-897D-45AD-B7F0-CA61A6862C03";
paths = (
{
closed = 1;
nodes = (
"645 -81 OFFCURVE",
"658 -70 OFFCURVE",
"658 -51 CURVE SMOOTH",
"658 -6 OFFCURVE",
"631 25 OFFCURVE",
"541 25 CURVE SMOOTH",
"499 25 LINE",
"499 624 LINE SMOOTH",
"499 685 OFFCURVE",
"509 694 OFFCURVE",
"555 694 CURVE SMOOTH",
"575 694 LINE",
"575 714 LINE",
"392 714 LINE",
"392 694 LINE",
"415 694 LINE SMOOTH",
"461 694 OFFCURVE",
"471 685 OFFCURVE",
"471 624 CURVE SMOOTH",
"471 467 LINE SMOOTH",
"471 354 OFFCURVE",
"414 263 OFFCURVE",
"267 263 CURVE SMOOTH",
"148 263 OFFCURVE",
"90 340 OFFCURVE",
"90 477 CURVE SMOOTH",
"90 619 OFFCURVE",
"148 701 OFFCURVE",
"237 701 CURVE",
"237 707 OFFCURVE",
"235 721 OFFCURVE",
"215 721 CURVE SMOOTH",
"118 721 OFFCURVE",
"62 608 OFFCURVE",
"62 477 CURVE SMOOTH",
"62 315 OFFCURVE",
"136 238 OFFCURVE",
"267 238 CURVE SMOOTH",
"376 238 OFFCURVE",
"437 282 OFFCURVE",
"471 350 CURVE",
"474 350 LINE",
"472 318 OFFCURVE",
"471 285 OFFCURVE",
"471 253 CURVE SMOOTH",
"471 0 LINE",
"534 0 LINE SMOOTH",
"606 0 OFFCURVE",
"631 -18 OFFCURVE",
"631 -81 CURVE"
);
}
);
width = 683;
},
{
layerId = "75A83886-EED5-4C31-9670-660514D8A4F6";
paths = (
{
closed = 1;
nodes = (
"760 -140 OFFCURVE",
"799 -100 OFFCURVE",
"799 -41 CURVE SMOOTH",
"799 36 OFFCURVE",
"715 68 OFFCURVE",
"608 68 CURVE SMOOTH",
"575 68 LINE",
"575 600 LINE SMOOTH",
"575 643 OFFCURVE",
"587 658 OFFCURVE",
"617 658 CURVE SMOOTH",
"633 658 LINE",
"633 714 LINE",
"352 714 LINE",
"352 658 LINE",
"366 658 LINE SMOOTH",
"390 658 OFFCURVE",
"408 643 OFFCURVE",
"408 601 CURVE SMOOTH",
"408 418 LINE SMOOTH",
"408 372 OFFCURVE",
"379 311 OFFCURVE",
"300 311 CURVE SMOOTH",
"221 311 OFFCURVE",
"204 360 OFFCURVE",
"204 474 CURVE SMOOTH",
"204 599 OFFCURVE",
"225 648 OFFCURVE",
"280 658 CURVE",
"280 683 OFFCURVE",
"271 720 OFFCURVE",
"214 720 CURVE SMOOTH",
"116 720 OFFCURVE",
"34 638 OFFCURVE",
"34 486 CURVE SMOOTH",
"34 314 OFFCURVE",
"125 230 OFFCURVE",
"247 230 CURVE SMOOTH",
"324 230 OFFCURVE",
"372 254 OFFCURVE",
"408 302 CURVE",
"412 302 LINE",
"409 278 OFFCURVE",
"408 254 OFFCURVE",
"408 230 CURVE SMOOTH",
"408 0 LINE",
"570 0 LINE SMOOTH",
"649 0 OFFCURVE",
"685 -32 OFFCURVE",
"685 -140 CURVE"
);
}
);
width = 809;
},
{
layerId = "C91144B6-58F5-45F2-9CE4-7ED6CE127FD4";
paths = (
{
closed = 1;
nodes = (
"513 -81 OFFCURVE",
"523 -70 OFFCURVE",
"523 -51 CURVE SMOOTH",
"523 8 OFFCURVE",
"487 25 OFFCURVE",
"443 25 CURVE SMOOTH",
"406 25 LINE",
"406 646 LINE SMOOTH",
"406 683 OFFCURVE",
"412 694 OFFCURVE",
"446 694 CURVE SMOOTH",
"466 694 LINE",
"466 714 LINE",
"312 714 LINE",
"312 694 LINE",
"332 694 LINE SMOOTH",
"362 694 OFFCURVE",
"378 683 OFFCURVE",
"378 646 CURVE SMOOTH",
"378 399 LINE SMOOTH",
"378 332 OFFCURVE",
"316 263 OFFCURVE",
"227 263 CURVE SMOOTH",
"118 263 OFFCURVE",
"76 337 OFFCURVE",
"76 477 CURVE SMOOTH",
"76 619 OFFCURVE",
"126 695 OFFCURVE",
"205 695 CURVE",
"205 703 OFFCURVE",
"203 724 OFFCURVE",
"174 718 CURVE SMOOTH",
"100 703 OFFCURVE",
"48 636 OFFCURVE",
"48 477 CURVE SMOOTH",
"48 312 OFFCURVE",
"105 238 OFFCURVE",
"225 238 CURVE SMOOTH",
"283 238 OFFCURVE",
"343 264 OFFCURVE",
"376 330 CURVE",
"380 330 LINE",
"379 309 OFFCURVE",
"378 289 OFFCURVE",
"378 268 CURVE SMOOTH",
"378 0 LINE",
"438 0 LINE SMOOTH",
"479 0 OFFCURVE",
"496 -15 OFFCURVE",
"496 -81 CURVE"
);
}
);
width = 533;
},
{
layerId = "E7C4F5EE-4982-479C-BF20-1C8706EFFC5D";
paths = (
{
closed = 1;
nodes = (
"636 -109 OFFCURVE",
"660 -78 OFFCURVE",
"660 -40 CURVE SMOOTH",
"660 29 OFFCURVE",
"599 51 OFFCURVE",
"525 51 CURVE SMOOTH",
"496 51 LINE",
"496 608 LINE SMOOTH",
"496 657 OFFCURVE",
"514 669 OFFCURVE",
"539 669 CURVE SMOOTH",
"561 669 LINE",
"561 714 LINE",
"337 714 LINE",
"337 669 LINE",
"358 669 LINE SMOOTH",
"379 669 OFFCURVE",
"402 657 OFFCURVE",
"402 608 CURVE SMOOTH",
"402 409 LINE SMOOTH",
"402 353 OFFCURVE",
"351 293 OFFCURVE",
"266 293 CURVE SMOOTH",
"165 293 OFFCURVE",
"135 353 OFFCURVE",
"135 478 CURVE SMOOTH",
"135 610 OFFCURVE",
"172 668 OFFCURVE",
"234 677 CURVE",
"234 691 OFFCURVE",
"233 722 OFFCURVE",
"195 722 CURVE SMOOTH",
"115 722 OFFCURVE",
"42 639 OFFCURVE",
"42 478 CURVE SMOOTH",
"42 314 OFFCURVE",
"120 236 OFFCURVE",
"239 236 CURVE SMOOTH",
"309 236 OFFCURVE",
"367 261 OFFCURVE",
"401 319 CURVE",
"405 319 LINE",
"403 296 OFFCURVE",
"402 274 OFFCURVE",
"402 252 CURVE SMOOTH",
"402 0 LINE",
"512 0 LINE SMOOTH",
"565 0 OFFCURVE",
"592 -23 OFFCURVE",
"592 -109 CURVE"
);
}
);
width = 670;
},
{
layerId = "E17BEC9D-CAAD-449F-91D9-03766E30097E";
paths = (
{
closed = 1;
nodes = (
"887 -151 OFFCURVE",
"932 -105 OFFCURVE",
"932 -40 CURVE SMOOTH",
"932 44 OFFCURVE",
"870 76 OFFCURVE",
"735 76 CURVE SMOOTH",
"695 76 LINE",
"695 599 LINE SMOOTH",
"695 636 OFFCURVE",
"709 653 OFFCURVE",
"737 653 CURVE SMOOTH",
"762 653 LINE",
"762 714 LINE",
"429 714 LINE",
"429 653 LINE",
"452 653 LINE SMOOTH",
"474 653 OFFCURVE",
"495 636 OFFCURVE",
"495 600 CURVE SMOOTH",
"495 415 LINE SMOOTH",
"495 357 OFFCURVE",
"443 288 OFFCURVE",
"362 288 CURVE SMOOTH",
"272 288 OFFCURVE",
"242 348 OFFCURVE",
"242 469 CURVE SMOOTH",
"242 597 OFFCURVE",
"272 657 OFFCURVE",
"332 657 CURVE",
"332 677 OFFCURVE",
"332 727 OFFCURVE",
"259 727 CURVE SMOOTH",
"138 727 OFFCURVE",
"42 635 OFFCURVE",
"42 466 CURVE SMOOTH",
"42 295 OFFCURVE",
"144 212 OFFCURVE",
"321 212 CURVE SMOOTH",
"410 212 OFFCURVE",
"456 243 OFFCURVE",
"491 280 CURVE",
"501 280 LINE",
"496 252 OFFCURVE",
"495 223 OFFCURVE",
"495 191 CURVE SMOOTH",
"495 0 LINE",
"677 0 LINE SMOOTH",
"756 0 OFFCURVE",
"800 -28 OFFCURVE",
"800 -151 CURVE"
);
}
);
width = 944;
},
{
associatedMasterId = "1D4F67F9-897D-45AD-B7F0-CA61A6862C03";
background = {
paths = (
{
closed = 1;
nodes = (
"372 694 LINE",
"415 694 LINE SMOOTH",
"465 694 OFFCURVE",
"471 683 OFFCURVE",
"471 606 CURVE SMOOTH",
"471 467 LINE SMOOTH",
"471 354 OFFCURVE",
"421 263 OFFCURVE",
"308 263 CURVE SMOOTH",
"209 263 OFFCURVE",
"147 324 OFFCURVE",
"147 418 CURVE SMOOTH",
"147 714 LINE",
"30 714 LINE",
"30 694 LINE",
"63 694 LINE SMOOTH",
"113 694 OFFCURVE",
"119 683 OFFCURVE",
"119 606 CURVE SMOOTH",
"119 418 LINE SMOOTH",
"119 299 OFFCURVE",
"196 238 OFFCURVE",
"310 238 CURVE SMOOTH",
"388 238 OFFCURVE",
"441 275 OFFCURVE",
"471 343 CURVE",
"474 343 LINE",
"472 311 OFFCURVE",
"471 278 OFFCURVE",
"471 246 CURVE SMOOTH",
"471 0 LINE",
"499 0 LINE",
"499 714 LINE",
"372 714 LINE"
);
},
{
closed = 0;
nodes = (
"-357 403 LINE",
"-476 403 OFFCURVE",
"-526 482 OFFCURVE",
"-527 617 CURVE SMOOTH",
"-528 759 OFFCURVE",
"-476 829 OFFCURVE",
"-350 829 CURVE",
"-350 854 LINE",
"-495 854 OFFCURVE",
"-555 778 OFFCURVE",
"-555 617 CURVE SMOOTH",
"-555 455 OFFCURVE",
"-489 378 OFFCURVE",
"-355 378 CURVE"
);
}
);
};
layerId = "1086D230-603B-4D38-8D45-DC229094BA3E";
paths = (
{
closed = 1;
nodes = (
"499 0 LINE",
"499 714 LINE",
"372 714 LINE",
"372 694 LINE",
"415 694 LINE SMOOTH",
"465 694 OFFCURVE",
"471 683 OFFCURVE",
"471 606 CURVE SMOOTH",
"471 467 LINE SMOOTH",
"471 354 OFFCURVE",
"414 263 OFFCURVE",
"267 263 CURVE SMOOTH",
"148 263 OFFCURVE",
"90 340 OFFCURVE",
"90 477 CURVE SMOOTH",
"90 619 OFFCURVE",
"138 690 OFFCURVE",
"237 690 CURVE",
"237 714 LINE",
"122 714 OFFCURVE",
"62 638 OFFCURVE",
"62 477 CURVE SMOOTH",
"62 315 OFFCURVE",
"136 238 OFFCURVE",
"267 238 CURVE SMOOTH",
"376 238 OFFCURVE",
"437 282 OFFCURVE",
"471 350 CURVE",
"474 350 LINE",
"472 318 OFFCURVE",
"471 285 OFFCURVE",
"471 253 CURVE SMOOTH",
"471 0 LINE"
);
}
);
width = 614;
},
{
layerId = "642E8BFC-F41E-4F9A-93D4-B8BFD55081C9";
paths = (
{
closed = 1;
nodes = (
"706 -126 OFFCURVE",
"738 -90 OFFCURVE",
"738 -41 CURVE SMOOTH",
"738 33 OFFCURVE",
"664 60 OFFCURVE",
"572 60 CURVE SMOOTH",
"542 60 LINE",
"542 601 LINE SMOOTH",
"542 649 OFFCURVE",
"557 663 OFFCURVE",
"584 663 CURVE SMOOTH",
"607 663 LINE",
"607 714 LINE",
"342 714 LINE",
"342 663 LINE",
"363 663 LINE SMOOTH",
"386 663 OFFCURVE",
"406 649 OFFCURVE",
"406 602 CURVE SMOOTH",
"406 414 LINE SMOOTH",
"406 364 OFFCURVE",
"367 303 OFFCURVE",
"286 303 CURVE SMOOTH",
"197 303 OFFCURVE",
"174 357 OFFCURVE",
"174 479 CURVE SMOOTH",
"174 607 OFFCURVE",
"202 666 OFFCURVE",
"260 668 CURVE",
"260 686 OFFCURVE",
"256 724 OFFCURVE",
"205 724 CURVE SMOOTH",
"112 724 OFFCURVE",
"38 640 OFFCURVE",
"38 481 CURVE SMOOTH",
"38 312 OFFCURVE",
"123 232 OFFCURVE",
"243 232 CURVE SMOOTH",
"317 232 OFFCURVE",
"370 257 OFFCURVE",
"405 310 CURVE",
"409 310 LINE",
"407 286 OFFCURVE",
"406 263 OFFCURVE",
"406 240 CURVE SMOOTH",
"406 0 LINE",
"545 0 LINE SMOOTH",
"613 0 OFFCURVE",
"645 -28 OFFCURVE",
"645 -126 CURVE"
);
}
);
width = 748;
}
);
note = uni10A1;
rightKerningGroup = "Ban-oldgeorgian";
unicode = 10A1;
},
{
glyphname = "Gan-oldgeorgian";
lastChange = "2017-03-31 12:59:02 +0000";
layers = (
{
layerId = "5E7FF211-9823-4E5B-BC80-AC4B3CA4BC69";
paths = (
{
closed = 1;
nodes = (
"590 54 LINE",
"590 610 LINE SMOOTH",
"590 663 OFFCURVE",
"627 672 OFFCURVE",
"652 672 CURVE SMOOTH",
"666 672 LINE",
"666 714 LINE",
"38 714 LINE",
"38 672 LINE",
"52 672 LINE SMOOTH",
"77 672 OFFCURVE",
"114 663 OFFCURVE",
"114 610 CURVE SMOOTH",
"114 428 LINE SMOOTH",
"114 375 OFFCURVE",
"77 366 OFFCURVE",
"52 366 CURVE SMOOTH",
"38 366 LINE",
"38 324 LINE",
"214 324 LINE",
"214 660 LINE",
"489 660 LINE",
"489 0 LINE",
"590 0 LINE SMOOTH",
"677 0 OFFCURVE",
"713 -37 OFFCURVE",
"713 -117 CURVE",
"757 -117 OFFCURVE",
"791 -90 OFFCURVE",
"791 -53 CURVE SMOOTH",
"791 20 OFFCURVE",
"727 54 OFFCURVE",
"607 54 CURVE SMOOTH"
);
}
);
width = 813;
},
{
layerId = "101C8DBD-EDBB-4DB6-972E-FA2DBA854B69";
paths = (
{
closed = 1;
nodes = (
"668 62 LINE",
"668 606 LINE SMOOTH",
"668 653 OFFCURVE",
"690 661 OFFCURVE",
"719 661 CURVE SMOOTH",
"742 661 LINE",
"742 714 LINE",
"28 714 LINE",
"28 661 LINE",
"51 661 LINE SMOOTH",
"80 661 OFFCURVE",
"102 653 OFFCURVE",
"102 606 CURVE SMOOTH",
"102 417 LINE SMOOTH",
"102 370 OFFCURVE",
"80 362 OFFCURVE",
"51 362 CURVE SMOOTH",
"28 362 LINE",
"28 309 LINE",
"260 309 LINE",
"260 643 LINE",
"510 643 LINE",
"510 0 LINE",
"625 0 LINE SMOOTH",
"708 0 OFFCURVE",
"743 -34 OFFCURVE",
"743 -132 CURVE",
"815 -132 OFFCURVE",
"863 -94 OFFCURVE",
"863 -41 CURVE SMOOTH",
"863 24 OFFCURVE",
"800 62 OFFCURVE",
"693 62 CURVE SMOOTH"
);
}
);
width = 878;
},
{
layerId = "5E7C5774-385D-4E06-B68E-CBE970134A7B";
paths = (
{
closed = 1;
nodes = (
"580 36 LINE",
"580 617 LINE SMOOTH",
"580 675 OFFCURVE",
"602 684 OFFCURVE",
"638 684 CURVE SMOOTH",
"657 684 LINE",
"657 714 LINE",
"45 714 LINE",
"45 684 LINE",
"64 684 LINE SMOOTH",
"100 684 OFFCURVE",
"122 675 OFFCURVE",
"122 617 CURVE SMOOTH",
"122 428 LINE SMOOTH",
"122 370 OFFCURVE",
"100 361 OFFCURVE",
"64 361 CURVE SMOOTH",
"45 361 LINE",
"45 331 LINE",
"186 331 LINE",
"186 671 LINE",
"516 671 LINE",
"516 0 LINE",
"600 0 LINE SMOOTH",
"677 0 OFFCURVE",
"690 -22 OFFCURVE",
"690 -96 CURVE",
"724 -96 OFFCURVE",
"743 -78 OFFCURVE",
"743 -48 CURVE SMOOTH",
"743 8 OFFCURVE",
"708 36 OFFCURVE",
"607 36 CURVE SMOOTH"
);
}
);
width = 763;
},
{
layerId = "1D4F67F9-897D-45AD-B7F0-CA61A6862C03";
paths = (
{
closed = 1;
nodes = (
"548 25 LINE",
"548 624 LINE SMOOTH",
"548 685 OFFCURVE",
"558 694 OFFCURVE",
"604 694 CURVE SMOOTH",
"627 694 LINE",
"627 714 LINE",
"50 714 LINE",
"50 694 LINE",
"73 694 LINE SMOOTH",
"119 694 OFFCURVE",
"129 685 OFFCURVE",
"129 624 CURVE SMOOTH",
"129 446 LINE SMOOTH",
"129 385 OFFCURVE",
"119 376 OFFCURVE",
"73 376 CURVE SMOOTH",
"50 376 LINE",
"50 356 LINE",
"157 356 LINE",
"157 689 LINE",
"520 689 LINE",
"520 0 LINE",
"583 0 LINE SMOOTH",
"655 0 OFFCURVE",
"680 -18 OFFCURVE",
"680 -81 CURVE",
"694 -81 OFFCURVE",
"707 -70 OFFCURVE",
"707 -51 CURVE SMOOTH",
"707 -6 OFFCURVE",
"680 25 OFFCURVE",
"590 25 CURVE SMOOTH"
);
}
);
width = 732;
},
{
layerId = "75A83886-EED5-4C31-9670-660514D8A4F6";
paths = (
{
closed = 1;
nodes = (
"564 68 LINE",
"564 600 LINE SMOOTH",
"564 643 OFFCURVE",
"576 658 OFFCURVE",
"606 658 CURVE SMOOTH",
"622 658 LINE",
"622 714 LINE",
"18 714 LINE",
"18 658 LINE",
"34 658 LINE SMOOTH",
"64 658 OFFCURVE",
"76 643 OFFCURVE",
"76 600 CURVE SMOOTH",
"76 433 LINE SMOOTH",
"76 390 OFFCURVE",
"64 375 OFFCURVE",
"34 375 CURVE SMOOTH",
"18 375 LINE",
"18 319 LINE",
"243 319 LINE",
"243 640 LINE",
"397 640 LINE",
"397 0 LINE",
"559 0 LINE SMOOTH",
"638 0 OFFCURVE",
"674 -32 OFFCURVE",
"674 -140 CURVE",
"749 -140 OFFCURVE",
"788 -100 OFFCURVE",
"788 -41 CURVE SMOOTH",
"788 36 OFFCURVE",
"704 68 OFFCURVE",
"597 68 CURVE SMOOTH"
);
}
);
width = 798;
},
{
layerId = "C91144B6-58F5-45F2-9CE4-7ED6CE127FD4";
paths = (
{
closed = 1;
nodes = (
"435 25 LINE",
"435 646 LINE SMOOTH",
"435 683 OFFCURVE",
"441 694 OFFCURVE",
"481 694 CURVE SMOOTH",
"501 694 LINE",
"501 714 LINE",
"36 714 LINE",
"36 694 LINE",
"56 694 LINE SMOOTH",
"96 694 OFFCURVE",
"102 683 OFFCURVE",
"102 646 CURVE SMOOTH",
"102 426 LINE SMOOTH",
"102 389 OFFCURVE",
"96 378 OFFCURVE",
"56 378 CURVE SMOOTH",
"36 378 LINE",
"36 358 LINE",
"130 358 LINE",
"130 689 LINE",
"407 689 LINE",
"407 0 LINE",
"467 0 LINE SMOOTH",
"508 0 OFFCURVE",
"525 -15 OFFCURVE",
"525 -81 CURVE",
"542 -81 OFFCURVE",
"552 -70 OFFCURVE",
"552 -51 CURVE SMOOTH",
"552 8 OFFCURVE",
"516 25 OFFCURVE",
"472 25 CURVE SMOOTH"
);
}
);
width = 562;
},
{
layerId = "E7C4F5EE-4982-479C-BF20-1C8706EFFC5D";
paths = (
{
closed = 1;
nodes = (
"514 51 LINE",
"514 608 LINE SMOOTH",
"514 657 OFFCURVE",
"536 669 OFFCURVE",
"559 669 CURVE SMOOTH",
"580 669 LINE",
"580 714 LINE",
"45 714 LINE",
"45 669 LINE",
"66 669 LINE SMOOTH",
"89 669 OFFCURVE",
"110 657 OFFCURVE",
"110 608 CURVE SMOOTH",
"110 442 LINE SMOOTH",
"110 392 OFFCURVE",
"89 380 OFFCURVE",
"66 380 CURVE SMOOTH",
"45 380 LINE",
"45 335 LINE",
"202 335 LINE",
"202 659 LINE",
"422 659 LINE",
"422 0 LINE",
"533 0 LINE SMOOTH",
"586 0 OFFCURVE",
"614 -23 OFFCURVE",
"614 -109 CURVE",
"657 -109 OFFCURVE",
"681 -78 OFFCURVE",
"681 -40 CURVE SMOOTH",
"681 29 OFFCURVE",
"620 51 OFFCURVE",
"545 51 CURVE SMOOTH"
);
}
);
width = 691;
},
{
layerId = "E17BEC9D-CAAD-449F-91D9-03766E30097E";
paths = (
{
closed = 1;
nodes = (
"688 76 LINE",
"688 599 LINE SMOOTH",
"688 636 OFFCURVE",
"702 653 OFFCURVE",
"730 653 CURVE SMOOTH",
"755 653 LINE",
"755 714 LINE",
"21 714 LINE",
"21 653 LINE",
"46 653 LINE SMOOTH",
"74 653 OFFCURVE",
"88 636 OFFCURVE",
"88 599 CURVE SMOOTH",
"88 413 LINE SMOOTH",
"88 376 OFFCURVE",
"74 359 OFFCURVE",
"46 359 CURVE SMOOTH",
"21 359 LINE",
"21 298 LINE",
"288 298 LINE",
"288 638 LINE",
"488 638 LINE",
"488 0 LINE",
"670 0 LINE SMOOTH",
"749 0 OFFCURVE",
"793 -28 OFFCURVE",
"793 -151 CURVE",
"880 -151 OFFCURVE",
"925 -105 OFFCURVE",
"925 -40 CURVE SMOOTH",
"925 44 OFFCURVE",
"863 76 OFFCURVE",
"728 76 CURVE SMOOTH"
);
}
);
width = 937;
},
{
associatedMasterId = "1D4F67F9-897D-45AD-B7F0-CA61A6862C03";
layerId = "1086D230-603B-4D38-8D45-DC229094BA3E";
paths = (
{
closed = 1;
nodes = (
"637 -81 OFFCURVE",
"650 -70 OFFCURVE",
"650 -51 CURVE SMOOTH",
"650 -6 OFFCURVE",
"623 25 OFFCURVE",
"533 25 CURVE SMOOTH",
"491 25 LINE",
"491 500 LINE SMOOTH",
"491 663 OFFCURVE",
"409 724 OFFCURVE",
"281 724 CURVE SMOOTH",
"136 724 OFFCURVE",
"72 626 OFFCURVE",
"72 496 CURVE SMOOTH",
"72 368 LINE",
"100 368 LINE",
"100 495 LINE SMOOTH",
"100 608 OFFCURVE",
"152 699 OFFCURVE",
"283 699 CURVE SMOOTH",
"397 699 OFFCURVE",
"463 638 OFFCURVE",
"463 504 CURVE SMOOTH",
"463 0 LINE",
"526 0 LINE SMOOTH",
"598 0 OFFCURVE",
"623 -18 OFFCURVE",
"623 -81 CURVE"
);
}
);
width = 675;
},
{
layerId = "642E8BFC-F41E-4F9A-93D4-B8BFD55081C9";
paths = (
{
closed = 1;
nodes = (
"536 60 LINE",
"536 602 LINE SMOOTH",
"536 649 OFFCURVE",
"555 663 OFFCURVE",
"579 663 CURVE SMOOTH",
"600 663 LINE",
"600 714 LINE",
"21 714 LINE",
"21 663 LINE",
"42 663 LINE SMOOTH",
"66 663 OFFCURVE",
"85 649 OFFCURVE",
"85 602 CURVE SMOOTH",
"85 440 LINE SMOOTH",
"85 392 OFFCURVE",
"66 378 OFFCURVE",
"42 378 CURVE SMOOTH",
"21 378 LINE",
"21 327 LINE",
"219 327 LINE",
"219 648 LINE",
"402 648 LINE",
"402 0 LINE",
"541 0 LINE SMOOTH",
"609 0 OFFCURVE",
"641 -28 OFFCURVE",
"641 -126 CURVE",
"702 -126 OFFCURVE",
"735 -90 OFFCURVE",
"735 -41 CURVE SMOOTH",
"735 33 OFFCURVE",
"661 60 OFFCURVE",
"568 60 CURVE SMOOTH"
);
}
);
width = 745;
}
);
leftKerningGroup = "Gan-oldgeorgian";
note = uni10A2;
rightKerningGroup = "Ban-oldgeorgian";
unicode = 10A2;
},
{
glyphname = "Don-oldgeorgian";
lastChange = "2017-03-28 18:51:32 +0000";
layers = (
{
layerId = "5E7FF211-9823-4E5B-BC80-AC4B3CA4BC69";
paths = (
{
closed = 1;
nodes = (
"568 -10 OFFCURVE",
"685 102 OFFCURVE",
"685 280 CURVE SMOOTH",
"685 441 OFFCURVE",
"585 544 OFFCURVE",
"418 560 CURVE",
"418 649 LINE",
"468 661 OFFCURVE",
"507 666 OFFCURVE",
"536 666 CURVE SMOOTH",
"583 666 OFFCURVE",
"606 647 OFFCURVE",
"614 596 CURVE",
"655 606 OFFCURVE",
"682 629 OFFCURVE",
"682 659 CURVE SMOOTH",
"682 704 OFFCURVE",
"649 726 OFFCURVE",
"584 726 CURVE SMOOTH",
"554 726 OFFCURVE",
"480 716 OFFCURVE",
"378 692 CURVE SMOOTH",
"307 675 OFFCURVE",
"263 672 OFFCURVE",
"205 672 CURVE SMOOTH",
"154 672 OFFCURVE",
"132 689 OFFCURVE",
"127 724 CURVE",
"81 713 OFFCURVE",
"58 695 OFFCURVE",
"58 670 CURVE SMOOTH",
"58 630 OFFCURVE",
"91 611 OFFCURVE",
"157 611 CURVE SMOOTH",
"195 611 OFFCURVE",
"250 617 OFFCURVE",
"323 630 CURVE",
"323 560 LINE",
"152 545 OFFCURVE",
"56 445 OFFCURVE",
"56 281 CURVE SMOOTH",
"56 95 OFFCURVE",
"170 -10 OFFCURVE",
"371 -10 CURVE SMOOTH"
);
},
{
closed = 1;
nodes = (
"233 44 OFFCURVE",
"167 118 OFFCURVE",
"167 280 CURVE SMOOTH",
"167 442 OFFCURVE",
"234 515 OFFCURVE",
"372 515 CURVE SMOOTH",
"508 515 OFFCURVE",
"574 442 OFFCURVE",
"574 280 CURVE SMOOTH",
"574 118 OFFCURVE",
"509 44 OFFCURVE",
"371 44 CURVE SMOOTH"
);
}
);
width = 743;
},
{
layerId = "101C8DBD-EDBB-4DB6-972E-FA2DBA854B69";
paths = (
{
closed = 1;
nodes = (
"592 -13 OFFCURVE",
"732 93 OFFCURVE",
"732 282 CURVE SMOOTH",
"732 441 OFFCURVE",
"631 546 OFFCURVE",
"452 566 CURVE",
"452 641 LINE",
"496 653 OFFCURVE",
"532 659 OFFCURVE",
"561 659 CURVE SMOOTH",
"604 659 OFFCURVE",
"627 634 OFFCURVE",
"627 597 CURVE",
"700 597 OFFCURVE",
"737 618 OFFCURVE",
"737 659 CURVE SMOOTH",
"737 699 OFFCURVE",
"690 727 OFFCURVE",
"620 727 CURVE SMOOTH",
"552 727 OFFCURVE",
"481 706 OFFCURVE",
"410 687 CURVE SMOOTH",
"337 668 OFFCURVE",
"283 662 OFFCURVE",
"227 662 CURVE SMOOTH",
"181 662 OFFCURVE",
"160 687 OFFCURVE",
"160 724 CURVE",
"86 724 OFFCURVE",
"50 703 OFFCURVE",
"50 661 CURVE SMOOTH",
"50 622 OFFCURVE",
"94 594 OFFCURVE",
"167 594 CURVE SMOOTH",
"227 594 OFFCURVE",
"283 602 OFFCURVE",
"335 613 CURVE",
"335 566 LINE",
"153 547 OFFCURVE",
"55 447 OFFCURVE",
"55 283 CURVE SMOOTH",
"55 89 OFFCURVE",
"191 -13 OFFCURVE",
"394 -13 CURVE SMOOTH"
);
},
{
closed = 1;
nodes = (
"280 52 OFFCURVE",
"223 128 OFFCURVE",
"223 282 CURVE SMOOTH",
"223 436 OFFCURVE",
"280 509 OFFCURVE",
"395 509 CURVE SMOOTH",
"509 509 OFFCURVE",
"564 437 OFFCURVE",
"564 282 CURVE SMOOTH",
"564 127 OFFCURVE",
"508 52 OFFCURVE",
"394 52 CURVE SMOOTH"
);
}
);
width = 787;
},
{
layerId = "5E7C5774-385D-4E06-B68E-CBE970134A7B";
paths = (
{
closed = 1;
nodes = (
"549 -11 OFFCURVE",
"656 112 OFFCURVE",
"656 295 CURVE SMOOTH",
"656 470 OFFCURVE",
"561 587 OFFCURVE",
"387 599 CURVE",
"387 666 LINE",
"436 677 OFFCURVE",
"478 683 OFFCURVE",
"514 683 CURVE SMOOTH",
"560 683 OFFCURVE",
"581 662 OFFCURVE",
"587 610 CURVE",
"618 620 OFFCURVE",
"638 643 OFFCURVE",
"638 673 CURVE SMOOTH",
"638 708 OFFCURVE",
"613 725 OFFCURVE",
"553 725 CURVE SMOOTH",
"499 725 OFFCURVE",
"423 714 OFFCURVE",
"339 694 CURVE SMOOTH",
"282 680 OFFCURVE",
"227 667 OFFCURVE",
"194 667 CURVE SMOOTH",
"145 667 OFFCURVE",
"129 684 OFFCURVE",
"125 724 CURVE",
"90 713 OFFCURVE",
"73 695 OFFCURVE",
"73 670 CURVE SMOOTH",
"73 630 OFFCURVE",
"98 618 OFFCURVE",
"141 618 CURVE SMOOTH",
"185 618 OFFCURVE",
"282 641 OFFCURVE",
"327 653 CURVE",
"327 599 LINE",
"145 587 OFFCURVE",
"57 470 OFFCURVE",
"57 296 CURVE SMOOTH",
"57 112 OFFCURVE",
"155 -11 OFFCURVE",
"357 -11 CURVE SMOOTH"
);
},
{
closed = 1;
nodes = (
"201 36 OFFCURVE",
"132 133 OFFCURVE",
"132 295 CURVE SMOOTH",
"132 458 OFFCURVE",
"201 553 OFFCURVE",
"358 553 CURVE SMOOTH",
"522 553 OFFCURVE",
"581 458 OFFCURVE",
"581 295 CURVE SMOOTH",
"581 133 OFFCURVE",
"521 36 OFFCURVE",
"357 36 CURVE SMOOTH"
);
}
);
width = 714;
},
{
layerId = "1D4F67F9-897D-45AD-B7F0-CA61A6862C03";
paths = (
{
closed = 1;
nodes = (
"545 -10 OFFCURVE",
"627 111 OFFCURVE",
"627 298 CURVE SMOOTH",
"627 488 OFFCURVE",
"550 601 OFFCURVE",
"355 605 CURVE",
"355 676 LINE",
"420 689 OFFCURVE",
"471 699 OFFCURVE",
"503 699 CURVE SMOOTH",
"549 699 OFFCURVE",
"562 679 OFFCURVE",
"565 649 CURVE",
"582 651 OFFCURVE",
"597 668 OFFCURVE",
"597 685 CURVE SMOOTH",
"597 711 OFFCURVE",
"578 724 OFFCURVE",
"542 724 CURVE SMOOTH",
"500 724 OFFCURVE",
"444 715 OFFCURVE",
"361 698 CURVE SMOOTH",
"277 681 OFFCURVE",
"202 671 OFFCURVE",
"167 671 CURVE SMOOTH",
"137 671 OFFCURVE",
"124 684 OFFCURVE",
"122 714 CURVE",
"102 710 OFFCURVE",
"89 697 OFFCURVE",
"89 683 CURVE SMOOTH",
"89 660 OFFCURVE",
"108 646 OFFCURVE",
"139 646 CURVE SMOOTH",
"181 646 OFFCURVE",
"243 656 OFFCURVE",
"330 671 CURVE",
"330 605 LINE",
"152 599 OFFCURVE",
"58 487 OFFCURVE",
"58 299 CURVE SMOOTH",
"58 103 OFFCURVE",
"153 -10 OFFCURVE",
"343 -10 CURVE SMOOTH"
);
},
{
closed = 1;
nodes = (
"172 15 OFFCURVE",
"86 121 OFFCURVE",
"86 298 CURVE SMOOTH",
"86 475 OFFCURVE",
"172 580 OFFCURVE",
"344 580 CURVE SMOOTH",
"530 580 OFFCURVE",
"599 475 OFFCURVE",
"599 298 CURVE SMOOTH",
"599 122 OFFCURVE",
"524 15 OFFCURVE",
"343 15 CURVE SMOOTH"
);
}
);
width = 686;
},
{
layerId = "75A83886-EED5-4C31-9670-660514D8A4F6";
paths = (
{
closed = 1;
nodes = (
"533 -14 OFFCURVE",
"639 102 OFFCURVE",
"639 280 CURVE SMOOTH",
"639 437 OFFCURVE",
"554 545 OFFCURVE",
"401 566 CURVE",
"401 638 LINE",
"424 642 OFFCURVE",
"444 647 OFFCURVE",
"461 647 CURVE SMOOTH",
"514 647 OFFCURVE",
"532 627 OFFCURVE",
"532 577 CURVE",
"593 577 OFFCURVE",
"649 601 OFFCURVE",
"649 653 CURVE SMOOTH",
"649 695 OFFCURVE",
"615 728 OFFCURVE",
"558 728 CURVE SMOOTH",
"507 728 OFFCURVE",
"447 712 OFFCURVE",
"387 692 CURVE SMOOTH",
"328 672 OFFCURVE",
"272 665 OFFCURVE",
"235 665 CURVE SMOOTH",
"192 665 OFFCURVE",
"168 683 OFFCURVE",
"168 724 CURVE",
"97 724 OFFCURVE",
"55 692 OFFCURVE",
"55 658 CURVE SMOOTH",
"55 624 OFFCURVE",
"69 590 OFFCURVE",
"146 590 CURVE SMOOTH",
"171 590 OFFCURVE",
"233 597 OFFCURVE",
"286 610 CURVE",
"286 567 LINE",
"123 546 OFFCURVE",
"45 438 OFFCURVE",
"45 281 CURVE SMOOTH",
"45 102 OFFCURVE",
"142 -14 OFFCURVE",
"343 -14 CURVE SMOOTH"
);
},
{
closed = 1;
nodes = (
"254 54 OFFCURVE",
"221 136 OFFCURVE",
"221 280 CURVE SMOOTH",
"221 420 OFFCURVE",
"254 502 OFFCURVE",
"344 502 CURVE SMOOTH",
"432 502 OFFCURVE",
"464 420 OFFCURVE",
"464 280 CURVE SMOOTH",
"464 136 OFFCURVE",
"432 54 OFFCURVE",
"343 54 CURVE SMOOTH"
);
}
);
width = 684;
},
{
layerId = "C91144B6-58F5-45F2-9CE4-7ED6CE127FD4";
paths = (
{
closed = 1;
nodes = (
"404 -10 OFFCURVE",
"485 103 OFFCURVE",
"485 298 CURVE SMOOTH",
"485 503 OFFCURVE",
"418 599 OFFCURVE",
"278 605 CURVE",
"278 680 LINE",
"313 687 OFFCURVE",
"361 696 OFFCURVE",
"396 696 CURVE SMOOTH",
"424 696 OFFCURVE",
"437 682 OFFCURVE",
"442 649 CURVE",
"459 656 OFFCURVE",
"471 668 OFFCURVE",
"471 685 CURVE SMOOTH",
"471 711 OFFCURVE",
"452 724 OFFCURVE",
"415 724 CURVE SMOOTH",
"387 724 OFFCURVE",
"345 715 OFFCURVE",
"290 704 CURVE SMOOTH",
"227 691 OFFCURVE",
"169 684 OFFCURVE",
"144 684 CURVE SMOOTH",
"114 684 OFFCURVE",
"91 694 OFFCURVE",
"89 724 CURVE",
"69 718 OFFCURVE",
"59 707 OFFCURVE",
"59 693 CURVE SMOOTH",
"59 670 OFFCURVE",
"78 659 OFFCURVE",
"116 659 CURVE SMOOTH",
"161 659 OFFCURVE",
"202 666 OFFCURVE",
"253 675 CURVE",
"253 605 LINE",
"114 599 OFFCURVE",
"44 492 OFFCURVE",
"44 299 CURVE SMOOTH",
"44 113 OFFCURVE",
"116 -10 OFFCURVE",
"264 -10 CURVE SMOOTH"
);
},
{
closed = 1;
nodes = (
"137 15 OFFCURVE",
"72 129 OFFCURVE",
"72 298 CURVE SMOOTH",
"72 476 OFFCURVE",
"131 580 OFFCURVE",
"265 580 CURVE SMOOTH",
"406 580 OFFCURVE",
"457 476 OFFCURVE",
"457 298 CURVE SMOOTH",
"457 123 OFFCURVE",
"392 15 OFFCURVE",
"264 15 CURVE SMOOTH"
);
}
);
width = 530;
},
{
layerId = "E7C4F5EE-4982-479C-BF20-1C8706EFFC5D";
paths = (
{
closed = 1;
nodes = (
"465 -12 OFFCURVE",
"552 105 OFFCURVE",
"552 282 CURVE SMOOTH",
"552 447 OFFCURVE",
"475 557 OFFCURVE",
"336 573 CURVE",
"336 652 LINE",
"369 661 OFFCURVE",
"397 666 OFFCURVE",
"411 666 CURVE SMOOTH",
"447 666 OFFCURVE",
"472 650 OFFCURVE",
"473 591 CURVE",
"509 599 OFFCURVE",
"544 622 OFFCURVE",
"544 657 CURVE SMOOTH",
"544 702 OFFCURVE",
"512 726 OFFCURVE",
"459 726 CURVE SMOOTH",
"423 726 OFFCURVE",
"377 708 OFFCURVE",
"310 688 CURVE SMOOTH",
"259 673 OFFCURVE",
"217 670 OFFCURVE",
"185 670 CURVE SMOOTH",
"150 670 OFFCURVE",
"134 688 OFFCURVE",
"131 724 CURVE",
"91 716 OFFCURVE",
"65 694 OFFCURVE",
"65 667 CURVE SMOOTH",
"65 630 OFFCURVE",
"88 606 OFFCURVE",
"140 606 CURVE SMOOTH",
"161 606 OFFCURVE",
"207 615 OFFCURVE",
"263 633 CURVE",
"263 573 LINE",
"123 557 OFFCURVE",
"44 447 OFFCURVE",
"44 283 CURVE SMOOTH",
"44 105 OFFCURVE",
"127 -12 OFFCURVE",
"297 -12 CURVE SMOOTH"
);
},
{
closed = 1;
nodes = (
"189 41 OFFCURVE",
"144 129 OFFCURVE",
"144 282 CURVE SMOOTH",
"144 434 OFFCURVE",
"189 522 OFFCURVE",
"298 522 CURVE SMOOTH",
"411 522 OFFCURVE",
"452 434 OFFCURVE",
"452 282 CURVE SMOOTH",
"452 129 OFFCURVE",
"411 41 OFFCURVE",
"297 41 CURVE SMOOTH"
);
}
);
width = 597;
},
{
layerId = "E17BEC9D-CAAD-449F-91D9-03766E30097E";
paths = (
{
closed = 1;
nodes = (
"639 -14 OFFCURVE",
"766 96 OFFCURVE",
"766 265 CURVE SMOOTH",
"766 413 OFFCURVE",
"665 516 OFFCURVE",
"481 536 CURVE",
"481 622 LINE",
"504 626 OFFCURVE",
"525 627 OFFCURVE",
"544 628 CURVE SMOOTH",
"599 631 OFFCURVE",
"625 606 OFFCURVE",
"625 537 CURVE",
"698 537 OFFCURVE",
"760 570 OFFCURVE",
"760 632 CURVE SMOOTH",
"760 689 OFFCURVE",
"716 728 OFFCURVE",
"648 728 CURVE SMOOTH",
"575 728 OFFCURVE",
"511 698 OFFCURVE",
"448 682 CURVE SMOOTH",
"364 661 OFFCURVE",
"311 652 OFFCURVE",
"257 652 CURVE SMOOTH",
"200 652 OFFCURVE",
"180 677 OFFCURVE",
"180 724 CURVE",
"107 724 OFFCURVE",
"60 682 OFFCURVE",
"60 638 CURVE SMOOTH",
"60 572 OFFCURVE",
"109 549 OFFCURVE",
"155 549 CURVE SMOOTH",
"191 549 OFFCURVE",
"230 555 OFFCURVE",
"346 588 CURVE",
"346 537 LINE",
"150 519 OFFCURVE",
"54 415 OFFCURVE",
"54 266 CURVE SMOOTH",
"54 96 OFFCURVE",
"171 -14 OFFCURVE",
"411 -14 CURVE SMOOTH"
);
},
{
closed = 1;
nodes = (
"304 59 OFFCURVE",
"264 134 OFFCURVE",
"264 265 CURVE SMOOTH",
"264 393 OFFCURVE",
"304 467 OFFCURVE",
"412 467 CURVE SMOOTH",
"518 467 OFFCURVE",
"556 393 OFFCURVE",
"556 265 CURVE SMOOTH",
"556 134 OFFCURVE",
"518 59 OFFCURVE",
"411 59 CURVE SMOOTH"
);
}
);
width = 820;
},
{
associatedMasterId = "1D4F67F9-897D-45AD-B7F0-CA61A6862C03";
background = {
paths = (
{
closed = 1;
nodes = (
"545 -10 OFFCURVE",
"627 111 OFFCURVE",
"627 298 CURVE SMOOTH",
"627 492 OFFCURVE",
"547 605 OFFCURVE",
"344 605 CURVE SMOOTH",
"157 605 OFFCURVE",
"58 494 OFFCURVE",
"58 299 CURVE SMOOTH",
"58 103 OFFCURVE",
"153 -10 OFFCURVE",
"343 -10 CURVE SMOOTH"
);
},
{
closed = 1;
nodes = (
"172 15 OFFCURVE",
"86 121 OFFCURVE",
"86 298 CURVE SMOOTH",
"86 475 OFFCURVE",
"172 580 OFFCURVE",
"344 580 CURVE SMOOTH",
"530 580 OFFCURVE",
"599 475 OFFCURVE",
"599 298 CURVE SMOOTH",
"599 122 OFFCURVE",
"524 15 OFFCURVE",
"343 15 CURVE SMOOTH"
);
},
{
closed = 1;
nodes = (
"549 694 OFFCURVE",
"560 679 OFFCURVE",
"565 649 CURVE",
"589 655 OFFCURVE",
"604 668 OFFCURVE",
"604 685 CURVE SMOOTH",
"604 711 OFFCURVE",
"585 724 OFFCURVE",
"548 724 CURVE SMOOTH",
"500 724 OFFCURVE",
"444 715 OFFCURVE",
"361 698 CURVE SMOOTH",
"277 681 OFFCURVE",
"192 676 OFFCURVE",
"167 676 CURVE SMOOTH",
"137 676 OFFCURVE",
"124 684 OFFCURVE",
"122 714 CURVE",
"95 708 OFFCURVE",
"82 697 OFFCURVE",
"82 683 CURVE SMOOTH",
"82 660 OFFCURVE",
"101 646 OFFCURVE",
"139 646 CURVE SMOOTH",
"182 646 OFFCURVE",
"243 653 OFFCURVE",
"323 667 CURVE SMOOTH",
"404 681 OFFCURVE",
"466 694 OFFCURVE",
"503 694 CURVE SMOOTH"
);
},
{
closed = 1;
nodes = (
"330 586 LINE",
"355 586 LINE",
"355 680 LINE",
"330 680 LINE"
);
}
);
};
layerId = "1086D230-603B-4D38-8D45-DC229094BA3E";
paths = (
{
closed = 1;
nodes = (
"545 -10 OFFCURVE",
"627 111 OFFCURVE",
"627 298 CURVE SMOOTH",
"627 488 OFFCURVE",
"550 601 OFFCURVE",
"355 605 CURVE",
"355 676 LINE",
"420 689 OFFCURVE",
"471 699 OFFCURVE",
"503 699 CURVE SMOOTH",
"549 699 OFFCURVE",
"562 679 OFFCURVE",
"565 649 CURVE",
"582 651 OFFCURVE",
"597 668 OFFCURVE",
"597 685 CURVE SMOOTH",
"597 711 OFFCURVE",
"578 724 OFFCURVE",
"542 724 CURVE SMOOTH",
"500 724 OFFCURVE",
"444 715 OFFCURVE",
"361 698 CURVE SMOOTH",
"277 681 OFFCURVE",
"202 671 OFFCURVE",
"167 671 CURVE SMOOTH",
"137 671 OFFCURVE",
"124 684 OFFCURVE",
"122 714 CURVE",
"102 710 OFFCURVE",
"89 697 OFFCURVE",
"89 683 CURVE SMOOTH",
"89 660 OFFCURVE",
"108 646 OFFCURVE",
"139 646 CURVE SMOOTH",
"181 646 OFFCURVE",
"243 656 OFFCURVE",
"330 671 CURVE",
"330 605 LINE",
"152 599 OFFCURVE",
"58 487 OFFCURVE",
"58 299 CURVE SMOOTH",
"58 103 OFFCURVE",
"153 -10 OFFCURVE",
"343 -10 CURVE SMOOTH"
);
},
{
closed = 1;
nodes = (
"172 15 OFFCURVE",
"86 121 OFFCURVE",
"86 298 CURVE SMOOTH",
"86 475 OFFCURVE",
"172 580 OFFCURVE",
"344 580 CURVE SMOOTH",
"530 580 OFFCURVE",
"599 475 OFFCURVE",
"599 298 CURVE SMOOTH",
"599 122 OFFCURVE",
"524 15 OFFCURVE",
"343 15 CURVE SMOOTH"
);
}
);
width = 686;
},
{
layerId = "642E8BFC-F41E-4F9A-93D4-B8BFD55081C9";
paths = (
{
closed = 1;
nodes = (
"503 -13 OFFCURVE",
"601 103 OFFCURVE",
"601 281 CURVE SMOOTH",
"601 441 OFFCURVE",
"520 550 OFFCURVE",
"373 568 CURVE",
"373 644 LINE",
"400 650 OFFCURVE",
"424 655 OFFCURVE",
"439 655 CURVE SMOOTH",
"484 655 OFFCURVE",
"506 637 OFFCURVE",
"506 583 CURVE",
"556 586 OFFCURVE",
"603 610 OFFCURVE",
"603 655 CURVE SMOOTH",
"603 698 OFFCURVE",
"570 727 OFFCURVE",
"515 727 CURVE SMOOTH",
"470 727 OFFCURVE",
"416 709 OFFCURVE",
"353 690 CURVE SMOOTH",
"298 673 OFFCURVE",
"248 667 OFFCURVE",
"214 667 CURVE SMOOTH",
"174 667 OFFCURVE",
"154 685 OFFCURVE",
"152 724 CURVE",
"95 720 OFFCURVE",
"60 693 OFFCURVE",
"60 662 CURVE SMOOTH",
"60 626 OFFCURVE",
"77 597 OFFCURVE",
"144 597 CURVE SMOOTH",
"167 597 OFFCURVE",
"222 605 OFFCURVE",
"276 620 CURVE",
"276 569 LINE",
"123 551 OFFCURVE",
"45 442 OFFCURVE",
"45 282 CURVE SMOOTH",
"45 103 OFFCURVE",
"136 -13 OFFCURVE",
"323 -13 CURVE SMOOTH"
);
},
{
closed = 1;
nodes = (
"226 48 OFFCURVE",
"187 133 OFFCURVE",
"187 281 CURVE SMOOTH",
"187 426 OFFCURVE",
"226 510 OFFCURVE",
"324 510 CURVE SMOOTH",
"423 510 OFFCURVE",
"459 426 OFFCURVE",
"459 281 CURVE SMOOTH",
"459 133 OFFCURVE",
"423 48 OFFCURVE",
"323 48 CURVE SMOOTH"
);
}
);
width = 646;
}
);
note = uni10A3;
unicode = 10A3;
},
{
glyphname = "En-oldgeorgian";
lastChange = "2017-03-31 12:59:02 +0000";
layers = (
{
layerId = "5E7FF211-9823-4E5B-BC80-AC4B3CA4BC69";
paths = (
{
closed = 1;
nodes = (
"590 0 LINE",
"590 610 LINE SMOOTH",
"590 663 OFFCURVE",
"627 672 OFFCURVE",
"652 672 CURVE SMOOTH",
"666 672 LINE",
"666 714 LINE",
"38 714 LINE",
"38 672 LINE",
"52 672 LINE SMOOTH",
"77 672 OFFCURVE",
"114 663 OFFCURVE",
"114 610 CURVE SMOOTH",
"114 428 LINE SMOOTH",
"114 375 OFFCURVE",
"77 366 OFFCURVE",
"52 366 CURVE SMOOTH",
"38 366 LINE",
"38 324 LINE",
"214 324 LINE",
"214 660 LINE",
"489 660 LINE",
"489 0 LINE"
);
}
);
width = 706;
},
{
layerId = "101C8DBD-EDBB-4DB6-972E-FA2DBA854B69";
paths = (
{
closed = 1;
nodes = (
"668 0 LINE",
"668 606 LINE SMOOTH",
"668 653 OFFCURVE",
"690 661 OFFCURVE",
"719 661 CURVE SMOOTH",
"742 661 LINE",
"742 714 LINE",
"28 714 LINE",
"28 661 LINE",
"51 661 LINE SMOOTH",
"80 661 OFFCURVE",
"102 653 OFFCURVE",
"102 606 CURVE SMOOTH",
"102 417 LINE SMOOTH",
"102 370 OFFCURVE",
"80 362 OFFCURVE",
"51 362 CURVE SMOOTH",
"28 362 LINE",
"28 309 LINE",
"260 309 LINE",
"260 643 LINE",
"510 643 LINE",
"510 0 LINE"
);
}
);
width = 770;
},
{
layerId = "5E7C5774-385D-4E06-B68E-CBE970134A7B";
paths = (
{
closed = 1;
nodes = (
"580 0 LINE",
"580 617 LINE SMOOTH",
"580 675 OFFCURVE",
"602 684 OFFCURVE",
"638 684 CURVE SMOOTH",
"657 684 LINE",
"657 714 LINE",
"45 714 LINE",
"45 684 LINE",
"64 684 LINE SMOOTH",
"100 684 OFFCURVE",
"122 675 OFFCURVE",
"122 617 CURVE SMOOTH",
"122 428 LINE SMOOTH",
"122 370 OFFCURVE",
"100 361 OFFCURVE",
"64 361 CURVE SMOOTH",
"45 361 LINE",
"45 331 LINE",
"186 331 LINE",
"186 671 LINE",
"516 671 LINE",
"516 0 LINE"
);
}
);
width = 702;
},
{
layerId = "1D4F67F9-897D-45AD-B7F0-CA61A6862C03";
paths = (
{
closed = 1;
nodes = (
"548 0 LINE",
"548 624 LINE SMOOTH",
"548 685 OFFCURVE",
"558 694 OFFCURVE",
"604 694 CURVE SMOOTH",
"627 694 LINE",
"627 714 LINE",
"50 714 LINE",
"50 694 LINE",
"73 694 LINE SMOOTH",
"119 694 OFFCURVE",
"129 685 OFFCURVE",
"129 624 CURVE SMOOTH",
"129 446 LINE SMOOTH",
"129 385 OFFCURVE",
"119 376 OFFCURVE",
"73 376 CURVE SMOOTH",
"50 376 LINE",
"50 356 LINE",
"157 356 LINE",
"157 689 LINE",
"520 689 LINE",
"520 0 LINE"
);
}
);
width = 677;
},
{
layerId = "75A83886-EED5-4C31-9670-660514D8A4F6";
paths = (
{
closed = 1;
nodes = (
"564 0 LINE",
"564 600 LINE SMOOTH",
"564 643 OFFCURVE",
"576 658 OFFCURVE",
"606 658 CURVE SMOOTH",
"622 658 LINE",
"622 714 LINE",
"18 714 LINE",
"18 658 LINE",
"34 658 LINE SMOOTH",
"64 658 OFFCURVE",
"76 643 OFFCURVE",
"76 600 CURVE SMOOTH",
"76 433 LINE SMOOTH",
"76 390 OFFCURVE",
"64 375 OFFCURVE",
"34 375 CURVE SMOOTH",
"18 375 LINE",
"18 319 LINE",
"243 319 LINE",
"243 640 LINE",
"397 640 LINE",
"397 0 LINE"
);
}
);
width = 640;
},
{
layerId = "C91144B6-58F5-45F2-9CE4-7ED6CE127FD4";
paths = (
{
closed = 1;
nodes = (
"435 0 LINE",
"435 646 LINE SMOOTH",
"435 683 OFFCURVE",
"441 694 OFFCURVE",
"481 694 CURVE SMOOTH",
"501 694 LINE",
"501 714 LINE",
"36 714 LINE",
"36 694 LINE",
"56 694 LINE SMOOTH",
"96 694 OFFCURVE",
"102 683 OFFCURVE",
"102 646 CURVE SMOOTH",
"102 426 LINE SMOOTH",
"102 389 OFFCURVE",
"96 378 OFFCURVE",
"56 378 CURVE SMOOTH",
"36 378 LINE",
"36 358 LINE",
"130 358 LINE",
"130 689 LINE",
"407 689 LINE",
"407 0 LINE"
);
}
);
width = 537;
},
{
layerId = "E7C4F5EE-4982-479C-BF20-1C8706EFFC5D";
paths = (
{
closed = 1;
nodes = (
"514 0 LINE",
"514 608 LINE SMOOTH",
"514 657 OFFCURVE",
"536 669 OFFCURVE",
"559 669 CURVE SMOOTH",
"580 669 LINE",
"580 714 LINE",
"45 714 LINE",
"45 669 LINE",
"66 669 LINE SMOOTH",
"89 669 OFFCURVE",
"110 657 OFFCURVE",
"110 608 CURVE SMOOTH",
"110 442 LINE SMOOTH",
"110 392 OFFCURVE",
"89 380 OFFCURVE",
"66 380 CURVE SMOOTH",
"45 380 LINE",
"45 335 LINE",
"202 335 LINE",
"202 659 LINE",
"422 659 LINE",
"422 0 LINE"
);
}
);
width = 615;
},
{
layerId = "E17BEC9D-CAAD-449F-91D9-03766E30097E";
paths = (
{
closed = 1;
nodes = (
"688 0 LINE",
"688 599 LINE SMOOTH",
"688 636 OFFCURVE",
"702 653 OFFCURVE",
"730 653 CURVE SMOOTH",
"755 653 LINE",
"755 714 LINE",
"21 714 LINE",
"21 653 LINE",
"46 653 LINE SMOOTH",
"74 653 OFFCURVE",
"88 636 OFFCURVE",
"88 599 CURVE SMOOTH",
"88 413 LINE SMOOTH",
"88 376 OFFCURVE",
"74 359 OFFCURVE",
"46 359 CURVE SMOOTH",
"21 359 LINE",
"21 298 LINE",
"288 298 LINE",
"288 638 LINE",
"488 638 LINE",
"488 0 LINE"
);
}
);
width = 786;
},
{
associatedMasterId = "1D4F67F9-897D-45AD-B7F0-CA61A6862C03";
layerId = "1086D230-603B-4D38-8D45-DC229094BA3E";
paths = (
{
closed = 1;
nodes = (
"491 500 LINE",
"491 663 OFFCURVE",
"409 724 OFFCURVE",
"281 724 CURVE SMOOTH",
"136 724 OFFCURVE",
"72 626 OFFCURVE",
"72 496 CURVE SMOOTH",
"72 368 LINE",
"100 368 LINE",
"100 495 LINE SMOOTH",
"100 608 OFFCURVE",
"152 699 OFFCURVE",
"283 699 CURVE SMOOTH",
"397 699 OFFCURVE",
"463 638 OFFCURVE",
"463 504 CURVE SMOOTH",
"463 0 LINE",
"491 0 LINE"
);
}
);
width = 601;
},
{
layerId = "642E8BFC-F41E-4F9A-93D4-B8BFD55081C9";
paths = (
{
closed = 1;
nodes = (
"536 0 LINE",
"536 602 LINE SMOOTH",
"536 649 OFFCURVE",
"555 663 OFFCURVE",
"579 663 CURVE SMOOTH",
"600 663 LINE",
"600 714 LINE",
"21 714 LINE",
"21 663 LINE",
"42 663 LINE SMOOTH",
"66 663 OFFCURVE",
"85 649 OFFCURVE",
"85 602 CURVE SMOOTH",
"85 440 LINE SMOOTH",
"85 392 OFFCURVE",
"66 378 OFFCURVE",
"42 378 CURVE SMOOTH",
"21 378 LINE",
"21 327 LINE",
"219 327 LINE",
"219 648 LINE",
"402 648 LINE",
"402 0 LINE"
);
}
);
width = 621;
}
);
leftKerningGroup = "Gan-oldgeorgian";
note = uni10A4;
unicode = 10A4;
},
{
glyphname = "Vin-oldgeorgian";
lastChange = "2017-03-31 12:59:02 +0000";
layers = (
{
layerId = "5E7FF211-9823-4E5B-BC80-AC4B3CA4BC69";
paths = (
{
closed = 1;
nodes = (
"590 409 LINE",
"590 610 LINE SMOOTH",
"590 663 OFFCURVE",
"627 672 OFFCURVE",
"652 672 CURVE SMOOTH",
"666 672 LINE",
"666 714 LINE",
"38 714 LINE",
"38 672 LINE",
"52 672 LINE SMOOTH",
"77 672 OFFCURVE",
"114 663 OFFCURVE",
"114 610 CURVE SMOOTH",
"114 428 LINE SMOOTH",
"114 375 OFFCURVE",
"77 366 OFFCURVE",
"52 366 CURVE SMOOTH",
"38 366 LINE",
"38 324 LINE",
"214 324 LINE",
"214 660 LINE",
"489 660 LINE",
"489 0 LINE",
"590 0 LINE",
"590 355 LINE",
"598 355 LINE SMOOTH",
"680 355 OFFCURVE",
"713 313 OFFCURVE",
"713 217 CURVE",
"761 217 OFFCURVE",
"791 242 OFFCURVE",
"791 286 CURVE SMOOTH",
"791 370 OFFCURVE",
"729 409 OFFCURVE",
"642 409 CURVE SMOOTH"
);
}
);
width = 813;
},
{
layerId = "101C8DBD-EDBB-4DB6-972E-FA2DBA854B69";
paths = (
{
closed = 1;
nodes = (
"668 414 LINE",
"668 606 LINE SMOOTH",
"668 653 OFFCURVE",
"690 661 OFFCURVE",
"719 661 CURVE SMOOTH",
"742 661 LINE",
"742 714 LINE",
"28 714 LINE",
"28 661 LINE",
"51 661 LINE SMOOTH",
"80 661 OFFCURVE",
"102 653 OFFCURVE",
"102 606 CURVE SMOOTH",
"102 417 LINE SMOOTH",
"102 370 OFFCURVE",
"80 362 OFFCURVE",
"51 362 CURVE SMOOTH",
"28 362 LINE",
"28 309 LINE",
"260 309 LINE",
"260 643 LINE",
"510 643 LINE",
"510 0 LINE",
"668 0 LINE",
"668 352 LINE",
"682 352 LINE SMOOTH",
"749 352 OFFCURVE",
"773 323 OFFCURVE",
"773 220 CURVE",
"848 220 OFFCURVE",
"893 260 OFFCURVE",
"893 318 CURVE SMOOTH",
"893 385 OFFCURVE",
"812 414 OFFCURVE",
"716 414 CURVE SMOOTH"
);
}
);
width = 908;
},
{
layerId = "5E7C5774-385D-4E06-B68E-CBE970134A7B";
paths = (
{
closed = 1;
nodes = (
"580 386 LINE",
"580 617 LINE SMOOTH",
"580 675 OFFCURVE",
"602 684 OFFCURVE",
"638 684 CURVE SMOOTH",
"657 684 LINE",
"657 714 LINE",
"45 714 LINE",
"45 684 LINE",
"64 684 LINE SMOOTH",
"100 684 OFFCURVE",
"122 675 OFFCURVE",
"122 617 CURVE SMOOTH",
"122 428 LINE SMOOTH",
"122 370 OFFCURVE",
"100 361 OFFCURVE",
"64 361 CURVE SMOOTH",
"45 361 LINE",
"45 331 LINE",
"186 331 LINE",
"186 671 LINE",
"516 671 LINE",
"516 0 LINE",
"580 0 LINE",
"580 350 LINE",
"600 350 LINE SMOOTH",
"677 350 OFFCURVE",
"690 328 OFFCURVE",
"690 254 CURVE",
"724 254 OFFCURVE",
"743 272 OFFCURVE",
"743 302 CURVE SMOOTH",
"743 358 OFFCURVE",
"708 386 OFFCURVE",
"607 386 CURVE SMOOTH"
);
}
);
width = 763;
},
{
layerId = "1D4F67F9-897D-45AD-B7F0-CA61A6862C03";
paths = (
{
closed = 1;
nodes = (
"548 365 LINE",
"548 624 LINE SMOOTH",
"548 685 OFFCURVE",
"558 694 OFFCURVE",
"604 694 CURVE SMOOTH",
"627 694 LINE",
"627 714 LINE",
"50 714 LINE",
"50 694 LINE",
"73 694 LINE SMOOTH",
"119 694 OFFCURVE",
"129 685 OFFCURVE",
"129 624 CURVE SMOOTH",
"129 446 LINE SMOOTH",
"129 385 OFFCURVE",
"119 376 OFFCURVE",
"73 376 CURVE SMOOTH",
"50 376 LINE",
"50 356 LINE",
"157 356 LINE",
"157 689 LINE",
"520 689 LINE",
"520 0 LINE",
"548 0 LINE",
"548 340 LINE",
"583 340 LINE SMOOTH",
"659 340 OFFCURVE",
"680 324 OFFCURVE",
"680 259 CURVE",
"697 260 OFFCURVE",
"707 271 OFFCURVE",
"707 289 CURVE SMOOTH",
"707 334 OFFCURVE",
"680 365 OFFCURVE",
"587 365 CURVE SMOOTH"
);
}
);
width = 732;
},
{
layerId = "75A83886-EED5-4C31-9670-660514D8A4F6";
paths = (
{
closed = 1;
nodes = (
"564 428 LINE",
"564 600 LINE SMOOTH",
"564 643 OFFCURVE",
"576 658 OFFCURVE",
"606 658 CURVE SMOOTH",
"622 658 LINE",
"622 714 LINE",
"18 714 LINE",
"18 658 LINE",
"34 658 LINE SMOOTH",
"64 658 OFFCURVE",
"76 643 OFFCURVE",
"76 600 CURVE SMOOTH",
"76 433 LINE SMOOTH",
"76 390 OFFCURVE",
"64 375 OFFCURVE",
"34 375 CURVE SMOOTH",
"18 375 LINE",
"18 319 LINE",
"243 319 LINE",
"243 640 LINE",
"397 640 LINE",
"397 0 LINE",
"564 0 LINE",
"564 360 LINE",
"582 360 LINE SMOOTH",
"638 360 OFFCURVE",
"674 328 OFFCURVE",
"674 220 CURVE",
"749 220 OFFCURVE",
"788 260 OFFCURVE",
"788 319 CURVE SMOOTH",
"788 396 OFFCURVE",
"704 428 OFFCURVE",
"573 428 CURVE SMOOTH"
);
}
);
width = 798;
},
{
layerId = "C91144B6-58F5-45F2-9CE4-7ED6CE127FD4";
paths = (
{
closed = 1;
nodes = (
"435 385 LINE",
"435 646 LINE SMOOTH",
"435 683 OFFCURVE",
"441 694 OFFCURVE",
"481 694 CURVE SMOOTH",
"501 694 LINE",
"501 714 LINE",
"36 714 LINE",
"36 694 LINE",
"56 694 LINE SMOOTH",
"96 694 OFFCURVE",
"102 683 OFFCURVE",
"102 646 CURVE SMOOTH",
"102 426 LINE SMOOTH",
"102 389 OFFCURVE",
"96 378 OFFCURVE",
"56 378 CURVE SMOOTH",
"36 378 LINE",
"36 358 LINE",
"130 358 LINE",
"130 689 LINE",
"407 689 LINE",
"407 0 LINE",
"435 0 LINE",
"435 360 LINE",
"467 360 LINE SMOOTH",
"508 360 OFFCURVE",
"525 345 OFFCURVE",
"525 279 CURVE",
"542 279 OFFCURVE",
"552 290 OFFCURVE",
"552 309 CURVE SMOOTH",
"552 368 OFFCURVE",
"516 385 OFFCURVE",
"472 385 CURVE SMOOTH"
);
}
);
width = 562;
},
{
layerId = "E7C4F5EE-4982-479C-BF20-1C8706EFFC5D";
paths = (
{
closed = 1;
nodes = (
"494 411 LINE",
"494 608 LINE SMOOTH",
"494 657 OFFCURVE",
"516 669 OFFCURVE",
"539 669 CURVE SMOOTH",
"560 669 LINE",
"560 714 LINE",
"25 714 LINE",
"25 669 LINE",
"46 669 LINE SMOOTH",
"69 669 OFFCURVE",
"90 657 OFFCURVE",
"90 608 CURVE SMOOTH",
"90 442 LINE SMOOTH",
"90 392 OFFCURVE",
"69 380 OFFCURVE",
"46 380 CURVE SMOOTH",
"25 380 LINE",
"25 335 LINE",
"182 335 LINE",
"182 659 LINE",
"402 659 LINE",
"402 0 LINE",
"494 0 LINE",
"494 360 LINE",
"519 360 LINE SMOOTH",
"566 360 OFFCURVE",
"594 337 OFFCURVE",
"594 251 CURVE",
"637 251 OFFCURVE",
"661 282 OFFCURVE",
"661 320 CURVE SMOOTH",
"661 389 OFFCURVE",
"600 411 OFFCURVE",
"519 411 CURVE SMOOTH"
);
}
);
width = 671;
},
{
layerId = "E17BEC9D-CAAD-449F-91D9-03766E30097E";
paths = (
{
closed = 1;
nodes = (
"688 416 LINE",
"688 599 LINE SMOOTH",
"688 636 OFFCURVE",
"702 653 OFFCURVE",
"730 653 CURVE SMOOTH",
"755 653 LINE",
"755 714 LINE",
"21 714 LINE",
"21 653 LINE",
"46 653 LINE SMOOTH",
"74 653 OFFCURVE",
"88 636 OFFCURVE",
"88 599 CURVE SMOOTH",
"88 413 LINE SMOOTH",
"88 376 OFFCURVE",
"74 359 OFFCURVE",
"46 359 CURVE SMOOTH",
"21 359 LINE",
"21 298 LINE",
"288 298 LINE",
"288 638 LINE",
"488 638 LINE",
"488 0 LINE",
"688 0 LINE",
"688 340 LINE",
"713 340 LINE SMOOTH",
"759 340 OFFCURVE",
"793 312 OFFCURVE",
"793 189 CURVE",
"880 189 OFFCURVE",
"925 235 OFFCURVE",
"925 300 CURVE SMOOTH",
"925 384 OFFCURVE",
"863 416 OFFCURVE",
"728 416 CURVE SMOOTH"
);
}
);
width = 937;
},
{
associatedMasterId = "1D4F67F9-897D-45AD-B7F0-CA61A6862C03";
layerId = "1086D230-603B-4D38-8D45-DC229094BA3E";
paths = (
{
closed = 1;
nodes = (
"640 260 OFFCURVE",
"650 271 OFFCURVE",
"650 289 CURVE SMOOTH",
"650 334 OFFCURVE",
"623 365 OFFCURVE",
"530 365 CURVE SMOOTH",
"491 365 LINE",
"491 500 LINE SMOOTH",
"491 663 OFFCURVE",
"409 724 OFFCURVE",
"281 724 CURVE SMOOTH",
"136 724 OFFCURVE",
"72 626 OFFCURVE",
"72 496 CURVE SMOOTH",
"72 368 LINE",
"100 368 LINE",
"100 495 LINE SMOOTH",
"100 608 OFFCURVE",
"152 699 OFFCURVE",
"283 699 CURVE SMOOTH",
"397 699 OFFCURVE",
"463 638 OFFCURVE",
"463 504 CURVE SMOOTH",
"463 0 LINE",
"491 0 LINE",
"491 340 LINE",
"526 340 LINE SMOOTH",
"602 340 OFFCURVE",
"623 324 OFFCURVE",
"623 259 CURVE"
);
}
);
width = 675;
},
{
layerId = "642E8BFC-F41E-4F9A-93D4-B8BFD55081C9";
paths = (
{
closed = 1;
nodes = (
"536 420 LINE",
"536 602 LINE SMOOTH",
"536 649 OFFCURVE",
"555 663 OFFCURVE",
"579 663 CURVE SMOOTH",
"600 663 LINE",
"600 714 LINE",
"21 714 LINE",
"21 663 LINE",
"42 663 LINE SMOOTH",
"66 663 OFFCURVE",
"85 649 OFFCURVE",
"85 602 CURVE SMOOTH",
"85 440 LINE SMOOTH",
"85 392 OFFCURVE",
"66 378 OFFCURVE",
"42 378 CURVE SMOOTH",
"21 378 LINE",
"21 327 LINE",
"219 327 LINE",
"219 648 LINE",
"402 648 LINE",
"402 0 LINE",
"536 0 LINE",
"536 360 LINE",
"557 360 LINE SMOOTH",
"609 360 OFFCURVE",
"641 332 OFFCURVE",
"641 234 CURVE",
"702 234 OFFCURVE",
"735 270 OFFCURVE",
"735 319 CURVE SMOOTH",
"735 393 OFFCURVE",
"661 420 OFFCURVE",
"552 420 CURVE SMOOTH"
);
}
);
width = 745;
}
);
leftKerningGroup = "Gan-oldgeorgian";
note = uni10A5;
rightKerningGroup = "Vin-oldgeorgian";
unicode = 10A5;
},
{
glyphname = "Zen-oldgeorgian";
lastChange = "2017-03-31 12:59:02 +0000";
layers = (
{
layerId = "5E7FF211-9823-4E5B-BC80-AC4B3CA4BC69";
paths = (
{
closed = 1;
nodes = (
"577 -12 OFFCURVE",
"673 93 OFFCURVE",
"673 269 CURVE SMOOTH",
"673 445 OFFCURVE",
"581 546 OFFCURVE",
"427 546 CURVE SMOOTH",
"369 546 OFFCURVE",
"319 520 OFFCURVE",
"290 480 CURVE",
"285 480 LINE",
"288 518 OFFCURVE",
"289 546 OFFCURVE",
"289 565 CURVE SMOOTH",
"289 714 LINE",
"20 714 LINE",
"20 660 LINE",
"188 660 LINE",
"188 269 LINE SMOOTH",
"188 96 OFFCURVE",
"279 -12 OFFCURVE",
"424 -12 CURVE SMOOTH"
);
},
{
closed = 1;
nodes = (
"332 40 OFFCURVE",
"289 111 OFFCURVE",
"289 269 CURVE SMOOTH",
"289 412 OFFCURVE",
"335 494 OFFCURVE",
"425 494 CURVE SMOOTH",
"521 494 OFFCURVE",
"562 426 OFFCURVE",
"562 269 CURVE SMOOTH",
"562 112 OFFCURVE",
"520 40 OFFCURVE",
"426 40 CURVE SMOOTH"
);
}
);
width = 734;
},
{
layerId = "101C8DBD-EDBB-4DB6-972E-FA2DBA854B69";
paths = (
{
closed = 1;
nodes = (
"594 -13 OFFCURVE",
"691 86 OFFCURVE",
"691 270 CURVE SMOOTH",
"691 455 OFFCURVE",
"616 549 OFFCURVE",
"471 549 CURVE SMOOTH",
"397 549 OFFCURVE",
"347 524 OFFCURVE",
"312 468 CURVE",
"305 468 LINE",
"311 529 OFFCURVE",
"313 569 OFFCURVE",
"313 589 CURVE SMOOTH",
"313 714 LINE",
"15 714 LINE",
"15 643 LINE",
"155 643 LINE",
"155 270 LINE SMOOTH",
"155 87 OFFCURVE",
"249 -13 OFFCURVE",
"416 -13 CURVE SMOOTH"
);
},
{
closed = 1;
nodes = (
"347 52 OFFCURVE",
"313 108 OFFCURVE",
"313 260 CURVE SMOOTH",
"313 412 OFFCURVE",
"345 465 OFFCURVE",
"422 465 CURVE SMOOTH",
"494 465 OFFCURVE",
"523 397 OFFCURVE",
"523 261 CURVE SMOOTH",
"523 125 OFFCURVE",
"494 52 OFFCURVE",
"423 52 CURVE SMOOTH"
);
}
);
width = 746;
},
{
layerId = "5E7C5774-385D-4E06-B68E-CBE970134A7B";
paths = (
{
closed = 1;
nodes = (
"633 -11 OFFCURVE",
"698 111 OFFCURVE",
"698 266 CURVE SMOOTH",
"698 447 OFFCURVE",
"636 547 OFFCURVE",
"467 547 CURVE SMOOTH",
"374 547 OFFCURVE",
"333 509 OFFCURVE",
"297 448 CURVE",
"293 448 LINE",
"295 479 OFFCURVE",
"296 511 OFFCURVE",
"296 543 CURVE",
"296 714 LINE",
"22 714 LINE",
"22 671 LINE",
"231 671 LINE",
"231 264 LINE SMOOTH",
"231 99 OFFCURVE",
"291 -11 OFFCURVE",
"466 -11 CURVE SMOOTH"
);
},
{
closed = 1;
nodes = (
"323 32 OFFCURVE",
"296 122 OFFCURVE",
"296 265 CURVE SMOOTH",
"296 451 OFFCURVE",
"357 500 OFFCURVE",
"467 500 CURVE SMOOTH",
"585 500 OFFCURVE",
"629 425 OFFCURVE",
"629 259 CURVE SMOOTH",
"629 116 OFFCURVE",
"589 32 OFFCURVE",
"466 32 CURVE SMOOTH"
);
}
);
width = 743;
},
{
layerId = "1D4F67F9-897D-45AD-B7F0-CA61A6862C03";
paths = (
{
closed = 1;
nodes = (
"581 -10 OFFCURVE",
"668 82 OFFCURVE",
"668 264 CURVE SMOOTH",
"668 459 OFFCURVE",
"594 542 OFFCURVE",
"454 542 CURVE SMOOTH",
"350 542 OFFCURVE",
"294 495 OFFCURVE",
"260 417 CURVE",
"257 417 LINE",
"259 449 OFFCURVE",
"260 482 OFFCURVE",
"260 524 CURVE SMOOTH",
"260 714 LINE",
"24 714 LINE",
"24 689 LINE",
"232 689 LINE",
"232 256 LINE SMOOTH",
"232 88 OFFCURVE",
"292 -10 OFFCURVE",
"449 -10 CURVE SMOOTH"
);
},
{
closed = 1;
nodes = (
"310 15 OFFCURVE",
"260 102 OFFCURVE",
"260 269 CURVE SMOOTH",
"260 437 OFFCURVE",
"325 517 OFFCURVE",
"448 517 CURVE SMOOTH",
"582 517 OFFCURVE",
"640 441 OFFCURVE",
"640 264 CURVE SMOOTH",
"640 111 OFFCURVE",
"578 15 OFFCURVE",
"449 15 CURVE SMOOTH"
);
}
);
width = 722;
},
{
layerId = "75A83886-EED5-4C31-9670-660514D8A4F6";
paths = (
{
closed = 1;
nodes = (
"571 -14 OFFCURVE",
"648 94 OFFCURVE",
"648 282 CURVE SMOOTH",
"648 452 OFFCURVE",
"586 550 OFFCURVE",
"468 550 CURVE SMOOTH",
"412 550 OFFCURVE",
"378 536 OFFCURVE",
"342 478 CURVE",
"338 478 LINE",
"341 502 OFFCURVE",
"342 526 OFFCURVE",
"342 550 CURVE SMOOTH",
"342 714 LINE",
"10 714 LINE",
"10 650 LINE",
"175 650 LINE",
"175 269 LINE SMOOTH",
"175 88 OFFCURVE",
"230 -14 OFFCURVE",
"407 -14 CURVE SMOOTH"
);
},
{
closed = 1;
nodes = (
"362 48 OFFCURVE",
"342 97 OFFCURVE",
"342 281 CURVE SMOOTH",
"342 397 OFFCURVE",
"363 464 OFFCURVE",
"402 464 CURVE SMOOTH",
"444 464 OFFCURVE",
"469 440 OFFCURVE",
"469 268 CURVE SMOOTH",
"469 102 OFFCURVE",
"439 48 OFFCURVE",
"402 48 CURVE SMOOTH"
);
}
);
width = 672;
},
{
layerId = "C91144B6-58F5-45F2-9CE4-7ED6CE127FD4";
paths = (
{
closed = 1;
nodes = (
"430 -10 OFFCURVE",
"481 100 OFFCURVE",
"481 266 CURVE SMOOTH",
"481 455 OFFCURVE",
"430 546 OFFCURVE",
"318 546 CURVE SMOOTH",
"257 546 OFFCURVE",
"213 514 OFFCURVE",
"183 435 CURVE",
"179 435 LINE",
"180 456 OFFCURVE",
"181 476 OFFCURVE",
"181 497 CURVE SMOOTH",
"181 714 LINE",
"18 714 LINE",
"18 689 LINE",
"153 689 LINE",
"153 259 LINE SMOOTH",
"153 91 OFFCURVE",
"189 -10 OFFCURVE",
"307 -10 CURVE SMOOTH"
);
},
{
closed = 1;
nodes = (
"208 15 OFFCURVE",
"181 104 OFFCURVE",
"181 263 CURVE SMOOTH",
"181 445 OFFCURVE",
"228 521 OFFCURVE",
"316 521 CURVE SMOOTH",
"413 521 OFFCURVE",
"453 441 OFFCURVE",
"453 266 CURVE SMOOTH",
"453 125 OFFCURVE",
"418 15 OFFCURVE",
"307 15 CURVE SMOOTH"
);
}
);
width = 527;
},
{
layerId = "E7C4F5EE-4982-479C-BF20-1C8706EFFC5D";
paths = (
{
closed = 1;
nodes = (
"493 -12 OFFCURVE",
"556 106 OFFCURVE",
"556 272 CURVE SMOOTH",
"556 448 OFFCURVE",
"497 548 OFFCURVE",
"380 548 CURVE SMOOTH",
"324 548 OFFCURVE",
"284 526 OFFCURVE",
"252 466 CURVE",
"248 466 LINE",
"251 488 OFFCURVE",
"252 509 OFFCURVE",
"252 531 CURVE SMOOTH",
"252 714 LINE",
"14 714 LINE",
"14 665 LINE",
"159 665 LINE",
"159 264 LINE SMOOTH",
"159 62 OFFCURVE",
"219 -12 OFFCURVE",
"356 -12 CURVE SMOOTH"
);
},
{
closed = 1;
nodes = (
"276 33 OFFCURVE",
"252 102 OFFCURVE",
"252 266 CURVE SMOOTH",
"252 431 OFFCURVE",
"287 491 OFFCURVE",
"357 491 CURVE SMOOTH",
"420 491 OFFCURVE",
"458 438 OFFCURVE",
"458 261 CURVE SMOOTH",
"458 108 OFFCURVE",
"425 33 OFFCURVE",
"352 33 CURVE SMOOTH"
);
}
);
width = 586;
},
{
layerId = "E17BEC9D-CAAD-449F-91D9-03766E30097E";
paths = (
{
closed = 1;
nodes = (
"732 -14 OFFCURVE",
"824 95 OFFCURVE",
"824 286 CURVE SMOOTH",
"824 454 OFFCURVE",
"749 550 OFFCURVE",
"594 550 CURVE SMOOTH",
"518 550 OFFCURVE",
"476 526 OFFCURVE",
"445 483 CURVE",
"435 483 LINE",
"440 511 OFFCURVE",
"441 540 OFFCURVE",
"441 572 CURVE SMOOTH",
"441 714 LINE",
"10 714 LINE",
"10 645 LINE",
"241 645 LINE",
"241 271 LINE SMOOTH",
"241 75 OFFCURVE",
"345 -14 OFFCURVE",
"517 -14 CURVE SMOOTH"
);
},
{
closed = 1;
nodes = (
"462 53 OFFCURVE",
"441 97 OFFCURVE",
"441 266 CURVE SMOOTH",
"441 404 OFFCURVE",
"471 454 OFFCURVE",
"527 454 CURVE SMOOTH",
"579 454 OFFCURVE",
"610 409 OFFCURVE",
"610 261 CURVE SMOOTH",
"610 113 OFFCURVE",
"574 53 OFFCURVE",
"517 53 CURVE SMOOTH"
);
}
);
width = 849;
},
{
associatedMasterId = "1D4F67F9-897D-45AD-B7F0-CA61A6862C03";
layerId = "1086D230-603B-4D38-8D45-DC229094BA3E";
paths = (
{
closed = 1;
nodes = (
"581 -10 OFFCURVE",
"668 82 OFFCURVE",
"668 264 CURVE SMOOTH",
"668 459 OFFCURVE",
"594 542 OFFCURVE",
"454 542 CURVE SMOOTH",
"350 542 OFFCURVE",
"294 495 OFFCURVE",
"260 417 CURVE",
"257 417 LINE",
"259 449 OFFCURVE",
"260 482 OFFCURVE",
"260 524 CURVE SMOOTH",
"260 714 LINE",
"24 714 LINE",
"24 689 LINE",
"232 689 LINE",
"232 256 LINE SMOOTH",
"232 88 OFFCURVE",
"292 -10 OFFCURVE",
"449 -10 CURVE SMOOTH"
);
},
{
closed = 1;
nodes = (
"310 15 OFFCURVE",
"260 102 OFFCURVE",
"260 269 CURVE SMOOTH",
"260 437 OFFCURVE",
"325 517 OFFCURVE",
"448 517 CURVE SMOOTH",
"582 517 OFFCURVE",
"640 441 OFFCURVE",
"640 264 CURVE SMOOTH",
"640 111 OFFCURVE",
"578 15 OFFCURVE",
"449 15 CURVE SMOOTH"
);
}
);
width = 722;
},
{
layerId = "642E8BFC-F41E-4F9A-93D4-B8BFD55081C9";
paths = (
{
closed = 1;
nodes = (
"537 -13 OFFCURVE",
"608 99 OFFCURVE",
"608 277 CURVE SMOOTH",
"608 450 OFFCURVE",
"547 549 OFFCURVE",
"430 549 CURVE SMOOTH",
"374 549 OFFCURVE",
"337 531 OFFCURVE",
"303 473 CURVE",
"299 473 LINE",
"302 496 OFFCURVE",
"303 519 OFFCURVE",
"303 542 CURVE SMOOTH",
"303 714 LINE",
"12 714 LINE",
"12 657 LINE",
"168 657 LINE",
"168 267 LINE SMOOTH",
"168 77 OFFCURVE",
"226 -13 OFFCURVE",
"385 -13 CURVE SMOOTH"
);
},
{
closed = 1;
nodes = (
"324 41 OFFCURVE",
"303 99 OFFCURVE",
"303 274 CURVE SMOOTH",
"303 412 OFFCURVE",
"330 476 OFFCURVE",
"383 476 CURVE SMOOTH",
"434 476 OFFCURVE",
"464 439 OFFCURVE",
"464 265 CURVE SMOOTH",
"464 104 OFFCURVE",
"433 41 OFFCURVE",
"380 41 CURVE SMOOTH"
);
}
);
width = 634;
}
);
leftKerningGroup = "Zen-oldgeorgian";
note = uni10A6;
unicode = 10A6;
},
{
glyphname = "Tan-oldgeorgian";
lastChange = "2017-03-31 12:59:02 +0000";
layers = (
{
layerId = "5E7FF211-9823-4E5B-BC80-AC4B3CA4BC69";
paths = (
{
closed = 1;
nodes = (
"594 409 LINE",
"594 604 LINE SMOOTH",
"594 663 OFFCURVE",
"632 672 OFFCURVE",
"676 672 CURVE SMOOTH",
"689 672 LINE",
"689 714 LINE",
"383 714 LINE SMOOTH",
"177 714 OFFCURVE",
"57 585 OFFCURVE",
"57 358 CURVE SMOOTH",
"57 139 OFFCURVE",
"166 0 OFFCURVE",
"383 0 CURVE SMOOTH",
"689 0 LINE",
"689 42 LINE",
"676 42 LINE SMOOTH",
"631 42 OFFCURVE",
"594 51 OFFCURVE",
"594 114 CURVE SMOOTH",
"594 355 LINE",
"602 355 LINE SMOOTH",
"684 355 OFFCURVE",
"717 313 OFFCURVE",
"717 217 CURVE",
"765 217 OFFCURVE",
"795 242 OFFCURVE",
"795 286 CURVE SMOOTH",
"795 370 OFFCURVE",
"732 409 OFFCURVE",
"637 409 CURVE SMOOTH"
);
},
{
closed = 1;
nodes = (
"406 51 LINE SMOOTH",
"247 51 OFFCURVE",
"168 160 OFFCURVE",
"168 358 CURVE SMOOTH",
"168 556 OFFCURVE",
"247 664 OFFCURVE",
"405 664 CURVE SMOOTH",
"493 664 LINE",
"493 51 LINE"
);
}
);
width = 815;
},
{
layerId = "101C8DBD-EDBB-4DB6-972E-FA2DBA854B69";
paths = (
{
closed = 1;
nodes = (
"646 414 LINE",
"646 600 LINE SMOOTH",
"646 653 OFFCURVE",
"669 661 OFFCURVE",
"697 661 CURVE SMOOTH",
"739 661 LINE",
"739 714 LINE",
"409 714 LINE SMOOTH",
"188 714 OFFCURVE",
"55 597 OFFCURVE",
"55 370 CURVE SMOOTH",
"55 151 OFFCURVE",
"176 0 OFFCURVE",
"409 0 CURVE SMOOTH",
"739 0 LINE",
"739 53 LINE",
"697 53 LINE SMOOTH",
"668 53 OFFCURVE",
"646 61 OFFCURVE",
"646 118 CURVE SMOOTH",
"646 352 LINE",
"651 352 LINE SMOOTH",
"718 352 OFFCURVE",
"751 323 OFFCURVE",
"751 220 CURVE",
"820 220 OFFCURVE",
"871 257 OFFCURVE",
"871 304 CURVE SMOOTH",
"871 376 OFFCURVE",
"810 414 OFFCURVE",
"701 414 CURVE SMOOTH"
);
},
{
closed = 1;
nodes = (
"432 62 LINE SMOOTH",
"295 62 OFFCURVE",
"224 179 OFFCURVE",
"224 370 CURVE SMOOTH",
"224 561 OFFCURVE",
"295 653 OFFCURVE",
"431 653 CURVE SMOOTH",
"488 653 LINE",
"488 62 LINE"
);
}
);
width = 886;
},
{
layerId = "5E7C5774-385D-4E06-B68E-CBE970134A7B";
paths = (
{
closed = 1;
nodes = (
"561 387 LINE",
"561 605 LINE SMOOTH",
"561 673 OFFCURVE",
"583 683 OFFCURVE",
"630 683 CURVE SMOOTH",
"658 683 LINE",
"658 714 LINE",
"373 714 LINE SMOOTH",
"170 714 OFFCURVE",
"59 583 OFFCURVE",
"59 356 CURVE SMOOTH",
"59 137 OFFCURVE",
"160 0 OFFCURVE",
"371 0 CURVE SMOOTH",
"658 0 LINE",
"658 31 LINE",
"630 31 LINE SMOOTH",
"583 31 OFFCURVE",
"561 41 OFFCURVE",
"561 111 CURVE SMOOTH",
"561 348 LINE",
"583 348 LINE SMOOTH",
"662 348 OFFCURVE",
"689 319 OFFCURVE",
"689 238 CURVE",
"722 238 OFFCURVE",
"741 256 OFFCURVE",
"741 288 CURVE SMOOTH",
"741 353 OFFCURVE",
"696 387 OFFCURVE",
"604 387 CURVE SMOOTH"
);
},
{
closed = 1;
nodes = (
"389 38 LINE SMOOTH",
"210 38 OFFCURVE",
"134 152 OFFCURVE",
"134 356 CURVE SMOOTH",
"134 560 OFFCURVE",
"211 677 OFFCURVE",
"388 677 CURVE SMOOTH",
"497 677 LINE",
"497 38 LINE"
);
}
);
width = 764;
},
{
layerId = "1D4F67F9-897D-45AD-B7F0-CA61A6862C03";
paths = (
{
closed = 1;
nodes = (
"528 365 LINE",
"528 606 LINE SMOOTH",
"528 683 OFFCURVE",
"534 694 OFFCURVE",
"584 694 CURVE SMOOTH",
"627 694 LINE",
"627 714 LINE",
"362 714 LINE SMOOTH",
"163 714 OFFCURVE",
"61 569 OFFCURVE",
"61 342 CURVE SMOOTH",
"61 123 OFFCURVE",
"154 0 OFFCURVE",
"358 0 CURVE SMOOTH",
"627 0 LINE",
"627 20 LINE",
"584 20 LINE SMOOTH",
"534 20 OFFCURVE",
"528 31 OFFCURVE",
"528 108 CURVE SMOOTH",
"528 340 LINE",
"563 340 LINE SMOOTH",
"639 340 OFFCURVE",
"660 324 OFFCURVE",
"660 259 CURVE",
"679 259 OFFCURVE",
"687 270 OFFCURVE",
"687 289 CURVE SMOOTH",
"687 335 OFFCURVE",
"660 365 OFFCURVE",
"570 365 CURVE SMOOTH"
);
},
{
closed = 1;
nodes = (
"372 25 LINE SMOOTH",
"172 25 OFFCURVE",
"89 132 OFFCURVE",
"89 342 CURVE SMOOTH",
"89 552 OFFCURVE",
"174 689 OFFCURVE",
"371 689 CURVE SMOOTH",
"500 689 LINE",
"500 25 LINE"
);
}
);
width = 712;
},
{
layerId = "75A83886-EED5-4C31-9670-660514D8A4F6";
paths = (
{
closed = 1;
nodes = (
"580 428 LINE",
"580 601 LINE SMOOTH",
"580 643 OFFCURVE",
"595 658 OFFCURVE",
"619 658 CURVE SMOOTH",
"656 658 LINE",
"656 714 LINE",
"366 714 LINE SMOOTH",
"173 714 OFFCURVE",
"54 600 OFFCURVE",
"54 373 CURVE SMOOTH",
"54 154 OFFCURVE",
"162 0 OFFCURVE",
"366 0 CURVE SMOOTH",
"656 0 LINE",
"656 56 LINE",
"612 56 LINE SMOOTH",
"592 56 OFFCURVE",
"580 77 OFFCURVE",
"580 114 CURVE SMOOTH",
"580 360 LINE",
"598 360 LINE SMOOTH",
"654 360 OFFCURVE",
"690 328 OFFCURVE",
"690 220 CURVE",
"765 220 OFFCURVE",
"804 260 OFFCURVE",
"804 319 CURVE SMOOTH",
"804 396 OFFCURVE",
"720 428 OFFCURVE",
"589 428 CURVE SMOOTH"
);
},
{
closed = 1;
nodes = (
"386 65 LINE SMOOTH",
"286 65 OFFCURVE",
"231 184 OFFCURVE",
"231 373 CURVE SMOOTH",
"231 563 OFFCURVE",
"286 650 OFFCURVE",
"386 650 CURVE SMOOTH",
"413 650 LINE",
"413 65 LINE"
);
}
);
width = 814;
},
{
layerId = "C91144B6-58F5-45F2-9CE4-7ED6CE127FD4";
paths = (
{
closed = 1;
nodes = (
"432 385 LINE",
"432 609 LINE SMOOTH",
"432 686 OFFCURVE",
"440 694 OFFCURVE",
"493 694 CURVE SMOOTH",
"506 694 LINE",
"506 714 LINE",
"307 714 LINE SMOOTH",
"147 714 OFFCURVE",
"65 576 OFFCURVE",
"65 343 CURVE SMOOTH",
"65 124 OFFCURVE",
"139 0 OFFCURVE",
"308 0 CURVE SMOOTH",
"506 0 LINE",
"506 20 LINE",
"494 20 LINE SMOOTH",
"440 20 OFFCURVE",
"432 27 OFFCURVE",
"432 110 CURVE SMOOTH",
"432 360 LINE",
"464 360 LINE SMOOTH",
"505 360 OFFCURVE",
"522 345 OFFCURVE",
"522 279 CURVE",
"539 279 OFFCURVE",
"549 290 OFFCURVE",
"549 309 CURVE SMOOTH",
"549 368 OFFCURVE",
"513 385 OFFCURVE",
"469 385 CURVE SMOOTH"
);
},
{
closed = 1;
nodes = (
"308 25 LINE SMOOTH",
"164 25 OFFCURVE",
"93 128 OFFCURVE",
"93 343 CURVE SMOOTH",
"93 557 OFFCURVE",
"164 689 OFFCURVE",
"307 689 CURVE SMOOTH",
"404 689 LINE",
"404 25 LINE"
);
}
);
width = 559;
},
{
layerId = "E7C4F5EE-4982-479C-BF20-1C8706EFFC5D";
paths = (
{
closed = 1;
nodes = (
"504 407 LINE",
"504 605 LINE SMOOTH",
"504 662 OFFCURVE",
"521 674 OFFCURVE",
"558 674 CURVE SMOOTH",
"579 674 LINE",
"579 714 LINE",
"331 714 LINE SMOOTH",
"160 714 OFFCURVE",
"59 586 OFFCURVE",
"59 358 CURVE SMOOTH",
"59 139 OFFCURVE",
"150 0 OFFCURVE",
"331 0 CURVE SMOOTH",
"579 0 LINE",
"579 40 LINE",
"554 40 LINE SMOOTH",
"520 40 OFFCURVE",
"504 54 OFFCURVE",
"504 112 CURVE SMOOTH",
"504 360 LINE",
"529 360 LINE SMOOTH",
"575 360 OFFCURVE",
"601 338 OFFCURVE",
"601 255 CURVE",
"641 255 OFFCURVE",
"663 282 OFFCURVE",
"663 317 CURVE SMOOTH",
"663 385 OFFCURVE",
"606 407 OFFCURVE",
"529 407 CURVE SMOOTH"
);
},
{
closed = 1;
nodes = (
"345 48 LINE SMOOTH",
"224 48 OFFCURVE",
"163 158 OFFCURVE",
"163 358 CURVE SMOOTH",
"163 558 OFFCURVE",
"224 667 OFFCURVE",
"344 667 CURVE SMOOTH",
"407 667 LINE",
"407 48 LINE"
);
}
);
width = 672;
},
{
layerId = "E17BEC9D-CAAD-449F-91D9-03766E30097E";
paths = (
{
closed = 1;
nodes = (
"683 416 LINE",
"683 599 LINE SMOOTH",
"683 636 OFFCURVE",
"702 653 OFFCURVE",
"730 653 CURVE SMOOTH",
"775 653 LINE",
"775 714 LINE",
"427 714 LINE SMOOTH",
"195 714 OFFCURVE",
"53 606 OFFCURVE",
"53 379 CURVE SMOOTH",
"53 160 OFFCURVE",
"183 0 OFFCURVE",
"427 0 CURVE SMOOTH",
"775 0 LINE",
"775 61 LINE",
"722 61 LINE SMOOTH",
"698 61 OFFCURVE",
"683 85 OFFCURVE",
"683 115 CURVE SMOOTH",
"683 340 LINE",
"708 340 LINE SMOOTH",
"754 340 OFFCURVE",
"788 312 OFFCURVE",
"788 189 CURVE",
"875 189 OFFCURVE",
"920 235 OFFCURVE",
"920 300 CURVE SMOOTH",
"920 384 OFFCURVE",
"858 416 OFFCURVE",
"723 416 CURVE SMOOTH"
);
},
{
closed = 1;
nodes = (
"451 70 LINE SMOOTH",
"330 70 OFFCURVE",
"265 193 OFFCURVE",
"265 379 CURVE SMOOTH",
"265 565 OFFCURVE",
"330 645 OFFCURVE",
"450 645 CURVE SMOOTH",
"484 645 LINE",
"484 70 LINE"
);
}
);
width = 932;
},
{
associatedMasterId = "1D4F67F9-897D-45AD-B7F0-CA61A6862C03";
layerId = "1086D230-603B-4D38-8D45-DC229094BA3E";
paths = (
{
closed = 1;
nodes = (
"528 0 LINE",
"528 340 LINE",
"563 340 LINE SMOOTH",
"639 340 OFFCURVE",
"660 324 OFFCURVE",
"660 259 CURVE",
"679 259 OFFCURVE",
"687 270 OFFCURVE",
"687 289 CURVE SMOOTH",
"687 335 OFFCURVE",
"660 365 OFFCURVE",
"570 365 CURVE SMOOTH",
"528 365 LINE",
"528 714 LINE",
"362 714 LINE SMOOTH",
"163 714 OFFCURVE",
"61 569 OFFCURVE",
"61 342 CURVE SMOOTH",
"61 123 OFFCURVE",
"154 0 OFFCURVE",
"358 0 CURVE SMOOTH"
);
},
{
closed = 1;
nodes = (
"172 25 OFFCURVE",
"89 132 OFFCURVE",
"89 342 CURVE SMOOTH",
"89 552 OFFCURVE",
"174 689 OFFCURVE",
"371 689 CURVE SMOOTH",
"500 689 LINE",
"500 25 LINE",
"372 25 LINE SMOOTH"
);
}
);
width = 712;
},
{
layerId = "642E8BFC-F41E-4F9A-93D4-B8BFD55081C9";
paths = (
{
closed = 1;
nodes = (
"551 420 LINE",
"551 603 LINE SMOOTH",
"551 649 OFFCURVE",
"569 663 OFFCURVE",
"597 663 CURVE SMOOTH",
"627 663 LINE",
"627 714 LINE",
"351 714 LINE SMOOTH",
"167 714 OFFCURVE",
"55 595 OFFCURVE",
"55 368 CURVE SMOOTH",
"55 149 OFFCURVE",
"157 0 OFFCURVE",
"351 0 CURVE SMOOTH",
"627 0 LINE",
"627 51 LINE",
"592 51 LINE SMOOTH",
"567 51 OFFCURVE",
"551 69 OFFCURVE",
"551 113 CURVE SMOOTH",
"551 360 LINE",
"572 360 LINE SMOOTH",
"624 360 OFFCURVE",
"656 332 OFFCURVE",
"656 234 CURVE",
"717 234 OFFCURVE",
"750 270 OFFCURVE",
"750 319 CURVE SMOOTH",
"750 393 OFFCURVE",
"676 420 OFFCURVE",
"567 420 CURVE SMOOTH"
);
},
{
closed = 1;
nodes = (
"370 60 LINE SMOOTH",
"263 60 OFFCURVE",
"207 176 OFFCURVE",
"207 368 CURVE SMOOTH",
"207 561 OFFCURVE",
"263 655 OFFCURVE",
"370 655 CURVE SMOOTH",
"409 655 LINE",
"409 60 LINE"
);
}
);
width = 760;
}
);
leftKerningGroup = "On-oldgeorgian";
note = uni10A7;
rightKerningGroup = "Vin-oldgeorgian";
unicode = 10A7;
},
{
glyphname = "In-oldgeorgian";
lastChange = "2017-03-31 12:59:02 +0000";
layers = (
{
layerId = "5E7FF211-9823-4E5B-BC80-AC4B3CA4BC69";
paths = (
{
closed = 1;
nodes = (
"20 714 LINE",
"20 660 LINE",
"279 660 LINE",
"279 0 LINE",
"380 0 LINE",
"380 610 LINE SMOOTH",
"380 663 OFFCURVE",
"413 672 OFFCURVE",
"438 672 CURVE SMOOTH",
"451 672 LINE",
"451 714 LINE"
);
}
);
width = 487;
},
{
layerId = "101C8DBD-EDBB-4DB6-972E-FA2DBA854B69";
paths = (
{
closed = 1;
nodes = (
"15 714 LINE",
"15 643 LINE",
"255 643 LINE",
"255 0 LINE",
"413 0 LINE",
"413 606 LINE SMOOTH",
"413 653 OFFCURVE",
"435 661 OFFCURVE",
"464 661 CURVE SMOOTH",
"486 661 LINE",
"486 714 LINE"
);
}
);
width = 513;
},
{
layerId = "5E7C5774-385D-4E06-B68E-CBE970134A7B";
paths = (
{
closed = 1;
nodes = (
"22 714 LINE",
"22 671 LINE",
"248 671 LINE",
"248 0 LINE",
"312 0 LINE",
"312 617 LINE SMOOTH",
"312 675 OFFCURVE",
"333 684 OFFCURVE",
"369 684 CURVE SMOOTH",
"386 684 LINE",
"386 714 LINE"
);
}
);
width = 424;
},
{
layerId = "1D4F67F9-897D-45AD-B7F0-CA61A6862C03";
paths = (
{
closed = 1;
nodes = (
"24 714 LINE",
"24 689 LINE",
"261 689 LINE",
"261 0 LINE",
"289 0 LINE",
"289 624 LINE SMOOTH",
"289 685 OFFCURVE",
"299 694 OFFCURVE",
"345 694 CURVE SMOOTH",
"365 694 LINE",
"365 714 LINE"
);
}
);
width = 405;
},
{
layerId = "75A83886-EED5-4C31-9670-660514D8A4F6";
paths = (
{
closed = 1;
nodes = (
"10 714 LINE",
"10 650 LINE",
"175 650 LINE",
"175 0 LINE",
"344 0 LINE",
"344 600 LINE SMOOTH",
"344 643 OFFCURVE",
"356 658 OFFCURVE",
"386 658 CURVE SMOOTH",
"402 658 LINE",
"402 714 LINE"
);
}
);
width = 428;
},
{
layerId = "C91144B6-58F5-45F2-9CE4-7ED6CE127FD4";
paths = (
{
closed = 1;
nodes = (
"18 714 LINE",
"18 689 LINE",
"153 689 LINE",
"153 0 LINE",
"181 0 LINE",
"181 646 LINE SMOOTH",
"181 683 OFFCURVE",
"187 694 OFFCURVE",
"227 694 CURVE SMOOTH",
"247 694 LINE",
"247 714 LINE"
);
}
);
width = 301;
},
{
layerId = "E7C4F5EE-4982-479C-BF20-1C8706EFFC5D";
paths = (
{
closed = 1;
nodes = (
"14 714 LINE",
"14 665 LINE",
"159 665 LINE",
"159 0 LINE",
"251 0 LINE",
"251 608 LINE SMOOTH",
"251 657 OFFCURVE",
"271 669 OFFCURVE",
"296 669 CURVE SMOOTH",
"317 669 LINE",
"317 714 LINE"
);
}
);
width = 356;
},
{
layerId = "E17BEC9D-CAAD-449F-91D9-03766E30097E";
paths = (
{
closed = 1;
nodes = (
"10 714 LINE",
"10 638 LINE",
"243 638 LINE",
"243 0 LINE",
"443 0 LINE",
"443 599 LINE SMOOTH",
"443 636 OFFCURVE",
"457 653 OFFCURVE",
"485 653 CURVE SMOOTH",
"510 653 LINE",
"510 714 LINE"
);
}
);
width = 544;
},
{
associatedMasterId = "1D4F67F9-897D-45AD-B7F0-CA61A6862C03";
layerId = "1086D230-603B-4D38-8D45-DC229094BA3E";
paths = (
{
closed = 1;
nodes = (
"289 0 LINE",
"289 714 LINE",
"24 714 LINE",
"24 689 LINE",
"261 689 LINE",
"261 0 LINE"
);
}
);
width = 404;
},
{
layerId = "642E8BFC-F41E-4F9A-93D4-B8BFD55081C9";
paths = (
{
closed = 1;
nodes = (
"12 714 LINE",
"12 657 LINE",
"168 657 LINE",
"168 0 LINE",
"303 0 LINE",
"303 601 LINE SMOOTH",
"303 649 OFFCURVE",
"319 663 OFFCURVE",
"346 663 CURVE SMOOTH",
"368 663 LINE",
"368 714 LINE"
);
}
);
width = 399;
}
);
leftKerningGroup = "Zen-oldgeorgian";
note = uni10A8;
unicode = 10A8;
},
{
glyphname = "Kan-oldgeorgian";
lastChange = "2017-03-31 12:59:02 +0000";
layers = (
{
layerId = "5E7FF211-9823-4E5B-BC80-AC4B3CA4BC69";
paths = (
{
closed = 1;
nodes = (
"661 0 LINE",
"661 42 LINE",
"648 42 LINE SMOOTH",
"623 42 OFFCURVE",
"590 51 OFFCURVE",
"590 104 CURVE SMOOTH",
"590 374 LINE SMOOTH",
"590 477 OFFCURVE",
"486 566 OFFCURVE",
"362 566 CURVE SMOOTH",
"291 566 OFFCURVE",
"238 542 OFFCURVE",
"207 500 CURVE",
"202 500 LINE",
"204 538 OFFCURVE",
"206 556 OFFCURVE",
"206 585 CURVE SMOOTH",
"206 610 LINE SMOOTH",
"206 663 OFFCURVE",
"239 672 OFFCURVE",
"264 672 CURVE SMOOTH",
"277 672 LINE",
"277 714 LINE",
"30 714 LINE",
"30 672 LINE",
"43 672 LINE SMOOTH",
"68 672 OFFCURVE",
"105 663 OFFCURVE",
"105 610 CURVE SMOOTH",
"105 335 LINE SMOOTH",
"105 225 OFFCURVE",
"197 130 OFFCURVE",
"326 130 CURVE SMOOTH",
"403 130 OFFCURVE",
"457 152 OFFCURVE",
"488 196 CURVE",
"493 196 LINE",
"489 162 OFFCURVE",
"489 144 OFFCURVE",
"489 126 CURVE SMOOTH",
"489 97 LINE SMOOTH",
"489 44 OFFCURVE",
"452 42 OFFCURVE",
"427 42 CURVE SMOOTH",
"414 42 LINE",
"414 0 LINE"
);
},
{
closed = 1;
nodes = (
"255 182 OFFCURVE",
"206 258 OFFCURVE",
"206 345 CURVE SMOOTH",
"206 435 OFFCURVE",
"251 514 OFFCURVE",
"349 514 CURVE SMOOTH",
"438 514 OFFCURVE",
"489 441 OFFCURVE",
"489 350 CURVE SMOOTH",
"489 264 OFFCURVE",
"443 182 OFFCURVE",
"349 182 CURVE SMOOTH"
);
}
);
width = 682;
},
{
layerId = "101C8DBD-EDBB-4DB6-972E-FA2DBA854B69";
paths = (
{
closed = 1;
nodes = (
"703 0 LINE",
"703 53 LINE",
"681 53 LINE SMOOTH",
"652 53 OFFCURVE",
"630 61 OFFCURVE",
"630 108 CURVE SMOOTH",
"630 349 LINE SMOOTH",
"630 443 OFFCURVE",
"545 548 OFFCURVE",
"399 548 CURVE SMOOTH",
"329 548 OFFCURVE",
"280 529 OFFCURVE",
"252 492 CURVE",
"245 492 LINE",
"250 535 OFFCURVE",
"254 557 OFFCURVE",
"254 578 CURVE SMOOTH",
"254 606 LINE SMOOTH",
"254 653 OFFCURVE",
"276 661 OFFCURVE",
"305 661 CURVE SMOOTH",
"327 661 LINE",
"327 714 LINE",
"25 714 LINE",
"25 661 LINE",
"47 661 LINE SMOOTH",
"76 661 OFFCURVE",
"95 653 OFFCURVE",
"95 606 CURVE SMOOTH",
"95 349 LINE SMOOTH",
"95 254 OFFCURVE",
"175 149 OFFCURVE",
"326 149 CURVE SMOOTH",
"396 149 OFFCURVE",
"445 168 OFFCURVE",
"473 205 CURVE",
"480 205 LINE",
"472 157 OFFCURVE",
"471 138 OFFCURVE",
"471 128 CURVE SMOOTH",
"471 108 LINE SMOOTH",
"471 61 OFFCURVE",
"452 53 OFFCURVE",
"423 53 CURVE SMOOTH",
"401 53 LINE",
"401 0 LINE"
);
},
{
closed = 1;
nodes = (
"286 214 OFFCURVE",
"253 275 OFFCURVE",
"253 349 CURVE SMOOTH",
"253 423 OFFCURVE",
"285 483 OFFCURVE",
"362 483 CURVE SMOOTH",
"439 483 OFFCURVE",
"472 423 OFFCURVE",
"472 349 CURVE SMOOTH",
"472 275 OFFCURVE",
"440 214 OFFCURVE",
"363 214 CURVE SMOOTH"
);
}
);
width = 728;
},
{
layerId = "5E7C5774-385D-4E06-B68E-CBE970134A7B";
paths = (
{
closed = 1;
nodes = (
"632 0 LINE",
"632 30 LINE",
"615 30 LINE SMOOTH",
"579 30 OFFCURVE",
"558 39 OFFCURVE",
"558 97 CURVE SMOOTH",
"558 347 LINE SMOOTH",
"558 481 OFFCURVE",
"476 574 OFFCURVE",
"346 574 CURVE SMOOTH",
"274 574 OFFCURVE",
"213 539 OFFCURVE",
"177 478 CURVE",
"173 478 LINE",
"175 509 OFFCURVE",
"176 541 OFFCURVE",
"176 573 CURVE SMOOTH",
"176 617 LINE SMOOTH",
"176 675 OFFCURVE",
"197 684 OFFCURVE",
"233 684 CURVE SMOOTH",
"250 684 LINE",
"250 714 LINE",
"35 714 LINE",
"35 684 LINE",
"53 684 LINE SMOOTH",
"89 684 OFFCURVE",
"111 675 OFFCURVE",
"111 617 CURVE SMOOTH",
"111 347 LINE SMOOTH",
"111 213 OFFCURVE",
"193 120 OFFCURVE",
"320 120 CURVE SMOOTH",
"395 120 OFFCURVE",
"456 155 OFFCURVE",
"492 216 CURVE",
"496 216 LINE",
"495 186 OFFCURVE",
"495 155 OFFCURVE",
"495 122 CURVE SMOOTH",
"495 97 LINE SMOOTH",
"495 39 OFFCURVE",
"471 30 OFFCURVE",
"435 30 CURVE SMOOTH",
"417 30 LINE",
"417 0 LINE"
);
},
{
closed = 1;
nodes = (
"244 167 OFFCURVE",
"176 235 OFFCURVE",
"176 347 CURVE SMOOTH",
"176 485 OFFCURVE",
"257 527 OFFCURVE",
"337 527 CURVE SMOOTH",
"425 527 OFFCURVE",
"493 459 OFFCURVE",
"493 347 CURVE SMOOTH",
"493 209 OFFCURVE",
"412 167 OFFCURVE",
"332 167 CURVE SMOOTH"
);
}
);
width = 667;
},
{
layerId = "1D4F67F9-897D-45AD-B7F0-CA61A6862C03";
paths = (
{
closed = 1;
nodes = (
"611 0 LINE",
"611 20 LINE",
"591 20 LINE SMOOTH",
"545 20 OFFCURVE",
"535 29 OFFCURVE",
"535 90 CURVE SMOOTH",
"535 349 LINE SMOOTH",
"535 495 OFFCURVE",
"461 581 OFFCURVE",
"331 581 CURVE SMOOTH",
"237 581 OFFCURVE",
"181 534 OFFCURVE",
"147 456 CURVE",
"144 456 LINE",
"146 488 OFFCURVE",
"146 521 OFFCURVE",
"146 564 CURVE SMOOTH",
"146 624 LINE SMOOTH",
"146 685 OFFCURVE",
"157 694 OFFCURVE",
"203 694 CURVE SMOOTH",
"223 694 LINE",
"223 714 LINE",
"40 714 LINE",
"40 694 LINE",
"63 694 LINE SMOOTH",
"109 694 OFFCURVE",
"119 685 OFFCURVE",
"119 624 CURVE SMOOTH",
"119 349 LINE SMOOTH",
"119 203 OFFCURVE",
"193 117 OFFCURVE",
"323 117 CURVE SMOOTH",
"417 117 OFFCURVE",
"473 164 OFFCURVE",
"507 242 CURVE",
"510 242 LINE",
"508 210 OFFCURVE",
"507 177 OFFCURVE",
"507 135 CURVE SMOOTH",
"507 90 LINE SMOOTH",
"507 29 OFFCURVE",
"497 20 OFFCURVE",
"451 20 CURVE SMOOTH",
"428 20 LINE",
"428 0 LINE"
);
},
{
closed = 1;
nodes = (
"215 142 OFFCURVE",
"147 221 OFFCURVE",
"147 349 CURVE SMOOTH",
"147 473 OFFCURVE",
"222 556 OFFCURVE",
"325 556 CURVE SMOOTH",
"439 556 OFFCURVE",
"507 477 OFFCURVE",
"507 349 CURVE SMOOTH",
"507 225 OFFCURVE",
"432 142 OFFCURVE",
"329 142 CURVE SMOOTH"
);
}
);
width = 651;
},
{
layerId = "75A83886-EED5-4C31-9670-660514D8A4F6";
paths = (
{
closed = 1;
nodes = (
"617 0 LINE",
"617 56 LINE",
"601 56 LINE SMOOTH",
"571 56 OFFCURVE",
"559 71 OFFCURVE",
"559 114 CURVE SMOOTH",
"559 345 LINE SMOOTH",
"559 482 OFFCURVE",
"501 575 OFFCURVE",
"383 575 CURVE SMOOTH",
"327 575 OFFCURVE",
"293 561 OFFCURVE",
"253 503 CURVE",
"249 503 LINE",
"252 527 OFFCURVE",
"253 551 OFFCURVE",
"253 575 CURVE SMOOTH",
"253 600 LINE SMOOTH",
"253 643 OFFCURVE",
"265 658 OFFCURVE",
"295 658 CURVE SMOOTH",
"311 658 LINE",
"311 714 LINE",
"30 714 LINE",
"30 658 LINE",
"44 658 LINE SMOOTH",
"68 658 OFFCURVE",
"86 643 OFFCURVE",
"86 601 CURVE SMOOTH",
"86 345 LINE SMOOTH",
"86 208 OFFCURVE",
"143 115 OFFCURVE",
"261 115 CURVE SMOOTH",
"317 115 OFFCURVE",
"351 129 OFFCURVE",
"392 187 CURVE",
"396 187 LINE",
"393 163 OFFCURVE",
"392 139 OFFCURVE",
"392 115 CURVE SMOOTH",
"392 101 LINE SMOOTH",
"392 71 OFFCURVE",
"374 56 OFFCURVE",
"350 56 CURVE SMOOTH",
"336 56 LINE",
"336 0 LINE"
);
},
{
closed = 1;
nodes = (
"278 201 OFFCURVE",
"253 230 OFFCURVE",
"253 345 CURVE SMOOTH",
"253 417 OFFCURVE",
"274 489 OFFCURVE",
"319 489 CURVE SMOOTH",
"367 489 OFFCURVE",
"392 460 OFFCURVE",
"392 345 CURVE SMOOTH",
"392 273 OFFCURVE",
"371 201 OFFCURVE",
"326 201 CURVE SMOOTH"
);
}
);
width = 637;
},
{
layerId = "C91144B6-58F5-45F2-9CE4-7ED6CE127FD4";
paths = (
{
closed = 1;
nodes = (
"499 0 LINE",
"499 20 LINE",
"479 20 LINE SMOOTH",
"439 20 OFFCURVE",
"433 31 OFFCURVE",
"433 68 CURVE SMOOTH",
"433 346 LINE SMOOTH",
"433 484 OFFCURVE",
"382 572 OFFCURVE",
"275 572 CURVE SMOOTH",
"209 572 OFFCURVE",
"165 549 OFFCURVE",
"135 470 CURVE",
"131 470 LINE",
"132 491 OFFCURVE",
"133 506 OFFCURVE",
"133 527 CURVE SMOOTH",
"133 646 LINE SMOOTH",
"133 683 OFFCURVE",
"139 694 OFFCURVE",
"179 694 CURVE SMOOTH",
"199 694 LINE",
"199 714 LINE",
"39 714 LINE",
"39 694 LINE",
"59 694 LINE SMOOTH",
"89 694 OFFCURVE",
"105 683 OFFCURVE",
"105 646 CURVE SMOOTH",
"105 346 LINE SMOOTH",
"105 208 OFFCURVE",
"156 120 OFFCURVE",
"263 120 CURVE SMOOTH",
"329 120 OFFCURVE",
"373 143 OFFCURVE",
"403 222 CURVE",
"407 222 LINE",
"406 201 OFFCURVE",
"405 186 OFFCURVE",
"405 165 CURVE SMOOTH",
"405 68 LINE SMOOTH",
"405 31 OFFCURVE",
"389 20 OFFCURVE",
"359 20 CURVE SMOOTH",
"339 20 LINE",
"339 0 LINE"
);
},
{
closed = 1;
nodes = (
"173 145 OFFCURVE",
"133 222 OFFCURVE",
"133 346 CURVE SMOOTH",
"133 478 OFFCURVE",
"180 547 OFFCURVE",
"268 547 CURVE SMOOTH",
"365 547 OFFCURVE",
"405 470 OFFCURVE",
"405 346 CURVE SMOOTH",
"405 214 OFFCURVE",
"358 145 OFFCURVE",
"270 145 CURVE SMOOTH"
);
}
);
width = 515;
},
{
layerId = "E7C4F5EE-4982-479C-BF20-1C8706EFFC5D";
paths = (
{
closed = 1;
nodes = (
"559 0 LINE",
"559 45 LINE",
"538 45 LINE SMOOTH",
"513 45 OFFCURVE",
"493 57 OFFCURVE",
"493 106 CURVE SMOOTH",
"493 355 LINE SMOOTH",
"493 486 OFFCURVE",
"435 574 OFFCURVE",
"319 574 CURVE SMOOTH",
"263 574 OFFCURVE",
"222 554 OFFCURVE",
"189 499 CURVE",
"185 499 LINE",
"188 521 OFFCURVE",
"189 536 OFFCURVE",
"189 557 CURVE SMOOTH",
"189 608 LINE SMOOTH",
"189 657 OFFCURVE",
"209 669 OFFCURVE",
"234 669 CURVE SMOOTH",
"255 669 LINE",
"255 714 LINE",
"31 714 LINE",
"31 669 LINE",
"52 669 LINE SMOOTH",
"73 669 OFFCURVE",
"96 657 OFFCURVE",
"96 608 CURVE SMOOTH",
"96 345 LINE SMOOTH",
"96 202 OFFCURVE",
"154 117 OFFCURVE",
"270 117 CURVE SMOOTH",
"326 117 OFFCURVE",
"367 137 OFFCURVE",
"400 192 CURVE",
"404 192 LINE",
"402 170 OFFCURVE",
"401 156 OFFCURVE",
"401 134 CURVE SMOOTH",
"401 106 LINE SMOOTH",
"401 57 OFFCURVE",
"377 45 OFFCURVE",
"355 45 CURVE SMOOTH",
"335 45 LINE",
"335 0 LINE"
);
},
{
closed = 1;
nodes = (
"229 175 OFFCURVE",
"189 240 OFFCURVE",
"189 350 CURVE SMOOTH",
"189 461 OFFCURVE",
"224 516 OFFCURVE",
"296 516 CURVE SMOOTH",
"361 516 OFFCURVE",
"401 469 OFFCURVE",
"401 350 CURVE SMOOTH",
"401 247 OFFCURVE",
"366 175 OFFCURVE",
"294 175 CURVE SMOOTH"
);
}
);
width = 567;
},
{
layerId = "E17BEC9D-CAAD-449F-91D9-03766E30097E";
paths = (
{
closed = 1;
nodes = (
"736 0 LINE",
"736 61 LINE",
"711 61 LINE SMOOTH",
"683 61 OFFCURVE",
"669 78 OFFCURVE",
"669 115 CURVE SMOOTH",
"669 360 LINE SMOOTH",
"669 482 OFFCURVE",
"594 571 OFFCURVE",
"439 571 CURVE SMOOTH",
"363 571 OFFCURVE",
"321 546 OFFCURVE",
"290 503 CURVE",
"280 503 LINE",
"285 531 OFFCURVE",
"286 560 OFFCURVE",
"286 592 CURVE SMOOTH",
"286 599 LINE SMOOTH",
"286 636 OFFCURVE",
"300 653 OFFCURVE",
"328 653 CURVE SMOOTH",
"353 653 LINE",
"353 714 LINE",
"20 714 LINE",
"20 653 LINE",
"43 653 LINE SMOOTH",
"65 653 OFFCURVE",
"86 636 OFFCURVE",
"86 600 CURVE SMOOTH",
"86 360 LINE SMOOTH",
"86 238 OFFCURVE",
"161 149 OFFCURVE",
"316 149 CURVE SMOOTH",
"392 149 OFFCURVE",
"434 174 OFFCURVE",
"465 217 CURVE",
"475 217 LINE",
"470 189 OFFCURVE",
"469 160 OFFCURVE",
"469 128 CURVE SMOOTH",
"469 114 LINE SMOOTH",
"469 78 OFFCURVE",
"448 61 OFFCURVE",
"426 61 CURVE SMOOTH",
"403 61 LINE",
"403 0 LINE"
);
},
{
closed = 1;
nodes = (
"317 245 OFFCURVE",
"286 286 OFFCURVE",
"286 360 CURVE SMOOTH",
"286 428 OFFCURVE",
"316 475 OFFCURVE",
"379 475 CURVE SMOOTH",
"438 475 OFFCURVE",
"469 434 OFFCURVE",
"469 360 CURVE SMOOTH",
"469 292 OFFCURVE",
"437 245 OFFCURVE",
"376 245 CURVE SMOOTH"
);
}
);
width = 756;
},
{
associatedMasterId = "1D4F67F9-897D-45AD-B7F0-CA61A6862C03";
layerId = "1086D230-603B-4D38-8D45-DC229094BA3E";
paths = (
{
closed = 1;
nodes = (
"555 -240 LINE",
"555 260 LINE SMOOTH",
"555 456 OFFCURVE",
"481 542 OFFCURVE",
"341 542 CURVE SMOOTH",
"237 542 OFFCURVE",
"181 495 OFFCURVE",
"147 417 CURVE",
"144 417 LINE",
"146 449 OFFCURVE",
"147 482 OFFCURVE",
"147 524 CURVE SMOOTH",
"147 714 LINE",
"20 714 LINE",
"20 694 LINE",
"63 694 LINE SMOOTH",
"113 694 OFFCURVE",
"119 683 OFFCURVE",
"119 606 CURVE SMOOTH",
"119 260 LINE SMOOTH",
"119 64 OFFCURVE",
"193 -22 OFFCURVE",
"333 -22 CURVE SMOOTH",
"437 -22 OFFCURVE",
"493 25 OFFCURVE",
"527 103 CURVE",
"530 103 LINE",
"528 71 OFFCURVE",
"527 38 OFFCURVE",
"527 -4 CURVE SMOOTH",
"527 -240 LINE"
);
},
{
closed = 1;
nodes = (
"205 3 OFFCURVE",
"147 82 OFFCURVE",
"147 260 CURVE SMOOTH",
"147 434 OFFCURVE",
"212 517 OFFCURVE",
"335 517 CURVE SMOOTH",
"469 517 OFFCURVE",
"527 438 OFFCURVE",
"527 260 CURVE SMOOTH",
"527 86 OFFCURVE",
"462 3 OFFCURVE",
"339 3 CURVE SMOOTH"
);
}
);
width = 643;
},
{
layerId = "642E8BFC-F41E-4F9A-93D4-B8BFD55081C9";
paths = (
{
closed = 1;
nodes = (
"595 0 LINE",
"595 51 LINE",
"573 51 LINE SMOOTH",
"546 51 OFFCURVE",
"530 65 OFFCURVE",
"530 113 CURVE SMOOTH",
"530 347 LINE SMOOTH",
"530 481 OFFCURVE",
"472 574 OFFCURVE",
"355 574 CURVE SMOOTH",
"299 574 OFFCURVE",
"262 556 OFFCURVE",
"225 505 CURVE",
"221 505 LINE",
"224 529 OFFCURVE",
"225 544 OFFCURVE",
"225 567 CURVE SMOOTH",
"225 601 LINE SMOOTH",
"225 649 OFFCURVE",
"241 663 OFFCURVE",
"268 663 CURVE SMOOTH",
"290 663 LINE",
"290 714 LINE",
"27 714 LINE",
"27 663 LINE",
"48 663 LINE SMOOTH",
"70 663 OFFCURVE",
"91 649 OFFCURVE",
"91 602 CURVE SMOOTH",
"91 347 LINE SMOOTH",
"91 184 OFFCURVE",
"148 116 OFFCURVE",
"265 116 CURVE SMOOTH",
"321 116 OFFCURVE",
"358 134 OFFCURVE",
"396 185 CURVE",
"400 185 LINE",
"397 161 OFFCURVE",
"396 147 OFFCURVE",
"396 123 CURVE SMOOTH",
"396 109 LINE SMOOTH",
"396 65 OFFCURVE",
"374 51 OFFCURVE",
"352 51 CURVE SMOOTH",
"331 51 LINE",
"331 0 LINE"
);
},
{
closed = 1;
nodes = (
"257 190 OFFCURVE",
"225 235 OFFCURVE",
"225 347 CURVE SMOOTH",
"225 437 OFFCURVE",
"252 501 OFFCURVE",
"309 501 CURVE SMOOTH",
"364 501 OFFCURVE",
"396 464 OFFCURVE",
"396 347 CURVE SMOOTH",
"396 262 OFFCURVE",
"369 190 OFFCURVE",
"312 190 CURVE SMOOTH"
);
}
);
width = 597;
}
);
leftKerningGroup = "Kan-oldgeorgian";
note = uni10A9;
unicode = 10A9;
},
{
glyphname = "Las-oldgeorgian";
lastChange = "2017-03-31 12:59:02 +0000";
layers = (
{
layerId = "5E7FF211-9823-4E5B-BC80-AC4B3CA4BC69";
paths = (
{
closed = 1;
nodes = (
"818 -12 OFFCURVE",
"914 91 OFFCURVE",
"914 269 CURVE SMOOTH",
"914 455 OFFCURVE",
"822 546 OFFCURVE",
"668 546 CURVE SMOOTH",
"610 546 OFFCURVE",
"560 520 OFFCURVE",
"531 480 CURVE",
"526 480 LINE",
"529 518 OFFCURVE",
"530 546 OFFCURVE",
"530 565 CURVE SMOOTH",
"530 610 LINE SMOOTH",
"530 663 OFFCURVE",
"567 672 OFFCURVE",
"592 672 CURVE SMOOTH",
"606 672 LINE",
"606 714 LINE",
"38 714 LINE",
"38 672 LINE",
"52 672 LINE SMOOTH",
"77 672 OFFCURVE",
"114 663 OFFCURVE",
"114 610 CURVE SMOOTH",
"114 428 LINE SMOOTH",
"114 375 OFFCURVE",
"77 366 OFFCURVE",
"52 366 CURVE SMOOTH",
"38 366 LINE",
"38 324 LINE",
"214 324 LINE",
"214 660 LINE",
"429 660 LINE",
"429 269 LINE SMOOTH",
"429 94 OFFCURVE",
"520 -12 OFFCURVE",
"665 -12 CURVE SMOOTH"
);
},
{
closed = 1;
nodes = (
"572 42 OFFCURVE",
"530 110 OFFCURVE",
"530 269 CURVE SMOOTH",
"530 412 OFFCURVE",
"576 492 OFFCURVE",
"666 492 CURVE SMOOTH",
"762 492 OFFCURVE",
"803 426 OFFCURVE",
"803 269 CURVE SMOOTH",
"803 110 OFFCURVE",
"762 42 OFFCURVE",
"667 42 CURVE SMOOTH"
);
}
);
width = 975;
},
{
layerId = "101C8DBD-EDBB-4DB6-972E-FA2DBA854B69";
paths = (
{
closed = 1;
nodes = (
"878 -13 OFFCURVE",
"975 88 OFFCURVE",
"975 270 CURVE SMOOTH",
"975 436 OFFCURVE",
"890 549 OFFCURVE",
"744 549 CURVE SMOOTH",
"674 549 OFFCURVE",
"632 531 OFFCURVE",
"597 493 CURVE",
"590 493 LINE",
"595 515 OFFCURVE",
"598 539 OFFCURVE",
"598 563 CURVE SMOOTH",
"598 606 LINE SMOOTH",
"598 653 OFFCURVE",
"620 661 OFFCURVE",
"649 661 CURVE SMOOTH",
"672 661 LINE",
"672 714 LINE",
"28 714 LINE",
"28 661 LINE",
"51 661 LINE SMOOTH",
"80 661 OFFCURVE",
"102 653 OFFCURVE",
"102 606 CURVE SMOOTH",
"102 417 LINE SMOOTH",
"102 370 OFFCURVE",
"80 362 OFFCURVE",
"51 362 CURVE SMOOTH",
"28 362 LINE",
"28 309 LINE",
"260 309 LINE",
"260 643 LINE",
"440 643 LINE",
"440 270 LINE SMOOTH",
"440 85 OFFCURVE",
"534 -13 OFFCURVE",
"701 -13 CURVE SMOOTH"
);
},
{
closed = 1;
nodes = (
"625 52 OFFCURVE",
"598 120 OFFCURVE",
"598 270 CURVE SMOOTH",
"598 386 OFFCURVE",
"614 484 OFFCURVE",
"702 484 CURVE SMOOTH",
"776 484 OFFCURVE",
"807 419 OFFCURVE",
"807 270 CURVE SMOOTH",
"807 115 OFFCURVE",
"772 52 OFFCURVE",
"703 52 CURVE SMOOTH"
);
}
);
width = 1025;
},
{
layerId = "5E7C5774-385D-4E06-B68E-CBE970134A7B";
paths = (
{
closed = 1;
nodes = (
"818 -11 OFFCURVE",
"883 111 OFFCURVE",
"883 266 CURVE SMOOTH",
"883 447 OFFCURVE",
"821 547 OFFCURVE",
"661 547 CURVE SMOOTH",
"559 547 OFFCURVE",
"518 509 OFFCURVE",
"482 448 CURVE",
"478 448 LINE",
"480 479 OFFCURVE",
"481 511 OFFCURVE",
"481 543 CURVE SMOOTH",
"481 617 LINE SMOOTH",
"481 675 OFFCURVE",
"502 684 OFFCURVE",
"538 684 CURVE SMOOTH",
"557 684 LINE",
"557 714 LINE",
"45 714 LINE",
"45 684 LINE",
"64 684 LINE SMOOTH",
"100 684 OFFCURVE",
"122 675 OFFCURVE",
"122 617 CURVE SMOOTH",
"122 428 LINE SMOOTH",
"122 370 OFFCURVE",
"100 361 OFFCURVE",
"64 361 CURVE SMOOTH",
"45 361 LINE",
"45 331 LINE",
"186 331 LINE",
"186 671 LINE",
"416 671 LINE",
"416 264 LINE SMOOTH",
"416 99 OFFCURVE",
"476 -11 OFFCURVE",
"651 -11 CURVE SMOOTH"
);
},
{
closed = 1;
nodes = (
"508 32 OFFCURVE",
"481 122 OFFCURVE",
"481 265 CURVE SMOOTH",
"481 451 OFFCURVE",
"542 500 OFFCURVE",
"652 500 CURVE SMOOTH",
"770 500 OFFCURVE",
"814 425 OFFCURVE",
"814 259 CURVE SMOOTH",
"814 116 OFFCURVE",
"774 32 OFFCURVE",
"651 32 CURVE SMOOTH"
);
}
);
width = 928;
},
{
layerId = "1D4F67F9-897D-45AD-B7F0-CA61A6862C03";
paths = (
{
closed = 1;
nodes = (
"775 -10 OFFCURVE",
"862 82 OFFCURVE",
"862 264 CURVE SMOOTH",
"862 459 OFFCURVE",
"788 542 OFFCURVE",
"648 542 CURVE SMOOTH",
"544 542 OFFCURVE",
"488 495 OFFCURVE",
"454 417 CURVE",
"451 417 LINE",
"453 449 OFFCURVE",
"454 482 OFFCURVE",
"454 524 CURVE SMOOTH",
"454 624 LINE SMOOTH",
"454 685 OFFCURVE",
"464 694 OFFCURVE",
"510 694 CURVE SMOOTH",
"530 694 LINE",
"530 714 LINE",
"50 714 LINE",
"50 694 LINE",
"73 694 LINE SMOOTH",
"119 694 OFFCURVE",
"129 685 OFFCURVE",
"129 624 CURVE SMOOTH",
"129 446 LINE SMOOTH",
"129 385 OFFCURVE",
"119 376 OFFCURVE",
"73 376 CURVE SMOOTH",
"50 376 LINE",
"50 356 LINE",
"157 356 LINE",
"157 689 LINE",
"426 689 LINE",
"426 256 LINE SMOOTH",
"426 88 OFFCURVE",
"486 -10 OFFCURVE",
"643 -10 CURVE SMOOTH"
);
},
{
closed = 1;
nodes = (
"504 15 OFFCURVE",
"454 102 OFFCURVE",
"454 269 CURVE SMOOTH",
"454 437 OFFCURVE",
"519 517 OFFCURVE",
"642 517 CURVE SMOOTH",
"776 517 OFFCURVE",
"834 441 OFFCURVE",
"834 264 CURVE SMOOTH",
"834 111 OFFCURVE",
"772 15 OFFCURVE",
"643 15 CURVE SMOOTH"
);
}
);
width = 916;
},
{
layerId = "75A83886-EED5-4C31-9670-660514D8A4F6";
paths = (
{
closed = 1;
nodes = (
"743 -14 OFFCURVE",
"820 94 OFFCURVE",
"820 282 CURVE SMOOTH",
"820 452 OFFCURVE",
"758 550 OFFCURVE",
"640 550 CURVE SMOOTH",
"584 550 OFFCURVE",
"550 536 OFFCURVE",
"514 478 CURVE",
"510 478 LINE",
"513 502 OFFCURVE",
"514 526 OFFCURVE",
"514 550 CURVE SMOOTH",
"514 600 LINE SMOOTH",
"514 643 OFFCURVE",
"526 658 OFFCURVE",
"556 658 CURVE SMOOTH",
"572 658 LINE",
"572 714 LINE",
"18 714 LINE",
"18 658 LINE",
"34 658 LINE SMOOTH",
"64 658 OFFCURVE",
"76 643 OFFCURVE",
"76 600 CURVE SMOOTH",
"76 433 LINE SMOOTH",
"76 390 OFFCURVE",
"64 375 OFFCURVE",
"34 375 CURVE SMOOTH",
"18 375 LINE",
"18 319 LINE",
"243 319 LINE",
"243 640 LINE",
"347 640 LINE",
"347 269 LINE SMOOTH",
"347 88 OFFCURVE",
"402 -14 OFFCURVE",
"579 -14 CURVE SMOOTH"
);
},
{
closed = 1;
nodes = (
"534 48 OFFCURVE",
"514 97 OFFCURVE",
"514 281 CURVE SMOOTH",
"514 397 OFFCURVE",
"535 464 OFFCURVE",
"579 464 CURVE SMOOTH",
"616 464 OFFCURVE",
"641 440 OFFCURVE",
"641 268 CURVE SMOOTH",
"641 102 OFFCURVE",
"611 48 OFFCURVE",
"574 48 CURVE SMOOTH"
);
}
);
width = 844;
},
{
layerId = "C91144B6-58F5-45F2-9CE4-7ED6CE127FD4";
paths = (
{
closed = 1;
nodes = (
"614 -10 OFFCURVE",
"665 100 OFFCURVE",
"665 266 CURVE SMOOTH",
"665 455 OFFCURVE",
"614 546 OFFCURVE",
"502 546 CURVE SMOOTH",
"441 546 OFFCURVE",
"397 514 OFFCURVE",
"367 435 CURVE",
"363 435 LINE",
"364 456 OFFCURVE",
"365 476 OFFCURVE",
"365 497 CURVE SMOOTH",
"365 646 LINE SMOOTH",
"365 683 OFFCURVE",
"371 694 OFFCURVE",
"411 694 CURVE SMOOTH",
"431 694 LINE",
"431 714 LINE",
"36 714 LINE",
"36 694 LINE",
"56 694 LINE SMOOTH",
"96 694 OFFCURVE",
"102 683 OFFCURVE",
"102 646 CURVE SMOOTH",
"102 426 LINE SMOOTH",
"102 389 OFFCURVE",
"96 378 OFFCURVE",
"56 378 CURVE SMOOTH",
"36 378 LINE",
"36 358 LINE",
"130 358 LINE",
"130 689 LINE",
"337 689 LINE",
"337 259 LINE SMOOTH",
"337 91 OFFCURVE",
"373 -10 OFFCURVE",
"491 -10 CURVE SMOOTH"
);
},
{
closed = 1;
nodes = (
"392 15 OFFCURVE",
"365 104 OFFCURVE",
"365 263 CURVE SMOOTH",
"365 445 OFFCURVE",
"412 521 OFFCURVE",
"500 521 CURVE SMOOTH",
"597 521 OFFCURVE",
"637 441 OFFCURVE",
"637 266 CURVE SMOOTH",
"637 125 OFFCURVE",
"602 15 OFFCURVE",
"491 15 CURVE SMOOTH"
);
}
);
width = 701;
},
{
layerId = "E7C4F5EE-4982-479C-BF20-1C8706EFFC5D";
paths = (
{
closed = 1;
nodes = (
"686 -12 OFFCURVE",
"749 106 OFFCURVE",
"749 272 CURVE SMOOTH",
"749 447 OFFCURVE",
"690 548 OFFCURVE",
"573 548 CURVE SMOOTH",
"517 548 OFFCURVE",
"477 525 OFFCURVE",
"445 465 CURVE",
"441 465 LINE",
"443 487 OFFCURVE",
"444 509 OFFCURVE",
"444 530 CURVE SMOOTH",
"444 608 LINE SMOOTH",
"444 657 OFFCURVE",
"466 669 OFFCURVE",
"489 669 CURVE SMOOTH",
"510 669 LINE",
"510 714 LINE",
"25 714 LINE",
"25 669 LINE",
"46 669 LINE SMOOTH",
"69 669 OFFCURVE",
"90 657 OFFCURVE",
"90 608 CURVE SMOOTH",
"90 442 LINE SMOOTH",
"90 392 OFFCURVE",
"69 380 OFFCURVE",
"46 380 CURVE SMOOTH",
"25 380 LINE",
"25 335 LINE",
"182 335 LINE",
"182 659 LINE",
"352 659 LINE",
"352 264 LINE SMOOTH",
"352 62 OFFCURVE",
"412 -12 OFFCURVE",
"549 -12 CURVE SMOOTH"
);
},
{
closed = 1;
nodes = (
"469 33 OFFCURVE",
"444 102 OFFCURVE",
"444 266 CURVE SMOOTH",
"444 430 OFFCURVE",
"480 490 OFFCURVE",
"551 490 CURVE SMOOTH",
"613 490 OFFCURVE",
"651 438 OFFCURVE",
"651 261 CURVE SMOOTH",
"651 108 OFFCURVE",
"618 33 OFFCURVE",
"544 33 CURVE SMOOTH"
);
}
);
width = 780;
},
{
layerId = "E17BEC9D-CAAD-449F-91D9-03766E30097E";
paths = (
{
closed = 1;
nodes = (
"939 -14 OFFCURVE",
"1031 95 OFFCURVE",
"1031 286 CURVE SMOOTH",
"1031 454 OFFCURVE",
"956 550 OFFCURVE",
"801 550 CURVE",
"725 550 OFFCURVE",
"683 526 OFFCURVE",
"652 483 CURVE",
"642 483 LINE",
"647 511 OFFCURVE",
"648 540 OFFCURVE",
"648 572 CURVE SMOOTH",
"648 599 LINE SMOOTH",
"648 636 OFFCURVE",
"662 653 OFFCURVE",
"690 653 CURVE SMOOTH",
"715 653 LINE",
"715 714 LINE",
"21 714 LINE",
"21 653 LINE",
"46 653 LINE SMOOTH",
"74 653 OFFCURVE",
"88 636 OFFCURVE",
"88 599 CURVE SMOOTH",
"88 413 LINE SMOOTH",
"88 376 OFFCURVE",
"74 359 OFFCURVE",
"46 359 CURVE SMOOTH",
"21 359 LINE",
"21 298 LINE",
"288 298 LINE",
"288 638 LINE",
"448 638 LINE",
"448 271 LINE SMOOTH",
"448 75 OFFCURVE",
"552 -14 OFFCURVE",
"724 -14 CURVE SMOOTH"
);
},
{
closed = 1;
nodes = (
"669 53 OFFCURVE",
"648 97 OFFCURVE",
"648 266 CURVE SMOOTH",
"648 404 OFFCURVE",
"678 454 OFFCURVE",
"734 454 CURVE",
"786 454 OFFCURVE",
"817 409 OFFCURVE",
"817 261 CURVE SMOOTH",
"817 113 OFFCURVE",
"781 53 OFFCURVE",
"724 53 CURVE SMOOTH"
);
}
);
width = 1056;
},
{
associatedMasterId = "1D4F67F9-897D-45AD-B7F0-CA61A6862C03";
layerId = "1086D230-603B-4D38-8D45-DC229094BA3E";
paths = (
{
closed = 1;
nodes = (
"594 -10 OFFCURVE",
"681 82 OFFCURVE",
"681 264 CURVE SMOOTH",
"681 459 OFFCURVE",
"607 542 OFFCURVE",
"467 542 CURVE SMOOTH",
"363 542 OFFCURVE",
"307 495 OFFCURVE",
"273 417 CURVE",
"270 417 LINE",
"272 449 OFFCURVE",
"273 482 OFFCURVE",
"273 524 CURVE SMOOTH",
"273 714 LINE",
"37 714 LINE",
"32 559 LINE",
"52 559 LINE",
"54 606 LINE SMOOTH",
"57 673 OFFCURVE",
"65 689 OFFCURVE",
"109 689 CURVE SMOOTH",
"245 689 LINE",
"245 256 LINE SMOOTH",
"245 88 OFFCURVE",
"305 -10 OFFCURVE",
"462 -10 CURVE SMOOTH"
);
},
{
closed = 1;
nodes = (
"323 15 OFFCURVE",
"273 102 OFFCURVE",
"273 269 CURVE SMOOTH",
"273 437 OFFCURVE",
"338 517 OFFCURVE",
"461 517 CURVE SMOOTH",
"595 517 OFFCURVE",
"653 441 OFFCURVE",
"653 264 CURVE SMOOTH",
"653 111 OFFCURVE",
"591 15 OFFCURVE",
"462 15 CURVE SMOOTH"
);
}
);
width = 735;
},
{
layerId = "642E8BFC-F41E-4F9A-93D4-B8BFD55081C9";
paths = (
{
closed = 1;
nodes = (
"716 -13 OFFCURVE",
"787 99 OFFCURVE",
"787 277 CURVE SMOOTH",
"787 449 OFFCURVE",
"727 548 OFFCURVE",
"609 548 CURVE SMOOTH",
"553 548 OFFCURVE",
"516 530 OFFCURVE",
"482 471 CURVE",
"478 471 LINE",
"481 494 OFFCURVE",
"482 518 OFFCURVE",
"482 541 CURVE SMOOTH",
"482 602 LINE SMOOTH",
"482 649 OFFCURVE",
"501 663 OFFCURVE",
"525 663 CURVE SMOOTH",
"546 663 LINE",
"546 714 LINE",
"20 714 LINE",
"20 663 LINE",
"41 663 LINE SMOOTH",
"65 663 OFFCURVE",
"84 649 OFFCURVE",
"84 602 CURVE SMOOTH",
"84 440 LINE SMOOTH",
"84 392 OFFCURVE",
"65 378 OFFCURVE",
"41 378 CURVE SMOOTH",
"20 378 LINE",
"20 327 LINE",
"218 327 LINE",
"218 648 LINE",
"348 648 LINE",
"348 267 LINE SMOOTH",
"348 77 OFFCURVE",
"405 -13 OFFCURVE",
"564 -13 CURVE SMOOTH"
);
},
{
closed = 1;
nodes = (
"504 41 OFFCURVE",
"482 99 OFFCURVE",
"482 274 CURVE SMOOTH",
"482 411 OFFCURVE",
"509 475 OFFCURVE",
"565 475 CURVE SMOOTH",
"613 475 OFFCURVE",
"644 438 OFFCURVE",
"644 265 CURVE SMOOTH",
"644 104 OFFCURVE",
"612 41 OFFCURVE",
"559 41 CURVE SMOOTH"
);
}
);
width = 814;
}
);
leftKerningGroup = "Gan-oldgeorgian";
note = uni10AA;
unicode = 10AA;
},
{
glyphname = "Man-oldgeorgian";
lastChange = "2017-03-31 12:59:02 +0000";
layers = (
{
layerId = "5E7FF211-9823-4E5B-BC80-AC4B3CA4BC69";
paths = (
{
closed = 1;
nodes = (
"433 -12 OFFCURVE",
"511 66 OFFCURVE",
"511 225 CURVE SMOOTH",
"511 390 LINE",
"602 390 LINE",
"602 444 LINE",
"511 444 LINE",
"511 610 LINE SMOOTH",
"511 663 OFFCURVE",
"544 672 OFFCURVE",
"569 672 CURVE SMOOTH",
"582 672 LINE",
"582 714 LINE",
"67 714 LINE",
"67 653 LINE",
"410 653 LINE",
"410 444 LINE",
"298 444 LINE SMOOTH",
"116 444 OFFCURVE",
"38 378 OFFCURVE",
"38 220 CURVE SMOOTH",
"38 70 OFFCURVE",
"127 -12 OFFCURVE",
"277 -12 CURVE SMOOTH"
);
},
{
closed = 1;
nodes = (
"190 42 OFFCURVE",
"146 99 OFFCURVE",
"146 214 CURVE SMOOTH",
"146 335 OFFCURVE",
"194 390 OFFCURVE",
"298 390 CURVE SMOOTH",
"410 390 LINE",
"410 225 LINE SMOOTH",
"410 102 OFFCURVE",
"365 42 OFFCURVE",
"273 42 CURVE SMOOTH"
);
}
);
width = 642;
},
{
layerId = "101C8DBD-EDBB-4DB6-972E-FA2DBA854B69";
paths = (
{
closed = 1;
nodes = (
"478 -13 OFFCURVE",
"566 69 OFFCURVE",
"566 237 CURVE SMOOTH",
"566 390 LINE",
"660 390 LINE",
"660 452 LINE",
"566 452 LINE",
"566 606 LINE SMOOTH",
"566 653 OFFCURVE",
"588 661 OFFCURVE",
"617 661 CURVE SMOOTH",
"639 661 LINE",
"639 714 LINE",
"75 714 LINE",
"75 643 LINE",
"408 643 LINE",
"408 452 LINE",
"345 452 LINE SMOOTH",
"138 452 OFFCURVE",
"30 373 OFFCURVE",
"30 218 CURVE SMOOTH",
"30 70 OFFCURVE",
"126 -13 OFFCURVE",
"301 -13 CURVE SMOOTH"
);
},
{
closed = 1;
nodes = (
"233 52 OFFCURVE",
"198 106 OFFCURVE",
"198 218 CURVE SMOOTH",
"198 338 OFFCURVE",
"228 387 OFFCURVE",
"341 387 CURVE SMOOTH",
"408 387 LINE",
"408 230 LINE SMOOTH",
"408 112 OFFCURVE",
"372 52 OFFCURVE",
"303 52 CURVE SMOOTH"
);
}
);
width = 688;
},
{
layerId = "5E7C5774-385D-4E06-B68E-CBE970134A7B";
paths = (
{
closed = 1;
nodes = (
"429 -11 OFFCURVE",
"492 76 OFFCURVE",
"492 197 CURVE SMOOTH",
"492 387 LINE",
"586 387 LINE",
"586 423 LINE",
"492 423 LINE",
"492 617 LINE SMOOTH",
"492 675 OFFCURVE",
"513 684 OFFCURVE",
"549 684 CURVE SMOOTH",
"566 684 LINE",
"566 714 LINE",
"107 714 LINE",
"107 671 LINE",
"427 671 LINE",
"427 423 LINE",
"316 423 LINE SMOOTH",
"149 423 OFFCURVE",
"50 345 OFFCURVE",
"50 208 CURVE SMOOTH",
"50 64 OFFCURVE",
"128 -11 OFFCURVE",
"274 -11 CURVE SMOOTH"
);
},
{
closed = 1;
nodes = (
"167 25 OFFCURVE",
"117 91 OFFCURVE",
"117 209 CURVE SMOOTH",
"117 323 OFFCURVE",
"189 387 OFFCURVE",
"315 387 CURVE SMOOTH",
"428 387 LINE",
"428 194 LINE SMOOTH",
"428 96 OFFCURVE",
"394 25 OFFCURVE",
"276 25 CURVE SMOOTH"
);
}
);
width = 631;
},
{
layerId = "1D4F67F9-897D-45AD-B7F0-CA61A6862C03";
paths = (
{
closed = 1;
nodes = (
"407 -10 OFFCURVE",
"449 73 OFFCURVE",
"449 212 CURVE SMOOTH",
"449 391 LINE",
"545 391 LINE",
"545 416 LINE",
"449 416 LINE",
"449 624 LINE SMOOTH",
"449 685 OFFCURVE",
"459 694 OFFCURVE",
"505 694 CURVE SMOOTH",
"525 694 LINE",
"525 714 LINE",
"85 714 LINE",
"85 689 LINE",
"421 689 LINE",
"421 416 LINE",
"290 416 LINE SMOOTH",
"144 416 OFFCURVE",
"46 343 OFFCURVE",
"46 205 CURVE SMOOTH",
"46 62 OFFCURVE",
"118 -10 OFFCURVE",
"252 -10 CURVE SMOOTH"
);
},
{
closed = 1;
nodes = (
"130 15 OFFCURVE",
"74 84 OFFCURVE",
"74 206 CURVE SMOOTH",
"74 331 OFFCURVE",
"162 391 OFFCURVE",
"290 391 CURVE SMOOTH",
"421 391 LINE",
"421 211 LINE SMOOTH",
"421 90 OFFCURVE",
"388 15 OFFCURVE",
"253 15 CURVE SMOOTH"
);
}
);
width = 595;
},
{
layerId = "75A83886-EED5-4C31-9670-660514D8A4F6";
paths = (
{
closed = 1;
nodes = (
"431 -14 OFFCURVE",
"526 50 OFFCURVE",
"526 218 CURVE SMOOTH",
"526 381 LINE",
"613 381 LINE",
"613 447 LINE",
"526 447 LINE",
"526 619 LINE SMOOTH",
"526 648 OFFCURVE",
"542 658 OFFCURVE",
"567 658 CURVE SMOOTH",
"583 658 LINE",
"583 714 LINE",
"79 714 LINE",
"79 650 LINE",
"359 650 LINE",
"359 447 LINE",
"301 447 LINE SMOOTH",
"116 447 OFFCURVE",
"42 387 OFFCURVE",
"42 223 CURVE SMOOTH",
"42 79 OFFCURVE",
"106 -14 OFFCURVE",
"277 -14 CURVE SMOOTH"
);
},
{
closed = 1;
nodes = (
"234 60 OFFCURVE",
"209 110 OFFCURVE",
"209 225 CURVE SMOOTH",
"209 343 OFFCURVE",
"235 381 OFFCURVE",
"303 381 CURVE SMOOTH",
"359 381 LINE",
"359 218 LINE SMOOTH",
"359 97 OFFCURVE",
"336 60 OFFCURVE",
"279 60 CURVE SMOOTH"
);
}
);
width = 631;
},
{
layerId = "C91144B6-58F5-45F2-9CE4-7ED6CE127FD4";
paths = (
{
closed = 1;
nodes = (
"305 -10 OFFCURVE",
"369 55 OFFCURVE",
"369 214 CURVE SMOOTH",
"369 396 LINE",
"455 396 LINE",
"455 421 LINE",
"369 421 LINE",
"369 646 LINE SMOOTH",
"369 683 OFFCURVE",
"375 694 OFFCURVE",
"415 694 CURVE SMOOTH",
"435 694 LINE",
"435 714 LINE",
"81 714 LINE",
"81 689 LINE",
"341 689 LINE",
"341 421 LINE",
"230 421 LINE SMOOTH",
"100 421 OFFCURVE",
"48 325 OFFCURVE",
"48 207 CURVE SMOOTH",
"48 90 OFFCURVE",
"100 -10 OFFCURVE",
"212 -10 CURVE SMOOTH"
);
},
{
closed = 1;
nodes = (
"111 15 OFFCURVE",
"76 116 OFFCURVE",
"76 207 CURVE SMOOTH",
"76 299 OFFCURVE",
"111 396 OFFCURVE",
"229 396 CURVE SMOOTH",
"341 396 LINE",
"341 205 LINE SMOOTH",
"341 68 OFFCURVE",
"289 15 OFFCURVE",
"211 15 CURVE SMOOTH"
);
}
);
width = 491;
},
{
layerId = "E7C4F5EE-4982-479C-BF20-1C8706EFFC5D";
paths = (
{
closed = 1;
nodes = (
"361 -12 OFFCURVE",
"439 53 OFFCURVE",
"439 216 CURVE SMOOTH",
"439 387 LINE",
"525 387 LINE",
"525 436 LINE",
"439 436 LINE",
"439 608 LINE SMOOTH",
"439 657 OFFCURVE",
"459 669 OFFCURVE",
"484 669 CURVE SMOOTH",
"505 669 LINE",
"505 714 LINE",
"89 714 LINE",
"89 665 LINE",
"347 665 LINE",
"347 436 LINE",
"269 436 LINE SMOOTH",
"105 436 OFFCURVE",
"45 360 OFFCURVE",
"45 216 CURVE SMOOTH",
"45 86 OFFCURVE",
"98 -12 OFFCURVE",
"239 -12 CURVE SMOOTH"
);
},
{
closed = 1;
nodes = (
"162 43 OFFCURVE",
"136 114 OFFCURVE",
"136 216 CURVE SMOOTH",
"136 325 OFFCURVE",
"168 387 OFFCURVE",
"265 387 CURVE SMOOTH",
"347 387 LINE",
"347 213 LINE SMOOTH",
"347 82 OFFCURVE",
"309 43 OFFCURVE",
"239 43 CURVE SMOOTH"
);
}
);
width = 560;
},
{
layerId = "E17BEC9D-CAAD-449F-91D9-03766E30097E";
paths = (
{
closed = 1;
nodes = (
"532 -14 OFFCURVE",
"624 87 OFFCURVE",
"624 239 CURVE SMOOTH",
"624 380 LINE",
"711 380 LINE",
"711 452 LINE",
"624 452 LINE",
"624 599 LINE SMOOTH",
"624 636 OFFCURVE",
"638 653 OFFCURVE",
"666 653 CURVE SMOOTH",
"691 653 LINE",
"691 714 LINE",
"100 714 LINE",
"100 638 LINE",
"430 638 LINE",
"430 452 LINE",
"352 452 LINE SMOOTH",
"149 452 OFFCURVE",
"45 353 OFFCURVE",
"45 218 CURVE SMOOTH",
"45 74 OFFCURVE",
"144 -14 OFFCURVE",
"342 -14 CURVE SMOOTH"
);
},
{
closed = 1;
nodes = (
"280 62 OFFCURVE",
"252 94 OFFCURVE",
"252 218 CURVE SMOOTH",
"252 328 OFFCURVE",
"285 380 OFFCURVE",
"365 380 CURVE SMOOTH",
"430 380 LINE",
"430 207 LINE SMOOTH",
"430 120 OFFCURVE",
"404 62 OFFCURVE",
"346 62 CURVE SMOOTH"
);
}
);
width = 742;
},
{
associatedMasterId = "1D4F67F9-897D-45AD-B7F0-CA61A6862C03";
layerId = "1086D230-603B-4D38-8D45-DC229094BA3E";
paths = (
{
closed = 1;
nodes = (
"407 -10 OFFCURVE",
"449 73 OFFCURVE",
"449 212 CURVE SMOOTH",
"449 391 LINE",
"484 391 LINE SMOOTH",
"560 391 OFFCURVE",
"581 371 OFFCURVE",
"581 310 CURVE",
"600 310 OFFCURVE",
"608 321 OFFCURVE",
"608 340 CURVE SMOOTH",
"608 383 OFFCURVE",
"581 416 OFFCURVE",
"493 416 CURVE SMOOTH",
"449 416 LINE",
"449 714 LINE",
"125 714 LINE",
"125 689 LINE",
"421 689 LINE",
"421 416 LINE",
"320 416 LINE SMOOTH",
"154 416 OFFCURVE",
"46 343 OFFCURVE",
"46 205 CURVE SMOOTH",
"46 62 OFFCURVE",
"118 -10 OFFCURVE",
"252 -10 CURVE SMOOTH"
);
},
{
closed = 1;
nodes = (
"130 15 OFFCURVE",
"74 84 OFFCURVE",
"74 206 CURVE SMOOTH",
"74 331 OFFCURVE",
"172 391 OFFCURVE",
"320 391 CURVE SMOOTH",
"421 391 LINE",
"421 211 LINE SMOOTH",
"421 90 OFFCURVE",
"388 15 OFFCURVE",
"253 15 CURVE SMOOTH"
);
}
);
width = 633;
},
{
layerId = "642E8BFC-F41E-4F9A-93D4-B8BFD55081C9";
paths = (
{
closed = 1;
nodes = (
"401 -13 OFFCURVE",
"488 51 OFFCURVE",
"488 217 CURVE SMOOTH",
"488 383 LINE",
"578 383 LINE",
"578 442 LINE",
"488 442 LINE",
"488 605 LINE SMOOTH",
"488 650 OFFCURVE",
"505 663 OFFCURVE",
"531 663 CURVE SMOOTH",
"553 663 LINE",
"553 714 LINE",
"95 714 LINE",
"95 657 LINE",
"354 657 LINE",
"354 442 LINE",
"288 442 LINE SMOOTH",
"112 442 OFFCURVE",
"44 376 OFFCURVE",
"44 220 CURVE SMOOTH",
"44 82 OFFCURVE",
"103 -13 OFFCURVE",
"261 -13 CURVE SMOOTH"
);
},
{
closed = 1;
nodes = (
"203 52 OFFCURVE",
"177 112 OFFCURVE",
"177 221 CURVE SMOOTH",
"177 335 OFFCURVE",
"206 383 OFFCURVE",
"287 383 CURVE SMOOTH",
"354 383 LINE",
"354 216 LINE SMOOTH",
"354 90 OFFCURVE",
"324 52 OFFCURVE",
"262 52 CURVE SMOOTH"
);
}
);
width = 599;
}
);
note = uni10AB;
rightKerningGroup = "Vin-oldgeorgian";
rightMetricsKey = "En-oldgeorgian";
unicode = 10AB;
},
{
glyphname = "Nar-oldgeorgian";
lastChange = "2017-03-31 12:59:02 +0000";
layers = (
{
layerId = "5E7FF211-9823-4E5B-BC80-AC4B3CA4BC69";
paths = (
{
closed = 1;
nodes = (
"329 0 LINE",
"329 42 LINE",
"316 42 LINE SMOOTH",
"271 42 OFFCURVE",
"234 51 OFFCURVE",
"234 114 CURVE SMOOTH",
"234 261 LINE SMOOTH",
"234 369 OFFCURVE",
"286 416 OFFCURVE",
"368 416 CURVE SMOOTH",
"447 416 OFFCURVE",
"489 367 OFFCURVE",
"489 261 CURVE SMOOTH",
"489 0 LINE",
"685 0 LINE",
"685 42 LINE",
"672 42 LINE SMOOTH",
"628 42 OFFCURVE",
"590 50 OFFCURVE",
"590 109 CURVE SMOOTH",
"590 261 LINE SMOOTH",
"590 398 OFFCURVE",
"508 476 OFFCURVE",
"388 476 CURVE SMOOTH",
"318 476 OFFCURVE",
"254 448 OFFCURVE",
"235 405 CURVE",
"230 405 LINE",
"232 442 OFFCURVE",
"234 471 OFFCURVE",
"234 490 CURVE SMOOTH",
"234 660 LINE",
"573 660 LINE",
"573 714 LINE",
"38 714 LINE",
"38 672 LINE",
"51 672 LINE SMOOTH",
"111 672 OFFCURVE",
"133 650 OFFCURVE",
"133 600 CURVE SMOOTH",
"133 114 LINE SMOOTH",
"133 51 OFFCURVE",
"96 42 OFFCURVE",
"51 42 CURVE SMOOTH",
"38 42 LINE",
"38 0 LINE"
);
}
);
width = 725;
},
{
layerId = "101C8DBD-EDBB-4DB6-972E-FA2DBA854B69";
paths = (
{
closed = 1;
nodes = (
"358 0 LINE",
"358 52 LINE",
"333 52 LINE SMOOTH",
"299 52 OFFCURVE",
"274 68 OFFCURVE",
"274 112 CURVE SMOOTH",
"274 272 LINE SMOOTH",
"274 348 OFFCURVE",
"314 408 OFFCURVE",
"388 408 CURVE SMOOTH",
"458 408 OFFCURVE",
"493 370 OFFCURVE",
"493 268 CURVE SMOOTH",
"493 0 LINE",
"744 0 LINE",
"744 52 LINE",
"710 52 LINE SMOOTH",
"677 52 OFFCURVE",
"651 67 OFFCURVE",
"651 111 CURVE SMOOTH",
"651 260 LINE SMOOTH",
"651 409 OFFCURVE",
"578 480 OFFCURVE",
"434 480 CURVE SMOOTH",
"356 480 OFFCURVE",
"304 452 OFFCURVE",
"277 411 CURVE",
"269 411 LINE",
"273 444 OFFCURVE",
"274 473 OFFCURVE",
"274 498 CURVE SMOOTH",
"274 643 LINE",
"623 643 LINE",
"623 714 LINE",
"30 714 LINE",
"30 662 LINE",
"52 662 LINE SMOOTH",
"100 662 OFFCURVE",
"116 639 OFFCURVE",
"116 604 CURVE SMOOTH",
"116 112 LINE SMOOTH",
"116 68 OFFCURVE",
"91 52 OFFCURVE",
"57 52 CURVE SMOOTH",
"23 52 LINE",
"23 0 LINE"
);
}
);
width = 772;
},
{
layerId = "5E7C5774-385D-4E06-B68E-CBE970134A7B";
paths = (
{
closed = 1;
nodes = (
"299 0 LINE",
"299 29 LINE",
"267 29 LINE SMOOTH",
"218 29 OFFCURVE",
"200 39 OFFCURVE",
"200 111 CURVE SMOOTH",
"200 263 LINE SMOOTH",
"200 374 OFFCURVE",
"259 447 OFFCURVE",
"359 447 CURVE SMOOTH",
"451 447 OFFCURVE",
"502 397 OFFCURVE",
"502 268 CURVE SMOOTH",
"502 0 LINE",
"663 0 LINE",
"663 29 LINE",
"632 29 LINE SMOOTH",
"584 29 OFFCURVE",
"566 39 OFFCURVE",
"566 108 CURVE SMOOTH",
"566 271 LINE SMOOTH",
"566 422 OFFCURVE",
"483 489 OFFCURVE",
"367 489 CURVE SMOOTH",
"291 489 OFFCURVE",
"226 450 OFFCURVE",
"200 392 CURVE",
"197 392 LINE",
"199 426 OFFCURVE",
"200 457 OFFCURVE",
"200 484 CURVE SMOOTH",
"200 671 LINE",
"542 671 LINE",
"542 714 LINE",
"39 714 LINE",
"39 685 LINE",
"70 685 LINE SMOOTH",
"124 685 OFFCURVE",
"136 669 OFFCURVE",
"136 603 CURVE SMOOTH",
"136 111 LINE SMOOTH",
"136 39 OFFCURVE",
"117 29 OFFCURVE",
"70 29 CURVE SMOOTH",
"39 29 LINE",
"39 0 LINE"
);
}
);
width = 708;
},
{
layerId = "1D4F67F9-897D-45AD-B7F0-CA61A6862C03";
paths = (
{
closed = 1;
nodes = (
"278 0 LINE",
"278 20 LINE",
"233 20 LINE SMOOTH",
"183 20 OFFCURVE",
"177 31 OFFCURVE",
"177 108 CURVE SMOOTH",
"177 269 LINE SMOOTH",
"177 382 OFFCURVE",
"241 473 OFFCURVE",
"354 473 CURVE SMOOTH",
"453 473 OFFCURVE",
"521 422 OFFCURVE",
"521 278 CURVE SMOOTH",
"521 0 LINE",
"648 0 LINE",
"648 20 LINE",
"605 20 LINE SMOOTH",
"555 20 OFFCURVE",
"549 31 OFFCURVE",
"549 108 CURVE SMOOTH",
"549 278 LINE SMOOTH",
"549 437 OFFCURVE",
"466 498 OFFCURVE",
"352 498 CURVE SMOOTH",
"274 498 OFFCURVE",
"207 451 OFFCURVE",
"177 383 CURVE",
"174 383 LINE",
"176 415 OFFCURVE",
"177 448 OFFCURVE",
"177 480 CURVE SMOOTH",
"177 689 LINE",
"521 689 LINE",
"521 714 LINE",
"50 714 LINE",
"50 694 LINE",
"93 694 LINE SMOOTH",
"143 694 OFFCURVE",
"149 683 OFFCURVE",
"149 606 CURVE SMOOTH",
"149 108 LINE SMOOTH",
"149 31 OFFCURVE",
"143 20 OFFCURVE",
"93 20 CURVE SMOOTH",
"50 20 LINE",
"50 0 LINE"
);
}
);
width = 698;
},
{
layerId = "75A83886-EED5-4C31-9670-660514D8A4F6";
paths = (
{
closed = 1;
nodes = (
"322 0 LINE",
"322 56 LINE",
"291 56 LINE SMOOTH",
"271 56 OFFCURVE",
"262 76 OFFCURVE",
"262 111 CURVE SMOOTH",
"262 296 LINE SMOOTH",
"262 345 OFFCURVE",
"285 388 OFFCURVE",
"334 388 CURVE SMOOTH",
"384 388 OFFCURVE",
"405 352 OFFCURVE",
"405 292 CURVE SMOOTH",
"405 0 LINE",
"651 0 LINE",
"651 56 LINE",
"617 56 LINE SMOOTH",
"588 56 OFFCURVE",
"575 75 OFFCURVE",
"575 112 CURVE SMOOTH",
"575 294 LINE SMOOTH",
"575 428 OFFCURVE",
"508 484 OFFCURVE",
"403 484 CURVE SMOOTH",
"348 484 OFFCURVE",
"300 460 OFFCURVE",
"264 412 CURVE",
"260 412 LINE",
"263 436 OFFCURVE",
"264 460 OFFCURVE",
"264 484 CURVE SMOOTH",
"264 650 LINE",
"555 650 LINE",
"555 714 LINE",
"24 714 LINE",
"24 658 LINE",
"50 658 LINE SMOOTH",
"80 658 OFFCURVE",
"94 651 OFFCURVE",
"94 599 CURVE SMOOTH",
"94 111 LINE SMOOTH",
"94 76 OFFCURVE",
"81 56 OFFCURVE",
"62 56 CURVE SMOOTH",
"18 56 LINE",
"18 0 LINE"
);
}
);
width = 669;
},
{
layerId = "C91144B6-58F5-45F2-9CE4-7ED6CE127FD4";
paths = (
{
closed = 1;
nodes = (
"219 0 LINE",
"219 20 LINE",
"194 20 LINE SMOOTH",
"144 20 OFFCURVE",
"138 31 OFFCURVE",
"138 108 CURVE SMOOTH",
"138 290 LINE SMOOTH",
"138 377 OFFCURVE",
"200 446 OFFCURVE",
"283 446 CURVE SMOOTH",
"365 446 OFFCURVE",
"416 401 OFFCURVE",
"416 286 CURVE SMOOTH",
"416 0 LINE",
"517 0 LINE",
"517 20 LINE",
"498 20 LINE SMOOTH",
"448 20 OFFCURVE",
"442 31 OFFCURVE",
"442 108 CURVE SMOOTH",
"442 298 LINE SMOOTH",
"442 413 OFFCURVE",
"384 471 OFFCURVE",
"285 471 CURVE SMOOTH",
"233 471 OFFCURVE",
"173 445 OFFCURVE",
"140 379 CURVE",
"136 379 LINE",
"137 400 OFFCURVE",
"138 420 OFFCURVE",
"138 441 CURVE SMOOTH",
"138 689 LINE",
"416 689 LINE",
"416 714 LINE",
"40 714 LINE",
"40 694 LINE",
"60 694 LINE SMOOTH",
"106 694 OFFCURVE",
"110 683 OFFCURVE",
"110 609 CURVE SMOOTH",
"110 108 LINE SMOOTH",
"110 31 OFFCURVE",
"104 20 OFFCURVE",
"54 20 CURVE SMOOTH",
"37 20 LINE",
"37 0 LINE"
);
}
);
width = 553;
},
{
layerId = "E7C4F5EE-4982-479C-BF20-1C8706EFFC5D";
paths = (
{
closed = 1;
nodes = (
"264 0 LINE",
"264 39 LINE",
"244 39 LINE SMOOTH",
"208 39 OFFCURVE",
"194 53 OFFCURVE",
"194 110 CURVE SMOOTH",
"194 286 LINE SMOOTH",
"194 387 OFFCURVE",
"248 424 OFFCURVE",
"299 424 CURVE SMOOTH",
"369 424 OFFCURVE",
"408 388 OFFCURVE",
"408 284 CURVE SMOOTH",
"408 0 LINE",
"575 0 LINE",
"575 39 LINE",
"551 39 LINE SMOOTH",
"516 39 OFFCURVE",
"500 52 OFFCURVE",
"500 109 CURVE SMOOTH",
"500 294 LINE SMOOTH",
"500 416 OFFCURVE",
"423 474 OFFCURVE",
"329 474 CURVE SMOOTH",
"260 474 OFFCURVE",
"218 435 OFFCURVE",
"195 397 CURVE",
"191 397 LINE",
"193 419 OFFCURVE",
"194 440 OFFCURVE",
"194 461 CURVE SMOOTH",
"194 671 LINE",
"491 671 LINE",
"491 714 LINE",
"37 714 LINE",
"37 679 LINE",
"52 679 LINE SMOOTH",
"91 679 OFFCURVE",
"103 663 OFFCURVE",
"103 594 CURVE SMOOTH",
"103 110 LINE SMOOTH",
"103 53 OFFCURVE",
"87 39 OFFCURVE",
"52 39 CURVE SMOOTH",
"28 39 LINE",
"28 0 LINE"
);
}
);
width = 610;
},
{
layerId = "E17BEC9D-CAAD-449F-91D9-03766E30097E";
paths = (
{
closed = 1;
nodes = (
"386 0 LINE",
"386 61 LINE",
"349 61 LINE SMOOTH",
"325 61 OFFCURVE",
"313 84 OFFCURVE",
"313 111 CURVE SMOOTH",
"313 282 LINE SMOOTH",
"313 330 OFFCURVE",
"341 401 OFFCURVE",
"407 401 CURVE SMOOTH",
"467 401 OFFCURVE",
"496 372 OFFCURVE",
"496 274 CURVE SMOOTH",
"496 0 LINE",
"788 0 LINE",
"788 61 LINE",
"735 61 LINE SMOOTH",
"712 61 OFFCURVE",
"696 83 OFFCURVE",
"696 113 CURVE SMOOTH",
"696 259 LINE SMOOTH",
"696 419 OFFCURVE",
"633 485 OFFCURVE",
"477 485 CURVE SMOOTH",
"392 485 OFFCURVE",
"352 454 OFFCURVE",
"317 417 CURVE",
"307 417 LINE",
"312 445 OFFCURVE",
"313 474 OFFCURVE",
"313 506 CURVE SMOOTH",
"313 638 LINE",
"670 638 LINE",
"670 714 LINE",
"35 714 LINE",
"35 654 LINE",
"65 654 LINE SMOOTH",
"101 654 OFFCURVE",
"113 630 OFFCURVE",
"113 609 CURVE SMOOTH",
"113 111 LINE SMOOTH",
"113 84 OFFCURVE",
"97 61 OFFCURVE",
"74 61 CURVE SMOOTH",
"21 61 LINE",
"21 0 LINE"
);
}
);
width = 819;
},
{
associatedMasterId = "1D4F67F9-897D-45AD-B7F0-CA61A6862C03";
layerId = "1086D230-603B-4D38-8D45-DC229094BA3E";
paths = (
{
closed = 1;
nodes = (
"167 0 LINE",
"167 273 LINE SMOOTH",
"167 386 OFFCURVE",
"227 477 OFFCURVE",
"340 477 CURVE SMOOTH",
"439 477 OFFCURVE",
"491 416 OFFCURVE",
"491 322 CURVE SMOOTH",
"491 0 LINE",
"519 0 LINE",
"519 322 LINE SMOOTH",
"519 441 OFFCURVE",
"452 502 OFFCURVE",
"338 502 CURVE SMOOTH",
"260 502 OFFCURVE",
"197 459 OFFCURVE",
"167 391 CURVE",
"164 391 LINE",
"166 423 OFFCURVE",
"167 456 OFFCURVE",
"167 488 CURVE SMOOTH",
"167 689 LINE",
"481 689 LINE",
"481 714 LINE",
"40 714 LINE",
"40 694 LINE",
"83 694 LINE SMOOTH",
"133 694 OFFCURVE",
"139 683 OFFCURVE",
"139 606 CURVE SMOOTH",
"139 0 LINE"
);
}
);
width = 607;
},
{
layerId = "642E8BFC-F41E-4F9A-93D4-B8BFD55081C9";
paths = (
{
closed = 1;
nodes = (
"295 0 LINE",
"295 47 LINE",
"268 47 LINE SMOOTH",
"240 47 OFFCURVE",
"229 65 OFFCURVE",
"229 111 CURVE SMOOTH",
"229 291 LINE SMOOTH",
"229 365 OFFCURVE",
"269 405 OFFCURVE",
"318 405 CURVE SMOOTH",
"378 405 OFFCURVE",
"407 369 OFFCURVE",
"407 288 CURVE SMOOTH",
"407 0 LINE",
"617 0 LINE",
"617 47 LINE",
"587 47 LINE SMOOTH",
"555 47 OFFCURVE",
"541 64 OFFCURVE",
"541 111 CURVE SMOOTH",
"541 294 LINE SMOOTH",
"541 422 OFFCURVE",
"467 479 OFFCURVE",
"367 479 CURVE SMOOTH",
"306 479 OFFCURVE",
"260 449 OFFCURVE",
"231 405 CURVE",
"227 405 LINE",
"230 427 OFFCURVE",
"231 450 OFFCURVE",
"231 473 CURVE SMOOTH",
"231 657 LINE",
"524 657 LINE",
"524 714 LINE",
"27 714 LINE",
"27 662 LINE",
"48 662 LINE SMOOTH",
"82 662 OFFCURVE",
"96 651 OFFCURVE",
"96 591 CURVE SMOOTH",
"96 111 LINE SMOOTH",
"96 65 OFFCURVE",
"82 47 OFFCURVE",
"54 47 CURVE SMOOTH",
"20 47 LINE",
"20 0 LINE"
);
}
);
width = 638;
}
);
leftKerningGroup = "Nar-oldgeorgian";
note = uni10AC;
rightMetricsKey = "En-oldgeorgian";
unicode = 10AC;
},
{
glyphname = "On-oldgeorgian";
lastChange = "2017-03-31 12:59:02 +0000";
layers = (
{
layerId = "5E7FF211-9823-4E5B-BC80-AC4B3CA4BC69";
paths = (
{
closed = 1;
nodes = (
"737 174 OFFCURVE",
"731 170 OFFCURVE",
"726 167 CURVE",
"733 153 OFFCURVE",
"737 139 OFFCURVE",
"737 125 CURVE SMOOTH",
"737 87 OFFCURVE",
"729 42 OFFCURVE",
"663 42 CURVE SMOOTH",
"637 42 OFFCURVE",
"615 49 OFFCURVE",
"591 73 CURVE",
"651 136 OFFCURVE",
"685 232 OFFCURVE",
"685 358 CURVE SMOOTH",
"685 589 OFFCURVE",
"567 726 OFFCURVE",
"372 726 CURVE SMOOTH",
"168 726 OFFCURVE",
"56 592 OFFCURVE",
"56 359 CURVE SMOOTH",
"56 121 OFFCURVE",
"170 -12 OFFCURVE",
"371 -12 CURVE SMOOTH",
"444 -12 OFFCURVE",
"506 7 OFFCURVE",
"556 43 CURVE",
"582 12 OFFCURVE",
"617 -12 OFFCURVE",
"679 -12 CURVE SMOOTH",
"763 -12 OFFCURVE",
"814 41 OFFCURVE",
"814 109 CURVE SMOOTH",
"814 151 OFFCURVE",
"792 174 OFFCURVE",
"754 174 CURVE SMOOTH"
);
},
{
closed = 1;
nodes = (
"234 42 OFFCURVE",
"167 141 OFFCURVE",
"167 358 CURVE SMOOTH",
"167 576 OFFCURVE",
"234 672 OFFCURVE",
"372 672 CURVE SMOOTH",
"509 672 OFFCURVE",
"574 575 OFFCURVE",
"574 358 CURVE SMOOTH",
"574 140 OFFCURVE",
"508 42 OFFCURVE",
"371 42 CURVE SMOOTH"
);
}
);
width = 812;
},
{
layerId = "101C8DBD-EDBB-4DB6-972E-FA2DBA854B69";
paths = (
{
closed = 1;
nodes = (
"791 220 OFFCURVE",
"771 214 OFFCURVE",
"761 206 CURVE",
"776 187 OFFCURVE",
"779 171 OFFCURVE",
"779 146 CURVE SMOOTH",
"779 111 OFFCURVE",
"758 77 OFFCURVE",
"717 77 CURVE SMOOTH",
"692 77 OFFCURVE",
"671 86 OFFCURVE",
"651 100 CURVE",
"703 164 OFFCURVE",
"732 252 OFFCURVE",
"732 358 CURVE SMOOTH",
"732 588 OFFCURVE",
"605 727 OFFCURVE",
"395 727 CURVE SMOOTH",
"178 727 OFFCURVE",
"55 595 OFFCURVE",
"55 359 CURVE SMOOTH",
"55 133 OFFCURVE",
"169 -13 OFFCURVE",
"394 -13 CURVE SMOOTH",
"473 -13 OFFCURVE",
"541 8 OFFCURVE",
"595 47 CURVE",
"626 18 OFFCURVE",
"678 -13 OFFCURVE",
"747 -13 CURVE SMOOTH",
"816 -13 OFFCURVE",
"890 31 OFFCURVE",
"890 109 CURVE SMOOTH",
"890 176 OFFCURVE",
"854 220 OFFCURVE",
"805 220 CURVE SMOOTH"
);
},
{
closed = 1;
nodes = (
"279 52 OFFCURVE",
"223 148 OFFCURVE",
"223 358 CURVE SMOOTH",
"223 566 OFFCURVE",
"278 662 OFFCURVE",
"395 662 CURVE SMOOTH",
"510 662 OFFCURVE",
"564 567 OFFCURVE",
"564 358 CURVE SMOOTH",
"564 147 OFFCURVE",
"510 52 OFFCURVE",
"394 52 CURVE SMOOTH"
);
}
);
width = 879;
},
{
layerId = "5E7C5774-385D-4E06-B68E-CBE970134A7B";
paths = (
{
closed = 1;
nodes = (
"721 150 OFFCURVE",
"714 148 OFFCURVE",
"710 143 CURVE",
"712 134 OFFCURVE",
"713 126 OFFCURVE",
"713 117 CURVE SMOOTH",
"713 79 OFFCURVE",
"691 36 OFFCURVE",
"648 36 CURVE SMOOTH",
"616 36 OFFCURVE",
"589 55 OFFCURVE",
"570 80 CURVE",
"626 146 OFFCURVE",
"656 242 OFFCURVE",
"656 358 CURVE SMOOTH",
"656 580 OFFCURVE",
"549 725 OFFCURVE",
"358 725 CURVE SMOOTH",
"155 725 OFFCURVE",
"57 580 OFFCURVE",
"57 359 CURVE SMOOTH",
"57 136 OFFCURVE",
"155 -11 OFFCURVE",
"357 -11 CURVE SMOOTH",
"429 -11 OFFCURVE",
"489 10 OFFCURVE",
"536 47 CURVE",
"570 4 OFFCURVE",
"615 -11 OFFCURVE",
"652 -11 CURVE SMOOTH",
"717 -11 OFFCURVE",
"766 46 OFFCURVE",
"766 108 CURVE SMOOTH",
"766 128 OFFCURVE",
"759 150 OFFCURVE",
"729 150 CURVE SMOOTH"
);
},
{
closed = 1;
nodes = (
"201 36 OFFCURVE",
"132 155 OFFCURVE",
"132 358 CURVE SMOOTH",
"132 560 OFFCURVE",
"201 678 OFFCURVE",
"358 678 CURVE SMOOTH",
"521 678 OFFCURVE",
"581 560 OFFCURVE",
"581 358 CURVE SMOOTH",
"581 155 OFFCURVE",
"521 36 OFFCURVE",
"357 36 CURVE SMOOTH"
);
}
);
width = 774;
},
{
layerId = "1D4F67F9-897D-45AD-B7F0-CA61A6862C03";
paths = (
{
closed = 1;
nodes = (
"720 114 OFFCURVE",
"715 113 OFFCURVE",
"713 112 CURVE",
"714 107 OFFCURVE",
"715 102 OFFCURVE",
"715 97 CURVE SMOOTH",
"715 57 OFFCURVE",
"688 15 OFFCURVE",
"642 15 CURVE SMOOTH",
"600 15 OFFCURVE",
"562 37 OFFCURVE",
"550 77 CURVE",
"603 141 OFFCURVE",
"627 238 OFFCURVE",
"627 358 CURVE SMOOTH",
"627 590 OFFCURVE",
"547 724 OFFCURVE",
"344 724 CURVE SMOOTH",
"157 724 OFFCURVE",
"58 592 OFFCURVE",
"58 359 CURVE SMOOTH",
"58 125 OFFCURVE",
"153 -10 OFFCURVE",
"343 -10 CURVE SMOOTH",
"425 -10 OFFCURVE",
"488 14 OFFCURVE",
"533 58 CURVE",
"548 17 OFFCURVE",
"594 -10 OFFCURVE",
"639 -10 CURVE SMOOTH",
"691 -10 OFFCURVE",
"741 26 OFFCURVE",
"741 87 CURVE SMOOTH",
"741 103 OFFCURVE",
"735 114 OFFCURVE",
"723 114 CURVE SMOOTH"
);
},
{
closed = 1;
nodes = (
"172 15 OFFCURVE",
"86 143 OFFCURVE",
"86 358 CURVE SMOOTH",
"86 573 OFFCURVE",
"172 699 OFFCURVE",
"344 699 CURVE SMOOTH",
"530 699 OFFCURVE",
"599 573 OFFCURVE",
"599 358 CURVE SMOOTH",
"599 145 OFFCURVE",
"524 15 OFFCURVE",
"343 15 CURVE SMOOTH"
);
}
);
width = 756;
},
{
layerId = "75A83886-EED5-4C31-9670-660514D8A4F6";
paths = (
{
closed = 1;
nodes = (
"682 219 OFFCURVE",
"662 213 OFFCURVE",
"652 205 CURVE",
"667 186 OFFCURVE",
"670 170 OFFCURVE",
"670 145 CURVE SMOOTH",
"670 110 OFFCURVE",
"648 81 OFFCURVE",
"608 81 CURVE SMOOTH",
"590 81 OFFCURVE",
"575 84 OFFCURVE",
"560 90 CURVE",
"615 161 OFFCURVE",
"639 260 OFFCURVE",
"639 358 CURVE SMOOTH",
"639 583 OFFCURVE",
"542 728 OFFCURVE",
"344 728 CURVE SMOOTH",
"142 728 OFFCURVE",
"45 583 OFFCURVE",
"45 359 CURVE SMOOTH",
"45 133 OFFCURVE",
"142 -14 OFFCURVE",
"343 -14 CURVE SMOOTH",
"407 -14 OFFCURVE",
"459 3 OFFCURVE",
"501 32 CURVE",
"539 7 OFFCURVE",
"582 -14 OFFCURVE",
"632 -14 CURVE SMOOTH",
"700 -14 OFFCURVE",
"782 30 OFFCURVE",
"782 109 CURVE SMOOTH",
"782 176 OFFCURVE",
"755 219 OFFCURVE",
"716 219 CURVE SMOOTH"
);
},
{
closed = 1;
nodes = (
"254 54 OFFCURVE",
"221 165 OFFCURVE",
"221 358 CURVE SMOOTH",
"221 550 OFFCURVE",
"254 660 OFFCURVE",
"344 660 CURVE SMOOTH",
"432 660 OFFCURVE",
"464 550 OFFCURVE",
"464 358 CURVE SMOOTH",
"464 165 OFFCURVE",
"432 54 OFFCURVE",
"343 54 CURVE SMOOTH"
);
}
);
width = 764;
},
{
layerId = "C91144B6-58F5-45F2-9CE4-7ED6CE127FD4";
paths = (
{
closed = 1;
nodes = (
"540 94 OFFCURVE",
"535 93 OFFCURVE",
"533 92 CURVE",
"534 87 OFFCURVE",
"535 82 OFFCURVE",
"535 67 CURVE SMOOTH",
"535 37 OFFCURVE",
"515 15 OFFCURVE",
"482 15 CURVE SMOOTH",
"457 15 OFFCURVE",
"436 30 OFFCURVE",
"416 69 CURVE",
"465 138 OFFCURVE",
"485 244 OFFCURVE",
"485 358 CURVE SMOOTH",
"485 610 OFFCURVE",
"414 724 OFFCURVE",
"265 724 CURVE SMOOTH",
"118 724 OFFCURVE",
"44 596 OFFCURVE",
"44 359 CURVE SMOOTH",
"44 137 OFFCURVE",
"116 -10 OFFCURVE",
"264 -10 CURVE SMOOTH",
"321 -10 OFFCURVE",
"365 11 OFFCURVE",
"398 47 CURVE",
"420 11 OFFCURVE",
"448 -10 OFFCURVE",
"479 -10 CURVE SMOOTH",
"511 -10 OFFCURVE",
"561 6 OFFCURVE",
"561 67 CURVE SMOOTH",
"561 83 OFFCURVE",
"555 94 OFFCURVE",
"543 94 CURVE SMOOTH"
);
},
{
closed = 1;
nodes = (
"137 15 OFFCURVE",
"72 153 OFFCURVE",
"72 358 CURVE SMOOTH",
"72 574 OFFCURVE",
"131 699 OFFCURVE",
"265 699 CURVE SMOOTH",
"406 699 OFFCURVE",
"457 574 OFFCURVE",
"457 358 CURVE SMOOTH",
"457 146 OFFCURVE",
"391 15 OFFCURVE",
"264 15 CURVE SMOOTH"
);
}
);
width = 580;
},
{
layerId = "E7C4F5EE-4982-479C-BF20-1C8706EFFC5D";
paths = (
{
closed = 1;
nodes = (
"604 175 OFFCURVE",
"590 171 OFFCURVE",
"583 165 CURVE",
"592 151 OFFCURVE",
"594 139 OFFCURVE",
"594 120 CURVE SMOOTH",
"594 86 OFFCURVE",
"573 55 OFFCURVE",
"536 55 CURVE SMOOTH",
"515 55 OFFCURVE",
"495 64 OFFCURVE",
"477 80 CURVE",
"526 147 OFFCURVE",
"552 256 OFFCURVE",
"552 358 CURVE SMOOTH",
"552 581 OFFCURVE",
"469 726 OFFCURVE",
"298 726 CURVE SMOOTH",
"127 726 OFFCURVE",
"44 581 OFFCURVE",
"44 359 CURVE SMOOTH",
"44 135 OFFCURVE",
"127 -12 OFFCURVE",
"297 -12 CURVE SMOOTH",
"355 -12 OFFCURVE",
"402 6 OFFCURVE",
"439 38 CURVE",
"468 10 OFFCURVE",
"509 -11 OFFCURVE",
"551 -11 CURVE SMOOTH",
"613 -11 OFFCURVE",
"672 31 OFFCURVE",
"672 96 CURVE SMOOTH",
"672 143 OFFCURVE",
"650 175 OFFCURVE",
"615 175 CURVE SMOOTH"
);
},
{
closed = 1;
nodes = (
"189 41 OFFCURVE",
"144 158 OFFCURVE",
"144 358 CURVE SMOOTH",
"144 557 OFFCURVE",
"189 674 OFFCURVE",
"298 674 CURVE SMOOTH",
"409 674 OFFCURVE",
"452 557 OFFCURVE",
"452 358 CURVE SMOOTH",
"452 158 OFFCURVE",
"411 41 OFFCURVE",
"297 41 CURVE SMOOTH"
);
}
);
width = 675;
},
{
layerId = "E17BEC9D-CAAD-449F-91D9-03766E30097E";
paths = (
{
closed = 1;
nodes = (
"821 219 OFFCURVE",
"801 213 OFFCURVE",
"791 205 CURVE",
"806 186 OFFCURVE",
"809 170 OFFCURVE",
"809 145 CURVE SMOOTH",
"809 110 OFFCURVE",
"788 81 OFFCURVE",
"747 81 CURVE SMOOTH",
"722 81 OFFCURVE",
"701 90 OFFCURVE",
"682 103 CURVE",
"736 167 OFFCURVE",
"766 254 OFFCURVE",
"766 358 CURVE SMOOTH",
"766 580 OFFCURVE",
"639 728 OFFCURVE",
"412 728 CURVE SMOOTH",
"171 728 OFFCURVE",
"54 580 OFFCURVE",
"54 359 CURVE SMOOTH",
"54 137 OFFCURVE",
"171 -14 OFFCURVE",
"411 -14 CURVE SMOOTH",
"494 -14 OFFCURVE",
"565 8 OFFCURVE",
"622 48 CURVE",
"654 19 OFFCURVE",
"706 -14 OFFCURVE",
"777 -14 CURVE SMOOTH",
"845 -14 OFFCURVE",
"930 30 OFFCURVE",
"931 109 CURVE SMOOTH",
"932 176 OFFCURVE",
"904 219 OFFCURVE",
"855 219 CURVE SMOOTH"
);
},
{
closed = 1;
nodes = (
"304 59 OFFCURVE",
"264 172 OFFCURVE",
"264 358 CURVE SMOOTH",
"264 544 OFFCURVE",
"304 655 OFFCURVE",
"412 655 CURVE SMOOTH",
"518 655 OFFCURVE",
"556 544 OFFCURVE",
"556 358 CURVE SMOOTH",
"556 172 OFFCURVE",
"518 59 OFFCURVE",
"411 59 CURVE SMOOTH"
);
}
);
width = 910;
},
{
associatedMasterId = "1D4F67F9-897D-45AD-B7F0-CA61A6862C03";
layerId = "1086D230-603B-4D38-8D45-DC229094BA3E";
paths = (
{
closed = 1;
nodes = (
"590 -152 OFFCURVE",
"615 -134 OFFCURVE",
"615 -122 CURVE SMOOTH",
"615 -115 OFFCURVE",
"613 -109 OFFCURVE",
"610 -106 CURVE",
"596 -119 OFFCURVE",
"571 -128 OFFCURVE",
"550 -128 CURVE SMOOTH",
"512 -128 OFFCURVE",
"474 -108 OFFCURVE",
"474 -43 CURVE SMOOTH",
"474 -6 OFFCURVE",
"494 25 OFFCURVE",
"515 42 CURVE SMOOTH",
"589 100 OFFCURVE",
"627 209 OFFCURVE",
"627 358 CURVE SMOOTH",
"627 590 OFFCURVE",
"547 725 OFFCURVE",
"344 725 CURVE SMOOTH",
"157 725 OFFCURVE",
"58 592 OFFCURVE",
"58 359 CURVE SMOOTH",
"58 125 OFFCURVE",
"153 -10 OFFCURVE",
"343 -10 CURVE SMOOTH",
"390 -10 OFFCURVE",
"431 -2 OFFCURVE",
"465 13 CURVE",
"454 -6 OFFCURVE",
"448 -27 OFFCURVE",
"448 -49 CURVE SMOOTH",
"448 -112 OFFCURVE",
"484 -152 OFFCURVE",
"550 -152 CURVE SMOOTH"
);
},
{
closed = 1;
nodes = (
"172 15 OFFCURVE",
"86 143 OFFCURVE",
"86 358 CURVE SMOOTH",
"86 573 OFFCURVE",
"172 700 OFFCURVE",
"344 700 CURVE SMOOTH",
"530 700 OFFCURVE",
"599 573 OFFCURVE",
"599 358 CURVE SMOOTH",
"599 145 OFFCURVE",
"524 15 OFFCURVE",
"343 15 CURVE SMOOTH"
);
}
);
width = 686;
},
{
layerId = "642E8BFC-F41E-4F9A-93D4-B8BFD55081C9";
paths = (
{
closed = 1;
nodes = (
"651 215 OFFCURVE",
"631 209 OFFCURVE",
"621 201 CURVE",
"636 182 OFFCURVE",
"639 166 OFFCURVE",
"639 141 CURVE SMOOTH",
"639 106 OFFCURVE",
"610 78 OFFCURVE",
"577 78 CURVE SMOOTH",
"560 78 OFFCURVE",
"544 82 OFFCURVE",
"529 89 CURVE",
"578 157 OFFCURVE",
"601 253 OFFCURVE",
"601 358 CURVE SMOOTH",
"601 582 OFFCURVE",
"510 727 OFFCURVE",
"324 727 CURVE SMOOTH",
"136 727 OFFCURVE",
"45 582 OFFCURVE",
"45 359 CURVE SMOOTH",
"45 134 OFFCURVE",
"136 -13 OFFCURVE",
"323 -13 CURVE SMOOTH",
"384 -13 OFFCURVE",
"434 4 OFFCURVE",
"474 33 CURVE",
"508 9 OFFCURVE",
"555 -13 OFFCURVE",
"604 -13 CURVE SMOOTH",
"666 -13 OFFCURVE",
"748 26 OFFCURVE",
"748 104 CURVE SMOOTH",
"748 171 OFFCURVE",
"714 215 OFFCURVE",
"670 215 CURVE SMOOTH"
);
},
{
closed = 1;
nodes = (
"226 48 OFFCURVE",
"187 162 OFFCURVE",
"187 358 CURVE SMOOTH",
"187 553 OFFCURVE",
"226 666 OFFCURVE",
"324 666 CURVE SMOOTH",
"422 666 OFFCURVE",
"459 553 OFFCURVE",
"459 358 CURVE SMOOTH",
"459 162 OFFCURVE",
"423 48 OFFCURVE",
"323 48 CURVE SMOOTH"
);
}
);
width = 738;
}
);
leftKerningGroup = "On-oldgeorgian";
note = uni10AD;
unicode = 10AD;
},
{
glyphname = "Par-oldgeorgian";
lastChange = "2017-03-31 12:59:02 +0000";
layers = (
{
layerId = "5E7FF211-9823-4E5B-BC80-AC4B3CA4BC69";
paths = (
{
closed = 1;
nodes = (
"528 714 LINE",
"528 672 LINE",
"541 672 LINE SMOOTH",
"566 672 OFFCURVE",
"603 663 OFFCURVE",
"603 610 CURVE SMOOTH",
"603 206 LINE SMOOTH",
"603 106 OFFCURVE",
"545 48 OFFCURVE",
"446 48 CURVE SMOOTH",
"343 48 OFFCURVE",
"289 103 OFFCURVE",
"289 210 CURVE SMOOTH",
"289 714 LINE",
"20 714 LINE",
"20 660 LINE",
"188 660 LINE",
"188 216 LINE SMOOTH",
"188 61 OFFCURVE",
"274 -12 OFFCURVE",
"450 -12 CURVE SMOOTH",
"612 -12 OFFCURVE",
"704 65 OFFCURVE",
"704 204 CURVE SMOOTH",
"704 610 LINE SMOOTH",
"704 663 OFFCURVE",
"737 672 OFFCURVE",
"762 672 CURVE SMOOTH",
"775 672 LINE",
"775 714 LINE"
);
}
);
width = 804;
},
{
layerId = "101C8DBD-EDBB-4DB6-972E-FA2DBA854B69";
paths = (
{
closed = 1;
nodes = (
"592 714 LINE",
"592 661 LINE",
"614 661 LINE SMOOTH",
"643 661 OFFCURVE",
"663 653 OFFCURVE",
"663 606 CURVE SMOOTH",
"663 210 LINE SMOOTH",
"663 110 OFFCURVE",
"618 58 OFFCURVE",
"538 58 CURVE SMOOTH",
"453 58 OFFCURVE",
"413 105 OFFCURVE",
"413 210 CURVE SMOOTH",
"413 714 LINE",
"15 714 LINE",
"15 643 LINE",
"255 643 LINE",
"255 218 LINE SMOOTH",
"255 62 OFFCURVE",
"347 -13 OFFCURVE",
"538 -13 CURVE SMOOTH",
"729 -13 OFFCURVE",
"821 63 OFFCURVE",
"821 218 CURVE SMOOTH",
"821 606 LINE SMOOTH",
"821 653 OFFCURVE",
"843 661 OFFCURVE",
"872 661 CURVE SMOOTH",
"894 661 LINE",
"894 714 LINE"
);
}
);
width = 901;
},
{
layerId = "5E7C5774-385D-4E06-B68E-CBE970134A7B";
paths = (
{
closed = 1;
nodes = (
"596 714 LINE",
"596 684 LINE",
"614 684 LINE SMOOTH",
"650 684 OFFCURVE",
"672 675 OFFCURVE",
"672 617 CURVE SMOOTH",
"672 213 LINE SMOOTH",
"672 106 OFFCURVE",
"615 25 OFFCURVE",
"491 25 CURVE SMOOTH",
"379 25 OFFCURVE",
"312 84 OFFCURVE",
"312 207 CURVE SMOOTH",
"312 714 LINE",
"22 714 LINE",
"22 671 LINE",
"248 671 LINE",
"248 216 LINE SMOOTH",
"248 57 OFFCURVE",
"343 -11 OFFCURVE",
"492 -11 CURVE SMOOTH",
"653 -11 OFFCURVE",
"736 84 OFFCURVE",
"736 219 CURVE SMOOTH",
"736 617 LINE SMOOTH",
"736 675 OFFCURVE",
"758 684 OFFCURVE",
"794 684 CURVE SMOOTH",
"811 684 LINE",
"811 714 LINE"
);
}
);
width = 837;
},
{
layerId = "1D4F67F9-897D-45AD-B7F0-CA61A6862C03";
paths = (
{
closed = 1;
nodes = (
"572 714 LINE",
"572 694 LINE",
"595 694 LINE SMOOTH",
"641 694 OFFCURVE",
"651 685 OFFCURVE",
"651 624 CURVE SMOOTH",
"651 219 LINE SMOOTH",
"651 106 OFFCURVE",
"589 15 OFFCURVE",
"448 15 CURVE SMOOTH",
"324 15 OFFCURVE",
"248 76 OFFCURVE",
"248 210 CURVE SMOOTH",
"248 714 LINE",
"24 714 LINE",
"24 689 LINE",
"220 689 LINE",
"220 214 LINE SMOOTH",
"220 51 OFFCURVE",
"312 -10 OFFCURVE",
"450 -10 CURVE SMOOTH",
"605 -10 OFFCURVE",
"679 88 OFFCURVE",
"679 218 CURVE SMOOTH",
"679 624 LINE SMOOTH",
"679 685 OFFCURVE",
"689 694 OFFCURVE",
"735 694 CURVE SMOOTH",
"755 694 LINE",
"755 714 LINE"
);
}
);
width = 762;
},
{
layerId = "75A83886-EED5-4C31-9670-660514D8A4F6";
paths = (
{
closed = 1;
nodes = (
"460 714 LINE",
"460 658 LINE",
"474 658 LINE SMOOTH",
"498 658 OFFCURVE",
"516 643 OFFCURVE",
"516 601 CURVE SMOOTH",
"516 216 LINE SMOOTH",
"516 107 OFFCURVE",
"483 60 OFFCURVE",
"432 60 CURVE SMOOTH",
"368 60 OFFCURVE",
"342 95 OFFCURVE",
"342 210 CURVE SMOOTH",
"342 714 LINE",
"10 714 LINE",
"10 650 LINE",
"175 650 LINE",
"175 218 LINE SMOOTH",
"175 50 OFFCURVE",
"273 -14 OFFCURVE",
"433 -14 CURVE SMOOTH",
"616 -14 OFFCURVE",
"683 76 OFFCURVE",
"683 214 CURVE SMOOTH",
"683 600 LINE SMOOTH",
"683 643 OFFCURVE",
"695 658 OFFCURVE",
"725 658 CURVE SMOOTH",
"741 658 LINE",
"741 714 LINE"
);
}
);
width = 761;
},
{
layerId = "C91144B6-58F5-45F2-9CE4-7ED6CE127FD4";
paths = (
{
closed = 1;
nodes = (
"402 714 LINE",
"402 694 LINE",
"422 694 LINE SMOOTH",
"452 694 OFFCURVE",
"468 683 OFFCURVE",
"468 646 CURVE SMOOTH",
"468 202 LINE SMOOTH",
"468 114 OFFCURVE",
"429 15 OFFCURVE",
"317 15 CURVE SMOOTH",
"229 15 OFFCURVE",
"171 74 OFFCURVE",
"171 210 CURVE SMOOTH",
"171 714 LINE",
"18 714 LINE",
"18 689 LINE",
"143 689 LINE",
"143 214 LINE SMOOTH",
"143 55 OFFCURVE",
"213 -10 OFFCURVE",
"316 -10 CURVE SMOOTH",
"439 -10 OFFCURVE",
"496 89 OFFCURVE",
"496 200 CURVE SMOOTH",
"496 646 LINE SMOOTH",
"496 683 OFFCURVE",
"502 694 OFFCURVE",
"542 694 CURVE SMOOTH",
"562 694 LINE",
"562 714 LINE"
);
}
);
width = 580;
},
{
layerId = "E7C4F5EE-4982-479C-BF20-1C8706EFFC5D";
paths = (
{
closed = 1;
nodes = (
"422 714 LINE",
"422 669 LINE",
"442 669 LINE SMOOTH",
"464 669 OFFCURVE",
"487 657 OFFCURVE",
"487 608 CURVE SMOOTH",
"487 215 LINE SMOOTH",
"487 118 OFFCURVE",
"451 43 OFFCURVE",
"367 43 CURVE SMOOTH",
"290 43 OFFCURVE",
"247 90 OFFCURVE",
"247 216 CURVE SMOOTH",
"247 714 LINE",
"14 714 LINE",
"14 665 LINE",
"155 665 LINE",
"155 215 LINE SMOOTH",
"155 53 OFFCURVE",
"237 -12 OFFCURVE",
"366 -12 CURVE SMOOTH",
"518 -12 OFFCURVE",
"579 83 OFFCURVE",
"579 205 CURVE SMOOTH",
"579 608 LINE SMOOTH",
"579 657 OFFCURVE",
"599 669 OFFCURVE",
"625 669 CURVE SMOOTH",
"646 669 LINE",
"646 714 LINE"
);
}
);
width = 670;
},
{
layerId = "E17BEC9D-CAAD-449F-91D9-03766E30097E";
paths = (
{
closed = 1;
nodes = (
"570 714 LINE",
"570 653 LINE",
"593 653 LINE SMOOTH",
"615 653 OFFCURVE",
"636 636 OFFCURVE",
"636 600 CURVE SMOOTH",
"636 188 LINE SMOOTH",
"636 102 OFFCURVE",
"597 62 OFFCURVE",
"537 62 CURVE SMOOTH",
"470 62 OFFCURVE",
"435 109 OFFCURVE",
"435 191 CURVE SMOOTH",
"435 714 LINE",
"10 714 LINE",
"10 638 LINE",
"241 638 LINE",
"241 221 LINE SMOOTH",
"241 76 OFFCURVE",
"347 -14 OFFCURVE",
"536 -14 CURVE SMOOTH",
"719 -14 OFFCURVE",
"830 65 OFFCURVE",
"830 220 CURVE SMOOTH",
"830 599 LINE SMOOTH",
"830 636 OFFCURVE",
"850 653 OFFCURVE",
"878 653 CURVE SMOOTH",
"903 653 LINE",
"903 714 LINE"
);
}
);
width = 934;
},
{
associatedMasterId = "1D4F67F9-897D-45AD-B7F0-CA61A6862C03";
layerId = "1086D230-603B-4D38-8D45-DC229094BA3E";
paths = (
{
closed = 1;
nodes = (
"605 -10 OFFCURVE",
"679 88 OFFCURVE",
"679 218 CURVE SMOOTH",
"679 714 LINE",
"552 714 LINE",
"552 694 LINE SMOOTH",
"595 694 LINE",
"645 694 OFFCURVE",
"651 683 OFFCURVE",
"651 606 CURVE SMOOTH",
"651 219 LINE SMOOTH",
"651 106 OFFCURVE",
"589 15 OFFCURVE",
"448 15 CURVE SMOOTH",
"324 15 OFFCURVE",
"248 76 OFFCURVE",
"248 210 CURVE SMOOTH",
"248 714 LINE",
"24 714 LINE",
"24 689 LINE",
"220 689 LINE",
"220 214 LINE SMOOTH",
"220 51 OFFCURVE",
"312 -10 OFFCURVE",
"450 -10 CURVE SMOOTH"
);
}
);
width = 762;
},
{
layerId = "642E8BFC-F41E-4F9A-93D4-B8BFD55081C9";
paths = (
{
closed = 1;
nodes = (
"440 714 LINE",
"440 663 LINE",
"461 663 LINE SMOOTH",
"483 663 OFFCURVE",
"504 649 OFFCURVE",
"504 602 CURVE SMOOTH",
"504 214 LINE SMOOTH",
"504 112 OFFCURVE",
"469 52 OFFCURVE",
"404 52 CURVE SMOOTH",
"334 52 OFFCURVE",
"301 93 OFFCURVE",
"301 211 CURVE SMOOTH",
"301 714 LINE",
"12 714 LINE",
"12 657 LINE",
"166 657 LINE",
"166 215 LINE SMOOTH",
"166 51 OFFCURVE",
"257 -13 OFFCURVE",
"404 -13 CURVE SMOOTH",
"573 -13 OFFCURVE",
"638 79 OFFCURVE",
"638 209 CURVE SMOOTH",
"638 601 LINE SMOOTH",
"638 649 OFFCURVE",
"655 663 OFFCURVE",
"682 663 CURVE SMOOTH",
"704 663 LINE",
"704 714 LINE"
);
}
);
width = 717;
}
);
leftKerningGroup = "Zen-oldgeorgian";
note = uni10AE;
unicode = 10AE;
},
{
glyphname = "Zhar-oldgeorgian";
lastChange = "2017-03-28 18:51:32 +0000";
layers = (
{
layerId = "5E7FF211-9823-4E5B-BC80-AC4B3CA4BC69";
paths = (
{
closed = 1;
nodes = (
"636 610 LINE SMOOTH",
"636 663 OFFCURVE",
"669 672 OFFCURVE",
"694 672 CURVE SMOOTH",
"707 672 LINE",
"707 714 LINE",
"460 714 LINE",
"460 672 LINE",
"473 672 LINE SMOOTH",
"498 672 OFFCURVE",
"535 663 OFFCURVE",
"535 610 CURVE SMOOTH",
"535 476 LINE SMOOTH",
"535 365 OFFCURVE",
"480 312 OFFCURVE",
"371 312 CURVE SMOOTH",
"275 312 OFFCURVE",
"227 371 OFFCURVE",
"227 489 CURVE SMOOTH",
"227 577 OFFCURVE",
"248 672 OFFCURVE",
"310 672 CURVE",
"310 714 LINE",
"20 714 LINE",
"20 660 LINE",
"186 660 LINE",
"140 618 OFFCURVE",
"116 561 OFFCURVE",
"116 488 CURVE SMOOTH",
"116 338 OFFCURVE",
"205 258 OFFCURVE",
"359 258 CURVE SMOOTH",
"440 258 OFFCURVE",
"499 282 OFFCURVE",
"534 329 CURVE",
"539 329 LINE",
"537 290 OFFCURVE",
"535 262 OFFCURVE",
"535 244 CURVE SMOOTH",
"535 104 LINE SMOOTH",
"535 51 OFFCURVE",
"498 42 OFFCURVE",
"473 42 CURVE SMOOTH",
"460 42 LINE",
"460 0 LINE",
"707 0 LINE",
"707 42 LINE",
"694 42 LINE SMOOTH",
"669 42 OFFCURVE",
"636 51 OFFCURVE",
"636 104 CURVE SMOOTH"
);
}
);
width = 739;
},
{
layerId = "101C8DBD-EDBB-4DB6-972E-FA2DBA854B69";
paths = (
{
closed = 1;
nodes = (
"663 606 LINE SMOOTH",
"663 653 OFFCURVE",
"685 661 OFFCURVE",
"714 661 CURVE SMOOTH",
"736 661 LINE",
"736 714 LINE",
"434 714 LINE",
"434 661 LINE",
"456 661 LINE SMOOTH",
"485 661 OFFCURVE",
"505 653 OFFCURVE",
"505 606 CURVE SMOOTH",
"505 464 LINE SMOOTH",
"505 363 OFFCURVE",
"466 312 OFFCURVE",
"387 312 CURVE SMOOTH",
"305 312 OFFCURVE",
"268 358 OFFCURVE",
"268 473 CURVE SMOOTH",
"268 606 OFFCURVE",
"297 643 OFFCURVE",
"347 661 CURVE",
"347 714 LINE",
"15 714 LINE",
"15 643 LINE",
"184 643 LINE",
"129 606 OFFCURVE",
"100 537 OFFCURVE",
"100 456 CURVE SMOOTH",
"100 312 OFFCURVE",
"184 228 OFFCURVE",
"328 228 CURVE SMOOTH",
"414 228 OFFCURVE",
"471 253 OFFCURVE",
"506 308 CURVE",
"513 308 LINE",
"508 261 OFFCURVE",
"505 224 OFFCURVE",
"505 196 CURVE SMOOTH",
"505 108 LINE SMOOTH",
"505 61 OFFCURVE",
"485 53 OFFCURVE",
"456 53 CURVE SMOOTH",
"434 53 LINE",
"434 0 LINE",
"736 0 LINE",
"736 53 LINE",
"714 53 LINE SMOOTH",
"685 53 OFFCURVE",
"663 61 OFFCURVE",
"663 108 CURVE SMOOTH"
);
}
);
width = 748;
},
{
layerId = "5E7C5774-385D-4E06-B68E-CBE970134A7B";
paths = (
{
closed = 1;
nodes = (
"590 617 LINE SMOOTH",
"590 675 OFFCURVE",
"612 684 OFFCURVE",
"648 684 CURVE SMOOTH",
"665 684 LINE",
"665 714 LINE",
"450 714 LINE",
"450 684 LINE",
"468 684 LINE SMOOTH",
"504 684 OFFCURVE",
"526 675 OFFCURVE",
"526 617 CURVE SMOOTH",
"526 461 LINE SMOOTH",
"526 361 OFFCURVE",
"469 281 OFFCURVE",
"322 281 CURVE SMOOTH",
"212 281 OFFCURVE",
"164 350 OFFCURVE",
"164 478 CURVE SMOOTH",
"164 606 OFFCURVE",
"188 674 OFFCURVE",
"292 674 CURVE",
"292 714 LINE",
"12 714 LINE",
"12 671 LINE",
"169 671 LINE",
"122 633 OFFCURVE",
"100 570 OFFCURVE",
"100 478 CURVE SMOOTH",
"100 316 OFFCURVE",
"188 238 OFFCURVE",
"318 238 CURVE SMOOTH",
"430 238 OFFCURVE",
"489 273 OFFCURVE",
"525 334 CURVE",
"529 334 LINE",
"527 303 OFFCURVE",
"526 271 OFFCURVE",
"526 239 CURVE SMOOTH",
"526 97 LINE SMOOTH",
"526 39 OFFCURVE",
"504 30 OFFCURVE",
"468 30 CURVE SMOOTH",
"450 30 LINE",
"450 0 LINE",
"665 0 LINE",
"665 30 LINE",
"648 30 LINE SMOOTH",
"612 30 OFFCURVE",
"590 39 OFFCURVE",
"590 97 CURVE SMOOTH"
);
}
);
width = 702;
},
{
layerId = "1D4F67F9-897D-45AD-B7F0-CA61A6862C03";
paths = (
{
closed = 1;
nodes = (
"518 624 LINE SMOOTH",
"518 685 OFFCURVE",
"528 694 OFFCURVE",
"574 694 CURVE SMOOTH",
"594 694 LINE",
"594 714 LINE",
"411 714 LINE",
"411 694 LINE",
"434 694 LINE SMOOTH",
"480 694 OFFCURVE",
"490 685 OFFCURVE",
"490 624 CURVE SMOOTH",
"490 467 LINE SMOOTH",
"490 354 OFFCURVE",
"433 263 OFFCURVE",
"291 263 CURVE SMOOTH",
"167 263 OFFCURVE",
"109 342 OFFCURVE",
"109 477 CURVE SMOOTH",
"109 619 OFFCURVE",
"174 690 OFFCURVE",
"256 690 CURVE",
"256 714 LINE",
"12 714 LINE",
"12 689 LINE",
"175 689 LINE",
"115 655 OFFCURVE",
"81 585 OFFCURVE",
"81 477 CURVE SMOOTH",
"81 315 OFFCURVE",
"155 238 OFFCURVE",
"290 238 CURVE SMOOTH",
"395 238 OFFCURVE",
"456 281 OFFCURVE",
"490 349 CURVE",
"493 349 LINE",
"491 317 OFFCURVE",
"490 284 OFFCURVE",
"490 252 CURVE SMOOTH",
"490 90 LINE SMOOTH",
"490 29 OFFCURVE",
"480 20 OFFCURVE",
"434 20 CURVE SMOOTH",
"411 20 LINE",
"411 0 LINE",
"594 0 LINE",
"594 20 LINE",
"574 20 LINE SMOOTH",
"528 20 OFFCURVE",
"518 29 OFFCURVE",
"518 90 CURVE SMOOTH"
);
}
);
width = 633;
},
{
layerId = "75A83886-EED5-4C31-9670-660514D8A4F6";
paths = (
{
closed = 1;
nodes = (
"637 600 LINE SMOOTH",
"637 643 OFFCURVE",
"646 658 OFFCURVE",
"676 658 CURVE SMOOTH",
"692 658 LINE",
"692 714 LINE",
"411 714 LINE",
"411 658 LINE",
"425 658 LINE SMOOTH",
"449 658 OFFCURVE",
"467 643 OFFCURVE",
"467 601 CURVE SMOOTH",
"467 418 LINE SMOOTH",
"467 372 OFFCURVE",
"438 311 OFFCURVE",
"370 311 CURVE SMOOTH",
"280 311 OFFCURVE",
"263 360 OFFCURVE",
"263 474 CURVE SMOOTH",
"263 599 OFFCURVE",
"279 658 OFFCURVE",
"329 658 CURVE",
"329 714 LINE",
"10 714 LINE",
"10 650 LINE",
"150 650 LINE",
"112 610 OFFCURVE",
"93 551 OFFCURVE",
"93 472 CURVE SMOOTH",
"93 310 OFFCURVE",
"184 230 OFFCURVE",
"328 230 CURVE SMOOTH",
"383 230 OFFCURVE",
"431 254 OFFCURVE",
"467 302 CURVE",
"471 302 LINE",
"468 278 OFFCURVE",
"467 254 OFFCURVE",
"467 230 CURVE SMOOTH",
"467 113 LINE SMOOTH",
"467 71 OFFCURVE",
"449 56 OFFCURVE",
"425 56 CURVE SMOOTH",
"411 56 LINE",
"411 0 LINE",
"692 0 LINE",
"692 56 LINE",
"676 56 LINE SMOOTH",
"649 56 OFFCURVE",
"637 71 OFFCURVE",
"637 114 CURVE SMOOTH"
);
}
);
width = 723;
},
{
layerId = "C91144B6-58F5-45F2-9CE4-7ED6CE127FD4";
paths = (
{
closed = 1;
nodes = (
"426 646 LINE SMOOTH",
"426 683 OFFCURVE",
"432 694 OFFCURVE",
"472 694 CURVE SMOOTH",
"492 694 LINE",
"492 714 LINE",
"332 714 LINE",
"332 694 LINE",
"352 694 LINE SMOOTH",
"382 694 OFFCURVE",
"398 683 OFFCURVE",
"398 646 CURVE SMOOTH",
"398 399 LINE SMOOTH",
"398 332 OFFCURVE",
"336 263 OFFCURVE",
"247 263 CURVE SMOOTH",
"138 263 OFFCURVE",
"96 337 OFFCURVE",
"96 477 CURVE SMOOTH",
"96 619 OFFCURVE",
"130 690 OFFCURVE",
"225 690 CURVE",
"225 714 LINE",
"18 714 LINE",
"18 689 LINE",
"142 689 LINE",
"89 654 OFFCURVE",
"68 584 OFFCURVE",
"68 477 CURVE SMOOTH",
"68 312 OFFCURVE",
"125 238 OFFCURVE",
"245 238 CURVE SMOOTH",
"303 238 OFFCURVE",
"363 264 OFFCURVE",
"396 330 CURVE",
"400 330 LINE",
"399 309 OFFCURVE",
"398 289 OFFCURVE",
"398 268 CURVE SMOOTH",
"398 68 LINE SMOOTH",
"398 31 OFFCURVE",
"382 20 OFFCURVE",
"352 20 CURVE SMOOTH",
"332 20 LINE",
"332 0 LINE",
"492 0 LINE",
"492 20 LINE",
"472 20 LINE SMOOTH",
"432 20 OFFCURVE",
"426 31 OFFCURVE",
"426 68 CURVE SMOOTH"
);
}
);
width = 526;
},
{
layerId = "E7C4F5EE-4982-479C-BF20-1C8706EFFC5D";
paths = (
{
closed = 1;
nodes = (
"512 608 LINE SMOOTH",
"512 657 OFFCURVE",
"531 669 OFFCURVE",
"556 669 CURVE SMOOTH",
"578 669 LINE",
"578 714 LINE",
"353 714 LINE",
"353 669 LINE",
"374 669 LINE SMOOTH",
"395 669 OFFCURVE",
"418 657 OFFCURVE",
"418 608 CURVE SMOOTH",
"418 409 LINE SMOOTH",
"418 353 OFFCURVE",
"367 293 OFFCURVE",
"286 293 CURVE SMOOTH",
"181 293 OFFCURVE",
"152 353 OFFCURVE",
"152 476 CURVE SMOOTH",
"152 607 OFFCURVE",
"177 672 OFFCURVE",
"243 672 CURVE",
"243 714 LINE",
"-15 714 LINE",
"-15 665 LINE",
"119 665 LINE",
"80 627 OFFCURVE",
"59 564 OFFCURVE",
"59 476 CURVE SMOOTH",
"59 314 OFFCURVE",
"136 236 OFFCURVE",
"261 236 CURVE SMOOTH",
"325 236 OFFCURVE",
"383 261 OFFCURVE",
"417 319 CURVE",
"421 319 LINE",
"419 296 OFFCURVE",
"418 274 OFFCURVE",
"418 252 CURVE SMOOTH",
"418 106 LINE SMOOTH",
"418 57 OFFCURVE",
"395 45 OFFCURVE",
"374 45 CURVE SMOOTH",
"353 45 LINE",
"353 0 LINE",
"578 0 LINE",
"578 45 LINE",
"556 45 LINE SMOOTH",
"531 45 OFFCURVE",
"512 57 OFFCURVE",
"512 106 CURVE SMOOTH"
);
}
);
width = 604;
},
{
layerId = "E17BEC9D-CAAD-449F-91D9-03766E30097E";
paths = (
{
closed = 1;
nodes = (
"776 599 LINE SMOOTH",
"776 636 OFFCURVE",
"788 653 OFFCURVE",
"818 653 CURVE SMOOTH",
"843 653 LINE",
"843 714 LINE",
"510 714 LINE",
"510 653 LINE",
"533 653 LINE SMOOTH",
"555 653 OFFCURVE",
"576 636 OFFCURVE",
"576 600 CURVE SMOOTH",
"576 415 LINE SMOOTH",
"576 357 OFFCURVE",
"524 288 OFFCURVE",
"443 288 CURVE SMOOTH",
"353 288 OFFCURVE",
"323 348 OFFCURVE",
"323 466 CURVE SMOOTH",
"323 594 OFFCURVE",
"343 654 OFFCURVE",
"403 654 CURVE",
"403 714 LINE",
"10 714 LINE",
"10 638 LINE",
"197 638 LINE",
"149 596 OFFCURVE",
"123 539 OFFCURVE",
"123 463 CURVE SMOOTH",
"123 295 OFFCURVE",
"230 212 OFFCURVE",
"402 212 CURVE SMOOTH",
"497 212 OFFCURVE",
"537 243 OFFCURVE",
"572 280 CURVE",
"582 280 LINE",
"578 256 OFFCURVE",
"576 232 OFFCURVE",
"576 206 CURVE SMOOTH",
"576 114 LINE SMOOTH",
"576 78 OFFCURVE",
"555 61 OFFCURVE",
"533 61 CURVE SMOOTH",
"510 61 LINE",
"510 0 LINE",
"843 0 LINE",
"843 61 LINE",
"818 61 LINE SMOOTH",
"788 61 OFFCURVE",
"776 78 OFFCURVE",
"776 115 CURVE SMOOTH"
);
}
);
width = 871;
},
{
associatedMasterId = "1D4F67F9-897D-45AD-B7F0-CA61A6862C03";
layerId = "1086D230-603B-4D38-8D45-DC229094BA3E";
paths = (
{
closed = 1;
nodes = (
"518 0 LINE",
"518 714 LINE",
"391 714 LINE",
"391 694 LINE",
"434 694 LINE SMOOTH",
"484 694 OFFCURVE",
"490 683 OFFCURVE",
"490 606 CURVE SMOOTH",
"490 467 LINE SMOOTH",
"490 354 OFFCURVE",
"433 263 OFFCURVE",
"291 263 CURVE SMOOTH",
"167 263 OFFCURVE",
"109 342 OFFCURVE",
"109 477 CURVE SMOOTH",
"109 619 OFFCURVE",
"174 690 OFFCURVE",
"256 690 CURVE",
"256 714 LINE",
"12 714 LINE",
"12 689 LINE",
"175 689 LINE",
"115 655 OFFCURVE",
"81 585 OFFCURVE",
"81 477 CURVE SMOOTH",
"81 315 OFFCURVE",
"155 238 OFFCURVE",
"290 238 CURVE SMOOTH",
"395 238 OFFCURVE",
"456 281 OFFCURVE",
"490 349 CURVE",
"493 349 LINE",
"491 317 OFFCURVE",
"490 284 OFFCURVE",
"490 252 CURVE SMOOTH",
"490 0 LINE"
);
}
);
width = 633;
},
{
layerId = "642E8BFC-F41E-4F9A-93D4-B8BFD55081C9";
paths = (
{
closed = 1;
nodes = (
"583 601 LINE SMOOTH",
"583 649 OFFCURVE",
"598 663 OFFCURVE",
"625 663 CURVE SMOOTH",
"647 663 LINE",
"647 714 LINE",
"382 714 LINE",
"382 663 LINE",
"403 663 LINE SMOOTH",
"426 663 OFFCURVE",
"446 649 OFFCURVE",
"446 602 CURVE SMOOTH",
"446 414 LINE SMOOTH",
"446 364 OFFCURVE",
"407 303 OFFCURVE",
"333 303 CURVE SMOOTH",
"237 303 OFFCURVE",
"215 357 OFFCURVE",
"215 475 CURVE SMOOTH",
"215 603 OFFCURVE",
"234 664 OFFCURVE",
"291 664 CURVE",
"291 714 LINE",
"-1 714 LINE",
"-1 657 LINE",
"137 657 LINE",
"98 618 OFFCURVE",
"78 557 OFFCURVE",
"78 474 CURVE SMOOTH",
"78 312 OFFCURVE",
"163 232 OFFCURVE",
"299 232 CURVE SMOOTH",
"358 232 OFFCURVE",
"410 257 OFFCURVE",
"445 310 CURVE",
"449 310 LINE",
"447 286 OFFCURVE",
"446 263 OFFCURVE",
"446 240 CURVE SMOOTH",
"446 112 LINE SMOOTH",
"446 65 OFFCURVE",
"426 51 OFFCURVE",
"403 51 CURVE SMOOTH",
"382 51 LINE",
"382 0 LINE",
"647 0 LINE",
"647 51 LINE",
"625 51 LINE SMOOTH",
"598 51 OFFCURVE",
"583 65 OFFCURVE",
"583 113 CURVE SMOOTH"
);
}
);
width = 671;
}
);
note = uni10AF;
unicode = 10AF;
},
{
glyphname = "Rae-oldgeorgian";
lastChange = "2017-03-31 12:59:02 +0000";
layers = (
{
layerId = "5E7FF211-9823-4E5B-BC80-AC4B3CA4BC69";
paths = (
{
closed = 1;
nodes = (
"416 -12 OFFCURVE",
"496 68 OFFCURVE",
"496 223 CURVE SMOOTH",
"496 301 LINE SMOOTH",
"496 405 OFFCURVE",
"548 446 OFFCURVE",
"610 446 CURVE SMOOTH",
"669 446 OFFCURVE",
"705 407 OFFCURVE",
"705 331 CURVE SMOOTH",
"705 279 OFFCURVE",
"691 243 OFFCURVE",
"664 211 CURVE",
"680 206 OFFCURVE",
"694 204 OFFCURVE",
"707 204 CURVE SMOOTH",
"768 204 OFFCURVE",
"803 270 OFFCURVE",
"803 339 CURVE SMOOTH",
"803 437 OFFCURVE",
"726 506 OFFCURVE",
"629 506 CURVE SMOOTH",
"576 506 OFFCURVE",
"522 478 OFFCURVE",
"497 435 CURVE",
"492 435 LINE",
"494 472 OFFCURVE",
"496 501 OFFCURVE",
"496 520 CURVE SMOOTH",
"496 610 LINE SMOOTH",
"496 663 OFFCURVE",
"529 672 OFFCURVE",
"554 672 CURVE SMOOTH",
"567 672 LINE",
"567 714 LINE",
"320 714 LINE",
"320 672 LINE",
"333 672 LINE SMOOTH",
"358 672 OFFCURVE",
"395 663 OFFCURVE",
"395 610 CURVE SMOOTH",
"395 220 LINE SMOOTH",
"395 107 OFFCURVE",
"350 42 OFFCURVE",
"273 42 CURVE SMOOTH",
"192 42 OFFCURVE",
"151 99 OFFCURVE",
"151 212 CURVE SMOOTH",
"151 281 OFFCURVE",
"165 317 OFFCURVE",
"192 352 CURVE",
"176 357 OFFCURVE",
"162 359 OFFCURVE",
"149 359 CURVE SMOOTH",
"85 359 OFFCURVE",
"50 283 OFFCURVE",
"50 216 CURVE SMOOTH",
"50 74 OFFCURVE",
"138 -12 OFFCURVE",
"273 -12 CURVE SMOOTH"
);
}
);
width = 853;
},
{
layerId = "101C8DBD-EDBB-4DB6-972E-FA2DBA854B69";
paths = (
{
closed = 1;
nodes = (
"464 -13 OFFCURVE",
"560 75 OFFCURVE",
"560 224 CURVE SMOOTH",
"560 308 LINE SMOOTH",
"560 383 OFFCURVE",
"597 421 OFFCURVE",
"647 421 CURVE SMOOTH",
"696 421 OFFCURVE",
"727 387 OFFCURVE",
"727 324 CURVE SMOOTH",
"727 278 OFFCURVE",
"718 247 OFFCURVE",
"692 207 CURVE",
"715 197 OFFCURVE",
"736 189 OFFCURVE",
"763 189 CURVE SMOOTH",
"829 189 OFFCURVE",
"876 247 OFFCURVE",
"876 328 CURVE SMOOTH",
"876 427 OFFCURVE",
"797 495 OFFCURVE",
"698 495 CURVE SMOOTH",
"642 495 OFFCURVE",
"593 472 OFFCURVE",
"563 433 CURVE",
"555 433 LINE",
"559 465 OFFCURVE",
"560 494 OFFCURVE",
"560 519 CURVE SMOOTH",
"560 604 LINE SMOOTH",
"560 648 OFFCURVE",
"582 661 OFFCURVE",
"609 661 CURVE SMOOTH",
"628 661 LINE",
"628 714 LINE",
"333 714 LINE",
"333 661 LINE",
"351 661 LINE SMOOTH",
"375 661 OFFCURVE",
"402 648 OFFCURVE",
"402 604 CURVE SMOOTH",
"402 206 LINE SMOOTH",
"402 110 OFFCURVE",
"362 53 OFFCURVE",
"302 53 CURVE SMOOTH",
"238 53 OFFCURVE",
"199 105 OFFCURVE",
"199 203 CURVE SMOOTH",
"199 268 OFFCURVE",
"217 315 OFFCURVE",
"250 357 CURVE",
"227 367 OFFCURVE",
"201 375 OFFCURVE",
"173 375 CURVE SMOOTH",
"92 375 OFFCURVE",
"45 301 OFFCURVE",
"45 221 CURVE SMOOTH",
"45 76 OFFCURVE",
"144 -13 OFFCURVE",
"303 -13 CURVE SMOOTH"
);
}
);
width = 921;
},
{
layerId = "5E7C5774-385D-4E06-B68E-CBE970134A7B";
paths = (
{
closed = 1;
nodes = (
"397 -11 OFFCURVE",
"474 67 OFFCURVE",
"474 219 CURVE SMOOTH",
"474 297 LINE SMOOTH",
"474 407 OFFCURVE",
"535 462 OFFCURVE",
"609 462 CURVE SMOOTH",
"677 462 OFFCURVE",
"726 419 OFFCURVE",
"726 335 CURVE SMOOTH",
"726 284 OFFCURVE",
"712 244 OFFCURVE",
"686 212 CURVE",
"695 209 OFFCURVE",
"705 207 OFFCURVE",
"714 207 CURVE SMOOTH",
"761 207 OFFCURVE",
"788 276 OFFCURVE",
"788 339 CURVE SMOOTH",
"788 441 OFFCURVE",
"711 504 OFFCURVE",
"621 504 CURVE SMOOTH",
"566 504 OFFCURVE",
"502 476 OFFCURVE",
"474 415 CURVE",
"470 415 LINE",
"472 449 OFFCURVE",
"474 480 OFFCURVE",
"474 507 CURVE SMOOTH",
"474 617 LINE SMOOTH",
"474 674 OFFCURVE",
"495 683 OFFCURVE",
"531 683 CURVE SMOOTH",
"547 683 LINE",
"547 714 LINE",
"333 714 LINE",
"333 683 LINE",
"351 683 LINE SMOOTH",
"388 683 OFFCURVE",
"410 674 OFFCURVE",
"410 617 CURVE SMOOTH",
"410 215 LINE SMOOTH",
"410 92 OFFCURVE",
"355 29 OFFCURVE",
"266 29 CURVE SMOOTH",
"176 29 OFFCURVE",
"120 93 OFFCURVE",
"120 206 CURVE SMOOTH",
"120 267 OFFCURVE",
"134 317 OFFCURVE",
"160 350 CURVE",
"150 354 OFFCURVE",
"141 355 OFFCURVE",
"132 355 CURVE SMOOTH",
"83 355 OFFCURVE",
"56 269 OFFCURVE",
"56 210 CURVE SMOOTH",
"56 69 OFFCURVE",
"143 -11 OFFCURVE",
"265 -11 CURVE SMOOTH"
);
}
);
width = 844;
},
{
layerId = "1D4F67F9-897D-45AD-B7F0-CA61A6862C03";
paths = (
{
closed = 1;
nodes = (
"379 -10 OFFCURVE",
"453 65 OFFCURVE",
"453 214 CURVE SMOOTH",
"453 293 LINE SMOOTH",
"453 408 OFFCURVE",
"523 477 OFFCURVE",
"608 477 CURVE SMOOTH",
"684 477 OFFCURVE",
"747 430 OFFCURVE",
"747 338 CURVE SMOOTH",
"747 288 OFFCURVE",
"733 245 OFFCURVE",
"707 213 CURVE",
"710 211 OFFCURVE",
"715 210 OFFCURVE",
"720 210 CURVE SMOOTH",
"753 210 OFFCURVE",
"775 281 OFFCURVE",
"775 338 CURVE SMOOTH",
"775 445 OFFCURVE",
"697 502 OFFCURVE",
"613 502 CURVE SMOOTH",
"555 502 OFFCURVE",
"483 474 OFFCURVE",
"453 396 CURVE",
"450 396 LINE",
"452 428 OFFCURVE",
"453 461 OFFCURVE",
"453 493 CURVE SMOOTH",
"453 624 LINE SMOOTH",
"453 685 OFFCURVE",
"463 694 OFFCURVE",
"509 694 CURVE SMOOTH",
"529 694 LINE",
"529 714 LINE",
"346 714 LINE",
"346 694 LINE",
"369 694 LINE SMOOTH",
"415 694 OFFCURVE",
"425 685 OFFCURVE",
"425 624 CURVE SMOOTH",
"425 210 LINE SMOOTH",
"425 76 OFFCURVE",
"359 15 OFFCURVE",
"259 15 CURVE SMOOTH",
"161 15 OFFCURVE",
"90 86 OFFCURVE",
"90 200 CURVE SMOOTH",
"90 252 OFFCURVE",
"104 316 OFFCURVE",
"130 348 CURVE",
"126 350 OFFCURVE",
"122 351 OFFCURVE",
"117 351 CURVE SMOOTH",
"81 351 OFFCURVE",
"62 255 OFFCURVE",
"62 204 CURVE SMOOTH",
"62 63 OFFCURVE",
"147 -10 OFFCURVE",
"256 -10 CURVE SMOOTH"
);
}
);
width = 837;
},
{
layerId = "75A83886-EED5-4C31-9670-660514D8A4F6";
paths = (
{
closed = 1;
nodes = (
"433 -14 OFFCURVE",
"532 50 OFFCURVE",
"532 218 CURVE SMOOTH",
"532 329 LINE SMOOTH",
"532 378 OFFCURVE",
"550 411 OFFCURVE",
"587 411 CURVE SMOOTH",
"627 411 OFFCURVE",
"643 381 OFFCURVE",
"643 327 CURVE SMOOTH",
"643 289 OFFCURVE",
"635 255 OFFCURVE",
"610 215 CURVE",
"631 204 OFFCURVE",
"656 199 OFFCURVE",
"681 199 CURVE SMOOTH",
"761 199 OFFCURVE",
"810 252 OFFCURVE",
"810 353 CURVE SMOOTH",
"810 450 OFFCURVE",
"740 507 OFFCURVE",
"653 507 CURVE SMOOTH",
"598 507 OFFCURVE",
"561 483 OFFCURVE",
"532 445 CURVE",
"528 445 LINE",
"531 469 OFFCURVE",
"532 493 OFFCURVE",
"532 517 CURVE SMOOTH",
"532 600 LINE SMOOTH",
"532 643 OFFCURVE",
"544 658 OFFCURVE",
"574 658 CURVE SMOOTH",
"590 658 LINE",
"590 714 LINE",
"309 714 LINE",
"309 658 LINE",
"323 658 LINE SMOOTH",
"347 658 OFFCURVE",
"365 643 OFFCURVE",
"365 601 CURVE",
"365 210 LINE",
"365 95 OFFCURVE",
"339 60 OFFCURVE",
"293 60 CURVE SMOOTH",
"244 60 OFFCURVE",
"221 107 OFFCURVE",
"221 216 CURVE SMOOTH",
"221 263 OFFCURVE",
"229 307 OFFCURVE",
"254 347 CURVE",
"233 358 OFFCURVE",
"208 363 OFFCURVE",
"183 363 CURVE SMOOTH",
"96 363 OFFCURVE",
"54 303 OFFCURVE",
"54 214 CURVE SMOOTH",
"54 76 OFFCURVE",
"111 -14 OFFCURVE",
"292 -14 CURVE SMOOTH"
);
}
);
width = 861;
},
{
layerId = "C91144B6-58F5-45F2-9CE4-7ED6CE127FD4";
paths = (
{
closed = 1;
nodes = (
"310 -10 OFFCURVE",
"375 45 OFFCURVE",
"375 204 CURVE SMOOTH",
"375 320 LINE SMOOTH",
"375 407 OFFCURVE",
"407 476 OFFCURVE",
"494 476 CURVE SMOOTH",
"550 476 OFFCURVE",
"596 438 OFFCURVE",
"596 354 CURVE SMOOTH",
"596 297 OFFCURVE",
"588 263 OFFCURVE",
"558 224 CURVE",
"561 222 OFFCURVE",
"565 222 OFFCURVE",
"569 222 CURVE SMOOTH",
"606 222 OFFCURVE",
"624 298 OFFCURVE",
"624 353 CURVE SMOOTH",
"624 448 OFFCURVE",
"571 501 OFFCURVE",
"496 501 CURVE SMOOTH",
"440 501 OFFCURVE",
"394 470 OFFCURVE",
"377 419 CURVE",
"373 419 LINE",
"374 440 OFFCURVE",
"375 460 OFFCURVE",
"375 481 CURVE SMOOTH",
"375 646 LINE SMOOTH",
"375 683 OFFCURVE",
"381 694 OFFCURVE",
"415 694 CURVE SMOOTH",
"435 694 LINE",
"435 714 LINE",
"281 714 LINE",
"281 694 LINE",
"301 694 LINE SMOOTH",
"331 694 OFFCURVE",
"347 683 OFFCURVE",
"347 646 CURVE SMOOTH",
"347 200 LINE SMOOTH",
"347 64 OFFCURVE",
"294 15 OFFCURVE",
"216 15 CURVE SMOOTH",
"134 15 OFFCURVE",
"90 94 OFFCURVE",
"90 202 CURVE SMOOTH",
"90 260 OFFCURVE",
"103 315 OFFCURVE",
"140 354 CURVE",
"136 357 OFFCURVE",
"132 358 OFFCURVE",
"128 358 CURVE SMOOTH",
"87 358 OFFCURVE",
"62 267 OFFCURVE",
"62 200 CURVE SMOOTH",
"62 69 OFFCURVE",
"124 -10 OFFCURVE",
"217 -10 CURVE SMOOTH"
);
}
);
width = 692;
},
{
layerId = "E7C4F5EE-4982-479C-BF20-1C8706EFFC5D";
paths = (
{
closed = 1;
nodes = (
"360 -12 OFFCURVE",
"443 53 OFFCURVE",
"443 206 CURVE SMOOTH",
"443 328 LINE SMOOTH",
"443 419 OFFCURVE",
"479 456 OFFCURVE",
"530 456 CURVE SMOOTH",
"585 456 OFFCURVE",
"609 411 OFFCURVE",
"609 348 CURVE SMOOTH",
"609 297 OFFCURVE",
"598 261 OFFCURVE",
"570 218 CURVE",
"581 213 OFFCURVE",
"593 210 OFFCURVE",
"605 210 CURVE SMOOTH",
"663 210 OFFCURVE",
"700 275 OFFCURVE",
"700 353 CURVE SMOOTH",
"700 447 OFFCURVE",
"638 506 OFFCURVE",
"554 506 CURVE SMOOTH",
"500 506 OFFCURVE",
"468 481 OFFCURVE",
"445 443 CURVE",
"441 443 LINE",
"443 465 OFFCURVE",
"444 486 OFFCURVE",
"444 507 CURVE SMOOTH",
"444 608 LINE SMOOTH",
"444 657 OFFCURVE",
"463 669 OFFCURVE",
"488 669 CURVE SMOOTH",
"509 669 LINE",
"509 714 LINE",
"285 714 LINE",
"285 669 LINE",
"306 669 LINE SMOOTH",
"328 669 OFFCURVE",
"351 657 OFFCURVE",
"351 608 CURVE SMOOTH",
"351 200 LINE SMOOTH",
"351 83 OFFCURVE",
"308 43 OFFCURVE",
"246 43 CURVE SMOOTH",
"168 43 OFFCURVE",
"141 118 OFFCURVE",
"141 206 CURVE SMOOTH",
"141 266 OFFCURVE",
"152 308 OFFCURVE",
"180 351 CURVE",
"169 356 OFFCURVE",
"157 359 OFFCURVE",
"145 359 CURVE SMOOTH",
"76 359 OFFCURVE",
"50 275 OFFCURVE",
"50 197 CURVE SMOOTH",
"50 84 OFFCURVE",
"108 -12 OFFCURVE",
"246 -12 CURVE SMOOTH"
);
}
);
width = 762;
},
{
layerId = "E17BEC9D-CAAD-449F-91D9-03766E30097E";
paths = (
{
closed = 1;
nodes = (
"500 -14 OFFCURVE",
"608 80 OFFCURVE",
"608 225 CURVE SMOOTH",
"608 315 LINE SMOOTH",
"608 366 OFFCURVE",
"633 401 OFFCURVE",
"674 401 CURVE SMOOTH",
"715 401 OFFCURVE",
"742 371 OFFCURVE",
"742 318 CURVE SMOOTH",
"742 277 OFFCURVE",
"736 250 OFFCURVE",
"712 203 CURVE",
"740 189 OFFCURVE",
"767 177 OFFCURVE",
"806 177 CURVE SMOOTH",
"874 177 OFFCURVE",
"931 229 OFFCURVE",
"931 319 CURVE SMOOTH",
"931 419 OFFCURVE",
"852 487 OFFCURVE",
"750 487 CURVE SMOOTH",
"691 487 OFFCURVE",
"647 467 OFFCURVE",
"612 430 CURVE",
"602 430 LINE",
"607 458 OFFCURVE",
"608 487 OFFCURVE",
"608 519 CURVE SMOOTH",
"608 599 LINE SMOOTH",
"608 636 OFFCURVE",
"622 653 OFFCURVE",
"650 653 CURVE SMOOTH",
"675 653 LINE",
"675 714 LINE",
"342 714 LINE",
"342 653 LINE",
"365 653 LINE SMOOTH",
"387 653 OFFCURVE",
"408 636 OFFCURVE",
"408 600 CURVE SMOOTH",
"408 195 LINE SMOOTH",
"408 113 OFFCURVE",
"370 62 OFFCURVE",
"323 62 CURVE SMOOTH",
"271 62 OFFCURVE",
"234 109 OFFCURVE",
"234 195 CURVE SMOOTH",
"234 257 OFFCURVE",
"256 314 OFFCURVE",
"294 361 CURVE",
"266 375 OFFCURVE",
"229 387 OFFCURVE",
"190 387 CURVE SMOOTH",
"97 387 OFFCURVE",
"40 315 OFFCURVE",
"40 225 CURVE SMOOTH",
"40 79 OFFCURVE",
"147 -14 OFFCURVE",
"324 -14 CURVE SMOOTH"
);
}
);
width = 971;
},
{
layerId = "642E8BFC-F41E-4F9A-93D4-B8BFD55081C9";
paths = (
{
closed = 1;
nodes = (
"401 -13 OFFCURVE",
"494 51 OFFCURVE",
"494 213 CURVE SMOOTH",
"494 329 LINE SMOOTH",
"494 395 OFFCURVE",
"519 430 OFFCURVE",
"562 430 CURVE SMOOTH",
"609 430 OFFCURVE",
"629 393 OFFCURVE",
"629 337 CURVE SMOOTH",
"629 291 OFFCURVE",
"619 256 OFFCURVE",
"593 215 CURVE",
"610 206 OFFCURVE",
"629 202 OFFCURVE",
"648 202 CURVE SMOOTH",
"719 202 OFFCURVE",
"763 260 OFFCURVE",
"763 354 CURVE SMOOTH",
"763 449 OFFCURVE",
"696 507 OFFCURVE",
"611 507 CURVE SMOOTH",
"556 507 OFFCURVE",
"521 482 OFFCURVE",
"495 444 CURVE",
"491 444 LINE",
"493 467 OFFCURVE",
"494 490 OFFCURVE",
"494 513 CURVE SMOOTH",
"494 603 LINE SMOOTH",
"494 649 OFFCURVE",
"509 663 OFFCURVE",
"537 663 CURVE SMOOTH",
"555 663 LINE",
"555 714 LINE",
"299 714 LINE",
"299 663 LINE",
"316 663 LINE SMOOTH",
"339 663 OFFCURVE",
"359 649 OFFCURVE",
"359 604 CURVE SMOOTH",
"359 206 LINE SMOOTH",
"359 90 OFFCURVE",
"326 53 OFFCURVE",
"273 53 CURVE SMOOTH",
"211 53 OFFCURVE",
"187 112 OFFCURVE",
"187 212 CURVE SMOOTH",
"187 264 OFFCURVE",
"196 307 OFFCURVE",
"222 349 CURVE",
"205 357 OFFCURVE",
"187 361 OFFCURVE",
"167 361 CURVE SMOOTH",
"87 361 OFFCURVE",
"52 291 OFFCURVE",
"52 207 CURVE SMOOTH",
"52 79 OFFCURVE",
"109 -13 OFFCURVE",
"273 -13 CURVE SMOOTH"
);
}
);
width = 820;
},
{
associatedMasterId = "1D4F67F9-897D-45AD-B7F0-CA61A6862C03";
background = {
paths = (
{
closed = 1;
nodes = (
"379 -10 OFFCURVE",
"461 51 OFFCURVE",
"461 214 CURVE SMOOTH",
"461 340 LINE",
"496 340 LINE SMOOTH",
"572 340 OFFCURVE",
"593 315 OFFCURVE",
"593 259 CURVE",
"612 259 OFFCURVE",
"620 270 OFFCURVE",
"620 289 CURVE SMOOTH",
"620 331 OFFCURVE",
"593 365 OFFCURVE",
"506 365 CURVE SMOOTH",
"461 365 LINE",
"461 714 LINE",
"433 714 LINE",
"433 210 LINE SMOOTH",
"433 76 OFFCURVE",
"367 15 OFFCURVE",
"253 15 CURVE SMOOTH",
"122 15 OFFCURVE",
"70 106 OFFCURVE",
"70 219 CURVE SMOOTH",
"70 346 LINE",
"42 346 LINE",
"42 218 LINE SMOOTH",
"42 88 OFFCURVE",
"106 -10 OFFCURVE",
"251 -10 CURVE SMOOTH"
);
}
);
};
layerId = "1701B5B7-B1C8-43DA-8B11-1574400CC0BC";
name = "Jan 6 17, 15:47";
paths = (
{
closed = 1;
nodes = (
"349 -10 OFFCURVE",
"431 51 OFFCURVE",
"431 214 CURVE",
"431 304 LINE",
"403 304 LINE",
"403 210 LINE SMOOTH",
"403 76 OFFCURVE",
"337 15 OFFCURVE",
"243 15 CURVE SMOOTH",
"142 15 OFFCURVE",
"90 106 OFFCURVE",
"90 228 CURVE SMOOTH",
"90 271 OFFCURVE",
"103 320 OFFCURVE",
"126 362 CURVE",
"114 367 OFFCURVE",
"97 366 OFFCURVE",
"89 349 CURVE SMOOTH",
"77 323 OFFCURVE",
"62 271 OFFCURVE",
"62 228 CURVE SMOOTH",
"62 88 OFFCURVE",
"126 -10 OFFCURVE",
"241 -10 CURVE SMOOTH"
);
},
{
closed = 1;
nodes = (
"431 606 LINE",
"431 624 LINE",
"431 685 OFFCURVE",
"441 694 OFFCURVE",
"487 694 CURVE",
"507 694 LINE",
"507 714 LINE",
"324 714 LINE",
"324 694 LINE",
"347 694 LINE",
"393 694 OFFCURVE",
"403 685 OFFCURVE",
"403 624 CURVE",
"403 606 LINE"
);
},
{
closed = 1;
nodes = (
"403 617 LINE",
"403 227 LINE",
"431 227 LINE",
"431 240 LINE",
"431 323 OFFCURVE",
"488 414 OFFCURVE",
"605 414 CURVE",
"694 414 OFFCURVE",
"752 337 OFFCURVE",
"752 220 CURVE",
"752 98 OFFCURVE",
"699 33 OFFCURVE",
"605 20 CURVE",
"605 12 OFFCURVE",
"608 -8 OFFCURVE",
"647 3 CURVE SMOOTH",
"717 23 OFFCURVE",
"780 79 OFFCURVE",
"780 220 CURVE",
"780 362 OFFCURVE",
"706 439 OFFCURVE",
"605 439 CURVE",
"526 439 OFFCURVE",
"455 395 OFFCURVE",
"431 327 CURVE",
"428 327 LINE",
"430 359 OFFCURVE",
"431 392 OFFCURVE",
"431 424 CURVE",
"431 617 LINE"
);
}
);
width = 845;
}
);
note = uni10B0;
rightKerningGroup = "Vin-oldgeorgian";
rightMetricsKey = "San-oldgeorgian";
unicode = 10B0;
},
{
glyphname = "San-oldgeorgian";
lastChange = "2017-03-31 12:59:02 +0000";
layers = (
{
layerId = "5E7FF211-9823-4E5B-BC80-AC4B3CA4BC69";
paths = (
{
closed = 1;
nodes = (
"468 -12 OFFCURVE",
"556 74 OFFCURVE",
"556 216 CURVE SMOOTH",
"556 283 OFFCURVE",
"521 359 OFFCURVE",
"457 359 CURVE SMOOTH",
"444 359 OFFCURVE",
"430 357 OFFCURVE",
"414 352 CURVE",
"441 317 OFFCURVE",
"455 281 OFFCURVE",
"455 212 CURVE SMOOTH",
"455 99 OFFCURVE",
"414 42 OFFCURVE",
"333 42 CURVE SMOOTH",
"256 42 OFFCURVE",
"211 107 OFFCURVE",
"211 220 CURVE SMOOTH",
"211 714 LINE",
"15 714 LINE",
"15 672 LINE",
"28 672 LINE SMOOTH",
"79 672 OFFCURVE",
"110 659 OFFCURVE",
"110 604 CURVE SMOOTH",
"110 223 LINE SMOOTH",
"110 68 OFFCURVE",
"200 -12 OFFCURVE",
"333 -12 CURVE SMOOTH"
);
}
);
width = 606;
},
{
layerId = "101C8DBD-EDBB-4DB6-972E-FA2DBA854B69";
paths = (
{
closed = 1;
nodes = (
"527 -13 OFFCURVE",
"625 76 OFFCURVE",
"625 221 CURVE SMOOTH",
"625 301 OFFCURVE",
"578 375 OFFCURVE",
"497 375 CURVE SMOOTH",
"469 375 OFFCURVE",
"443 367 OFFCURVE",
"420 357 CURVE",
"453 315 OFFCURVE",
"471 268 OFFCURVE",
"471 203 CURVE SMOOTH",
"471 105 OFFCURVE",
"432 53 OFFCURVE",
"368 53 CURVE SMOOTH",
"308 53 OFFCURVE",
"268 110 OFFCURVE",
"268 206 CURVE SMOOTH",
"268 714 LINE",
"16 714 LINE",
"16 661 LINE",
"59 661 LINE SMOOTH",
"96 661 OFFCURVE",
"110 642 OFFCURVE",
"110 600 CURVE SMOOTH",
"110 224 LINE SMOOTH",
"110 75 OFFCURVE",
"207 -13 OFFCURVE",
"368 -13 CURVE SMOOTH"
);
}
);
width = 670;
},
{
layerId = "5E7C5774-385D-4E06-B68E-CBE970134A7B";
paths = (
{
closed = 1;
nodes = (
"441 -11 OFFCURVE",
"528 69 OFFCURVE",
"528 210 CURVE SMOOTH",
"528 269 OFFCURVE",
"501 355 OFFCURVE",
"452 355 CURVE SMOOTH",
"443 355 OFFCURVE",
"434 354 OFFCURVE",
"424 350 CURVE",
"450 317 OFFCURVE",
"464 267 OFFCURVE",
"464 206 CURVE SMOOTH",
"464 93 OFFCURVE",
"408 29 OFFCURVE",
"318 29 CURVE SMOOTH",
"229 29 OFFCURVE",
"174 92 OFFCURVE",
"174 215 CURVE SMOOTH",
"174 714 LINE",
"14 714 LINE",
"14 686 LINE",
"57 686 LINE SMOOTH",
"102 686 OFFCURVE",
"110 675 OFFCURVE",
"110 605 CURVE SMOOTH",
"110 219 LINE SMOOTH",
"110 67 OFFCURVE",
"187 -11 OFFCURVE",
"319 -11 CURVE SMOOTH"
);
}
);
width = 584;
},
{
layerId = "1D4F67F9-897D-45AD-B7F0-CA61A6862C03";
paths = (
{
closed = 1;
nodes = (
"416 -10 OFFCURVE",
"501 63 OFFCURVE",
"501 204 CURVE SMOOTH",
"501 255 OFFCURVE",
"482 351 OFFCURVE",
"446 351 CURVE SMOOTH",
"441 351 OFFCURVE",
"437 350 OFFCURVE",
"433 348 CURVE",
"459 316 OFFCURVE",
"473 252 OFFCURVE",
"473 200 CURVE SMOOTH",
"473 86 OFFCURVE",
"402 15 OFFCURVE",
"304 15 CURVE SMOOTH",
"204 15 OFFCURVE",
"138 81 OFFCURVE",
"138 215 CURVE SMOOTH",
"138 714 LINE",
"13 714 LINE",
"13 694 LINE",
"55 694 LINE SMOOTH",
"102 694 OFFCURVE",
"110 683 OFFCURVE",
"110 606 CURVE SMOOTH",
"110 214 LINE SMOOTH",
"110 65 OFFCURVE",
"184 -10 OFFCURVE",
"307 -10 CURVE SMOOTH"
);
}
);
width = 563;
},
{
layerId = "75A83886-EED5-4C31-9670-660514D8A4F6";
paths = (
{
closed = 1;
nodes = (
"514 -14 OFFCURVE",
"571 76 OFFCURVE",
"571 214 CURVE SMOOTH",
"571 303 OFFCURVE",
"529 363 OFFCURVE",
"442 363 CURVE SMOOTH",
"417 363 OFFCURVE",
"392 358 OFFCURVE",
"371 347 CURVE",
"396 307 OFFCURVE",
"404 263 OFFCURVE",
"404 216 CURVE SMOOTH",
"404 107 OFFCURVE",
"381 60 OFFCURVE",
"332 60 CURVE SMOOTH",
"286 60 OFFCURVE",
"260 95 OFFCURVE",
"260 210 CURVE SMOOTH",
"260 714 LINE",
"14 714 LINE",
"14 658 LINE",
"38 658 LINE SMOOTH",
"78 658 OFFCURVE",
"92 653 OFFCURVE",
"92 599 CURVE SMOOTH",
"92 218 LINE SMOOTH",
"92 50 OFFCURVE",
"192 -14 OFFCURVE",
"333 -14 CURVE SMOOTH"
);
}
);
width = 622;
},
{
layerId = "C91144B6-58F5-45F2-9CE4-7ED6CE127FD4";
paths = (
{
closed = 1;
nodes = (
"334 -10 OFFCURVE",
"396 69 OFFCURVE",
"396 200 CURVE SMOOTH",
"396 267 OFFCURVE",
"371 358 OFFCURVE",
"330 358 CURVE SMOOTH",
"326 358 OFFCURVE",
"322 357 OFFCURVE",
"318 354 CURVE",
"355 315 OFFCURVE",
"368 260 OFFCURVE",
"368 202 CURVE SMOOTH",
"368 94 OFFCURVE",
"324 15 OFFCURVE",
"242 15 CURVE SMOOTH",
"164 15 OFFCURVE",
"111 64 OFFCURVE",
"111 200 CURVE SMOOTH",
"111 714 LINE",
"10 714 LINE",
"10 694 LINE",
"33 694 LINE SMOOTH",
"79 694 OFFCURVE",
"83 683 OFFCURVE",
"83 609 CURVE SMOOTH",
"83 204 LINE SMOOTH",
"83 45 OFFCURVE",
"148 -10 OFFCURVE",
"241 -10 CURVE SMOOTH"
);
}
);
width = 464;
},
{
layerId = "E7C4F5EE-4982-479C-BF20-1C8706EFFC5D";
paths = (
{
closed = 1;
nodes = (
"432 -12 OFFCURVE",
"490 84 OFFCURVE",
"490 197 CURVE SMOOTH",
"490 275 OFFCURVE",
"464 359 OFFCURVE",
"395 359 CURVE SMOOTH",
"383 359 OFFCURVE",
"371 356 OFFCURVE",
"360 351 CURVE",
"388 308 OFFCURVE",
"399 266 OFFCURVE",
"399 206 CURVE SMOOTH",
"399 118 OFFCURVE",
"372 43 OFFCURVE",
"294 43 CURVE SMOOTH",
"232 43 OFFCURVE",
"189 83 OFFCURVE",
"189 200 CURVE SMOOTH",
"189 714 LINE",
"22 714 LINE",
"22 673 LINE",
"45 673 LINE SMOOTH",
"88 673 OFFCURVE",
"97 665 OFFCURVE",
"97 600 CURVE SMOOTH",
"97 206 LINE SMOOTH",
"97 53 OFFCURVE",
"180 -12 OFFCURVE",
"294 -12 CURVE SMOOTH"
);
}
);
width = 552;
},
{
layerId = "E17BEC9D-CAAD-449F-91D9-03766E30097E";
paths = (
{
closed = 1;
nodes = (
"575 -14 OFFCURVE",
"682 79 OFFCURVE",
"682 225 CURVE SMOOTH",
"682 315 OFFCURVE",
"625 387 OFFCURVE",
"532 387 CURVE SMOOTH",
"493 387 OFFCURVE",
"456 375 OFFCURVE",
"428 361 CURVE",
"466 314 OFFCURVE",
"488 257 OFFCURVE",
"488 195 CURVE SMOOTH",
"488 109 OFFCURVE",
"451 62 OFFCURVE",
"402 62 CURVE SMOOTH",
"352 62 OFFCURVE",
"314 113 OFFCURVE",
"314 195 CURVE SMOOTH",
"314 714 LINE",
"28 714 LINE",
"28 654 LINE",
"70 654 LINE SMOOTH",
"107 654 OFFCURVE",
"120 640 OFFCURVE",
"120 593 CURVE SMOOTH",
"120 224 LINE SMOOTH",
"120 79 OFFCURVE",
"222 -14 OFFCURVE",
"401 -14 CURVE SMOOTH"
);
}
);
width = 722;
},
{
associatedMasterId = "1D4F67F9-897D-45AD-B7F0-CA61A6862C03";
layerId = "1086D230-603B-4D38-8D45-DC229094BA3E";
paths = (
{
closed = 1;
nodes = (
"456 -10 OFFCURVE",
"543 51 OFFCURVE",
"543 214 CURVE SMOOTH",
"543 306 LINE",
"515 306 LINE",
"515 210 LINE SMOOTH",
"515 76 OFFCURVE",
"444 15 OFFCURVE",
"329 15 CURVE SMOOTH",
"198 15 OFFCURVE",
"138 106 OFFCURVE",
"138 219 CURVE SMOOTH",
"138 714 LINE",
"13 714 LINE",
"13 694 LINE",
"55 694 LINE SMOOTH",
"102 694 OFFCURVE",
"110 683 OFFCURVE",
"110 606 CURVE SMOOTH",
"110 218 LINE SMOOTH",
"110 88 OFFCURVE",
"182 -10 OFFCURVE",
"327 -10 CURVE SMOOTH"
);
}
);
width = 595;
},
{
layerId = "642E8BFC-F41E-4F9A-93D4-B8BFD55081C9";
paths = (
{
closed = 1;
nodes = (
"474 -13 OFFCURVE",
"531 79 OFFCURVE",
"531 207 CURVE SMOOTH",
"531 291 OFFCURVE",
"496 361 OFFCURVE",
"416 361 CURVE SMOOTH",
"396 361 OFFCURVE",
"378 357 OFFCURVE",
"361 349 CURVE",
"387 307 OFFCURVE",
"396 264 OFFCURVE",
"396 212 CURVE SMOOTH",
"396 112 OFFCURVE",
"372 53 OFFCURVE",
"310 53 CURVE SMOOTH",
"257 53 OFFCURVE",
"224 90 OFFCURVE",
"224 206 CURVE SMOOTH",
"224 714 LINE",
"13 714 LINE",
"13 665 LINE",
"36 665 LINE SMOOTH",
"78 665 OFFCURVE",
"89 658 OFFCURVE",
"89 599 CURVE SMOOTH",
"89 213 LINE SMOOTH",
"89 51 OFFCURVE",
"182 -13 OFFCURVE",
"310 -13 CURVE SMOOTH"
);
}
);
width = 588;
}
);
leftKerningGroup = "Kan-oldgeorgian";
note = uni10B1;
unicode = 10B1;
},
{
glyphname = "Tar-oldgeorgian";
lastChange = "2017-03-31 12:59:02 +0000";
layers = (
{
layerId = "5E7FF211-9823-4E5B-BC80-AC4B3CA4BC69";
paths = (
{
closed = 1;
nodes = (
"499 -95 OFFCURVE",
"526 -73 OFFCURVE",
"526 -34 CURVE SMOOTH",
"526 25 OFFCURVE",
"479 54 OFFCURVE",
"385 54 CURVE SMOOTH",
"211 54 LINE",
"211 278 LINE",
"274 278 LINE SMOOTH",
"444 278 OFFCURVE",
"542 360 OFFCURVE",
"542 505 CURVE SMOOTH",
"542 640 OFFCURVE",
"458 714 OFFCURVE",
"296 714 CURVE SMOOTH",
"15 714 LINE",
"15 672 LINE",
"28 672 LINE SMOOTH",
"79 672 OFFCURVE",
"110 659 OFFCURVE",
"110 604 CURVE SMOOTH",
"110 0 LINE",
"331 0 LINE SMOOTH",
"417 0 OFFCURVE",
"448 -16 OFFCURVE",
"448 -95 CURVE"
);
},
{
closed = 1;
nodes = (
"211 666 LINE",
"279 666 LINE SMOOTH",
"388 666 OFFCURVE",
"434 618 OFFCURVE",
"434 501 CURVE SMOOTH",
"434 376 OFFCURVE",
"387 325 OFFCURVE",
"264 325 CURVE SMOOTH",
"211 325 LINE"
);
}
);
width = 604;
},
{
layerId = "101C8DBD-EDBB-4DB6-972E-FA2DBA854B69";
paths = (
{
closed = 1;
nodes = (
"523 -128 OFFCURVE",
"566 -93 OFFCURVE",
"566 -37 CURVE SMOOTH",
"566 27 OFFCURVE",
"507 61 OFFCURVE",
"396 61 CURVE SMOOTH",
"263 61 LINE",
"263 273 LINE",
"297 273 LINE SMOOTH",
"467 273 OFFCURVE",
"592 345 OFFCURVE",
"592 502 CURVE SMOOTH",
"592 639 OFFCURVE",
"496 714 OFFCURVE",
"319 714 CURVE SMOOTH",
"11 714 LINE",
"11 661 LINE",
"54 661 LINE SMOOTH",
"91 661 OFFCURVE",
"105 643 OFFCURVE",
"105 600 CURVE SMOOTH",
"105 0 LINE",
"330 0 LINE SMOOTH",
"422 0 OFFCURVE",
"456 -36 OFFCURVE",
"456 -128 CURVE"
);
},
{
closed = 1;
nodes = (
"263 655 LINE",
"302 655 LINE SMOOTH",
"388 655 OFFCURVE",
"424 609 OFFCURVE",
"424 498 CURVE SMOOTH",
"424 377 OFFCURVE",
"385 331 OFFCURVE",
"287 331 CURVE SMOOTH",
"263 331 LINE"
);
}
);
width = 622;
},
{
layerId = "5E7C5774-385D-4E06-B68E-CBE970134A7B";
paths = (
{
closed = 1;
nodes = (
"489 -96 OFFCURVE",
"508 -78 OFFCURVE",
"508 -48 CURVE SMOOTH",
"508 8 OFFCURVE",
"473 36 OFFCURVE",
"372 36 CURVE SMOOTH",
"206 36 LINE",
"206 281 LINE",
"287 281 LINE SMOOTH",
"474 281 OFFCURVE",
"538 389 OFFCURVE",
"538 507 CURVE SMOOTH",
"538 636 OFFCURVE",
"466 714 OFFCURVE",
"309 714 CURVE SMOOTH",
"44 714 LINE",
"44 679 LINE",
"49 679 LINE SMOOTH",
"103 679 OFFCURVE",
"141 669 OFFCURVE",
"141 607 CURVE SMOOTH",
"141 0 LINE",
"365 0 LINE SMOOTH",
"442 0 OFFCURVE",
"455 -22 OFFCURVE",
"455 -96 CURVE"
);
},
{
closed = 1;
nodes = (
"206 673 LINE",
"292 673 LINE SMOOTH",
"420 673 OFFCURVE",
"468 618 OFFCURVE",
"468 503 CURVE SMOOTH",
"468 371 OFFCURVE",
"412 321 OFFCURVE",
"277 321 CURVE SMOOTH",
"206 321 LINE"
);
}
);
width = 583;
},
{
layerId = "1D4F67F9-897D-45AD-B7F0-CA61A6862C03";
paths = (
{
closed = 1;
nodes = (
"472 -81 OFFCURVE",
"480 -70 OFFCURVE",
"480 -51 CURVE SMOOTH",
"480 -10 OFFCURVE",
"453 25 OFFCURVE",
"364 25 CURVE SMOOTH",
"177 25 LINE",
"177 284 LINE",
"277 284 LINE SMOOTH",
"452 284 OFFCURVE",
"511 383 OFFCURVE",
"511 509 CURVE SMOOTH",
"511 639 OFFCURVE",
"449 714 OFFCURVE",
"299 714 CURVE SMOOTH",
"50 714 LINE",
"50 694 LINE",
"93 694 LINE SMOOTH",
"143 694 OFFCURVE",
"149 683 OFFCURVE",
"149 606 CURVE SMOOTH",
"149 0 LINE",
"356 0 LINE SMOOTH",
"434 0 OFFCURVE",
"453 -25 OFFCURVE",
"453 -81 CURVE"
);
},
{
closed = 1;
nodes = (
"177 689 LINE",
"299 689 LINE SMOOTH",
"430 689 OFFCURVE",
"483 624 OFFCURVE",
"483 509 CURVE SMOOTH",
"483 401 OFFCURVE",
"438 309 OFFCURVE",
"276 309 CURVE SMOOTH",
"177 309 LINE"
);
}
);
width = 562;
},
{
layerId = "75A83886-EED5-4C31-9670-660514D8A4F6";
paths = (
{
closed = 1;
nodes = (
"476 -140 OFFCURVE",
"515 -100 OFFCURVE",
"515 -41 CURVE SMOOTH",
"515 36 OFFCURVE",
"451 68 OFFCURVE",
"320 68 CURVE SMOOTH",
"262 68 LINE",
"262 271 LINE",
"280 271 LINE SMOOTH",
"477 271 OFFCURVE",
"551 371 OFFCURVE",
"551 501 CURVE SMOOTH",
"551 642 OFFCURVE",
"472 714 OFFCURVE",
"298 714 CURVE SMOOTH",
"18 714 LINE",
"18 658 LINE",
"55 658 LINE SMOOTH",
"74 658 OFFCURVE",
"94 651 OFFCURVE",
"94 599 CURVE SMOOTH",
"94 0 LINE",
"309 0 LINE SMOOTH",
"365 0 OFFCURVE",
"401 -32 OFFCURVE",
"401 -140 CURVE"
);
},
{
closed = 1;
nodes = (
"261 652 LINE",
"284 652 LINE SMOOTH",
"347 652 OFFCURVE",
"377 603 OFFCURVE",
"377 497 CURVE SMOOTH",
"377 379 OFFCURVE",
"345 332 OFFCURVE",
"272 332 CURVE SMOOTH",
"261 332 LINE"
);
}
);
width = 583;
},
{
layerId = "C91144B6-58F5-45F2-9CE4-7ED6CE127FD4";
paths = (
{
closed = 1;
nodes = (
"364 -81 OFFCURVE",
"374 -70 OFFCURVE",
"374 -51 CURVE SMOOTH",
"374 8 OFFCURVE",
"338 25 OFFCURVE",
"294 25 CURVE SMOOTH",
"137 25 LINE",
"137 284 LINE",
"207 284 LINE SMOOTH",
"349 284 OFFCURVE",
"393 399 OFFCURVE",
"393 509 CURVE SMOOTH",
"393 647 OFFCURVE",
"339 714 OFFCURVE",
"217 714 CURVE SMOOTH",
"36 714 LINE",
"36 694 LINE",
"53 694 LINE SMOOTH",
"103 694 OFFCURVE",
"109 683 OFFCURVE",
"109 606 CURVE SMOOTH",
"109 0 LINE",
"289 0 LINE SMOOTH",
"330 0 OFFCURVE",
"347 -15 OFFCURVE",
"347 -81 CURVE"
);
},
{
closed = 1;
nodes = (
"137 689 LINE",
"217 689 LINE SMOOTH",
"325 689 OFFCURVE",
"365 629 OFFCURVE",
"365 509 CURVE SMOOTH",
"365 420 OFFCURVE",
"333 309 OFFCURVE",
"210 309 CURVE SMOOTH",
"137 309 LINE"
);
}
);
width = 453;
},
{
layerId = "E7C4F5EE-4982-479C-BF20-1C8706EFFC5D";
paths = (
{
closed = 1;
nodes = (
"411 -109 OFFCURVE",
"435 -78 OFFCURVE",
"435 -40 CURVE SMOOTH",
"435 29 OFFCURVE",
"379 51 OFFCURVE",
"298 51 CURVE SMOOTH",
"195 51 LINE",
"195 278 LINE",
"241 278 LINE SMOOTH",
"404 278 OFFCURVE",
"462 384 OFFCURVE",
"462 506 CURVE SMOOTH",
"462 637 OFFCURVE",
"398 714 OFFCURVE",
"259 714 CURVE SMOOTH",
"28 714 LINE",
"28 673 LINE",
"44 673 LINE SMOOTH",
"77 673 OFFCURVE",
"102 664 OFFCURVE",
"102 605 CURVE SMOOTH",
"102 0 LINE",
"293 0 LINE SMOOTH",
"340 0 OFFCURVE",
"368 -23 OFFCURVE",
"368 -109 CURVE"
);
},
{
closed = 1;
nodes = (
"195 667 LINE",
"245 667 LINE SMOOTH",
"331 667 OFFCURVE",
"365 614 OFFCURVE",
"365 502 CURVE SMOOTH",
"365 374 OFFCURVE",
"327 324 OFFCURVE",
"234 324 CURVE SMOOTH",
"195 324 LINE"
);
}
);
width = 515;
},
{
layerId = "E17BEC9D-CAAD-449F-91D9-03766E30097E";
paths = (
{
closed = 1;
nodes = (
"565 -151 OFFCURVE",
"610 -105 OFFCURVE",
"610 -40 CURVE SMOOTH",
"610 44 OFFCURVE",
"548 76 OFFCURVE",
"413 76 CURVE SMOOTH",
"313 76 LINE",
"313 269 LINE",
"335 269 LINE SMOOTH",
"572 269 OFFCURVE",
"660 367 OFFCURVE",
"660 500 CURVE SMOOTH",
"660 643 OFFCURVE",
"565 714 OFFCURVE",
"357 714 CURVE SMOOTH",
"21 714 LINE",
"21 653 LINE",
"66 653 LINE SMOOTH",
"88 653 OFFCURVE",
"113 646 OFFCURVE",
"113 597 CURVE SMOOTH",
"113 0 LINE",
"368 0 LINE SMOOTH",
"414 0 OFFCURVE",
"478 -28 OFFCURVE",
"478 -151 CURVE"
);
},
{
closed = 1;
nodes = (
"312 647 LINE",
"340 647 LINE SMOOTH",
"416 647 OFFCURVE",
"452 599 OFFCURVE",
"452 496 CURVE SMOOTH",
"452 381 OFFCURVE",
"413 335 OFFCURVE",
"326 335 CURVE SMOOTH",
"312 335 LINE"
);
}
);
width = 663;
},
{
associatedMasterId = "1D4F67F9-897D-45AD-B7F0-CA61A6862C03";
layerId = "1086D230-603B-4D38-8D45-DC229094BA3E";
paths = (
{
closed = 1;
nodes = (
"472 -81 OFFCURVE",
"480 -70 OFFCURVE",
"480 -51 CURVE SMOOTH",
"480 -10 OFFCURVE",
"453 25 OFFCURVE",
"364 25 CURVE SMOOTH",
"177 25 LINE",
"177 284 LINE",
"277 284 LINE SMOOTH",
"452 284 OFFCURVE",
"511 383 OFFCURVE",
"511 509 CURVE SMOOTH",
"511 639 OFFCURVE",
"449 714 OFFCURVE",
"299 714 CURVE SMOOTH",
"50 714 LINE",
"50 694 LINE",
"93 694 LINE SMOOTH",
"143 694 OFFCURVE",
"149 683 OFFCURVE",
"149 606 CURVE SMOOTH",
"149 0 LINE",
"356 0 LINE SMOOTH",
"434 0 OFFCURVE",
"453 -25 OFFCURVE",
"453 -81 CURVE"
);
},
{
closed = 1;
nodes = (
"177 689 LINE",
"299 689 LINE SMOOTH",
"430 689 OFFCURVE",
"483 624 OFFCURVE",
"483 509 CURVE SMOOTH",
"483 401 OFFCURVE",
"438 309 OFFCURVE",
"276 309 CURVE SMOOTH",
"177 309 LINE"
);
}
);
width = 562;
},
{
layerId = "642E8BFC-F41E-4F9A-93D4-B8BFD55081C9";
paths = (
{
closed = 1;
nodes = (
"448 -126 OFFCURVE",
"480 -90 OFFCURVE",
"480 -41 CURVE SMOOTH",
"480 33 OFFCURVE",
"420 60 OFFCURVE",
"311 60 CURVE SMOOTH",
"233 60 LINE",
"233 274 LINE",
"264 274 LINE SMOOTH",
"445 274 OFFCURVE",
"513 377 OFFCURVE",
"513 503 CURVE SMOOTH",
"513 640 OFFCURVE",
"440 714 OFFCURVE",
"282 714 CURVE SMOOTH",
"23 714 LINE",
"23 665 LINE",
"51 665 LINE SMOOTH",
"76 665 OFFCURVE",
"98 657 OFFCURVE",
"98 601 CURVE SMOOTH",
"98 0 LINE",
"303 0 LINE SMOOTH",
"354 0 OFFCURVE",
"387 -28 OFFCURVE",
"387 -126 CURVE"
);
},
{
closed = 1;
nodes = (
"232 659 LINE",
"268 659 LINE SMOOTH",
"341 659 OFFCURVE",
"372 608 OFFCURVE",
"372 499 CURVE SMOOTH",
"372 377 OFFCURVE",
"338 328 OFFCURVE",
"256 328 CURVE SMOOTH",
"232 328 LINE"
);
}
);
width = 554;
}
);
leftKerningGroup = "Tar-oldgeorgian";
note = uni10B2;
unicode = 10B2;
},
{
glyphname = "Un-oldgeorgian";
lastChange = "2017-03-31 12:59:02 +0000";
layers = (
{
layerId = "5E7FF211-9823-4E5B-BC80-AC4B3CA4BC69";
paths = (
{
closed = 1;
nodes = (
"650 -174 OFFCURVE",
"713 -120 OFFCURVE",
"713 -40 CURVE SMOOTH",
"713 24 OFFCURVE",
"675 75 OFFCURVE",
"605 92 CURVE",
"658 158 OFFCURVE",
"685 247 OFFCURVE",
"685 358 CURVE SMOOTH",
"685 589 OFFCURVE",
"567 726 OFFCURVE",
"372 726 CURVE SMOOTH",
"168 726 OFFCURVE",
"56 592 OFFCURVE",
"56 359 CURVE SMOOTH",
"56 123 OFFCURVE",
"170 -13 OFFCURVE",
"371 -13 CURVE SMOOTH",
"447 -13 OFFCURVE",
"509 9 OFFCURVE",
"559 48 CURVE",
"598 38 OFFCURVE",
"622 4 OFFCURVE",
"622 -46 CURVE SMOOTH",
"622 -88 OFFCURVE",
"599 -114 OFFCURVE",
"558 -114 CURVE SMOOTH",
"528 -114 OFFCURVE",
"505 -101 OFFCURVE",
"487 -74 CURVE",
"475 -80 OFFCURVE",
"467 -97 OFFCURVE",
"467 -114 CURVE SMOOTH",
"467 -148 OFFCURVE",
"508 -174 OFFCURVE",
"567 -174 CURVE SMOOTH"
);
},
{
closed = 1;
nodes = (
"234 41 OFFCURVE",
"167 143 OFFCURVE",
"167 358 CURVE SMOOTH",
"167 576 OFFCURVE",
"234 672 OFFCURVE",
"372 672 CURVE SMOOTH",
"509 672 OFFCURVE",
"574 575 OFFCURVE",
"574 358 CURVE SMOOTH",
"574 142 OFFCURVE",
"508 41 OFFCURVE",
"371 41 CURVE SMOOTH"
);
}
);
width = 746;
},
{
layerId = "101C8DBD-EDBB-4DB6-972E-FA2DBA854B69";
paths = (
{
closed = 1;
nodes = (
"689 -175 OFFCURVE",
"749 -121 OFFCURVE",
"749 -40 CURVE SMOOTH",
"749 25 OFFCURVE",
"711 70 OFFCURVE",
"646 93 CURVE",
"703 159 OFFCURVE",
"732 248 OFFCURVE",
"732 358 CURVE SMOOTH",
"732 588 OFFCURVE",
"605 727 OFFCURVE",
"395 727 CURVE SMOOTH",
"178 727 OFFCURVE",
"55 595 OFFCURVE",
"55 359 CURVE SMOOTH",
"55 136 OFFCURVE",
"169 -13 OFFCURVE",
"394 -13 CURVE SMOOTH",
"470 -13 OFFCURVE",
"533 7 OFFCURVE",
"585 41 CURVE",
"616 32 OFFCURVE",
"638 5 OFFCURVE",
"638 -31 CURVE SMOOTH",
"638 -65 OFFCURVE",
"615 -87 OFFCURVE",
"583 -87 CURVE SMOOTH",
"552 -87 OFFCURVE",
"528 -79 OFFCURVE",
"512 -63 CURVE",
"503 -72 OFFCURVE",
"497 -91 OFFCURVE",
"497 -105 CURVE SMOOTH",
"497 -147 OFFCURVE",
"543 -175 OFFCURVE",
"599 -175 CURVE SMOOTH"
);
},
{
closed = 1;
nodes = (
"279 52 OFFCURVE",
"223 151 OFFCURVE",
"223 358 CURVE SMOOTH",
"223 566 OFFCURVE",
"278 662 OFFCURVE",
"395 662 CURVE SMOOTH",
"510 662 OFFCURVE",
"564 567 OFFCURVE",
"564 358 CURVE SMOOTH",
"564 150 OFFCURVE",
"510 52 OFFCURVE",
"394 52 CURVE SMOOTH"
);
}
);
width = 787;
},
{
layerId = "5E7C5774-385D-4E06-B68E-CBE970134A7B";
paths = (
{
closed = 1;
nodes = (
"611 -166 OFFCURVE",
"691 -120 OFFCURVE",
"691 -10 CURVE SMOOTH",
"691 63 OFFCURVE",
"658 114 OFFCURVE",
"607 136 CURVE",
"639 195 OFFCURVE",
"656 271 OFFCURVE",
"656 358 CURVE SMOOTH",
"656 580 OFFCURVE",
"549 725 OFFCURVE",
"358 725 CURVE SMOOTH",
"155 725 OFFCURVE",
"57 580 OFFCURVE",
"57 359 CURVE SMOOTH",
"57 137 OFFCURVE",
"155 -11 OFFCURVE",
"357 -11 CURVE SMOOTH",
"458 -11 OFFCURVE",
"536 31 OFFCURVE",
"587 102 CURVE",
"618 84 OFFCURVE",
"636 46 OFFCURVE",
"636 -9 CURVE SMOOTH",
"636 -86 OFFCURVE",
"597 -130 OFFCURVE",
"543 -130 CURVE SMOOTH",
"498 -130 OFFCURVE",
"466 -113 OFFCURVE",
"459 -73 CURVE",
"432 -73 OFFCURVE",
"420 -89 OFFCURVE",
"420 -109 CURVE SMOOTH",
"420 -138 OFFCURVE",
"453 -166 OFFCURVE",
"543 -166 CURVE SMOOTH"
);
},
{
closed = 1;
nodes = (
"201 36 OFFCURVE",
"132 156 OFFCURVE",
"132 358 CURVE SMOOTH",
"132 560 OFFCURVE",
"201 678 OFFCURVE",
"358 678 CURVE SMOOTH",
"521 678 OFFCURVE",
"581 560 OFFCURVE",
"581 358 CURVE SMOOTH",
"581 156 OFFCURVE",
"521 36 OFFCURVE",
"357 36 CURVE SMOOTH"
);
}
);
width = 714;
},
{
layerId = "1D4F67F9-897D-45AD-B7F0-CA61A6862C03";
paths = (
{
closed = 1;
nodes = (
"589 -160 OFFCURVE",
"657 -116 OFFCURVE",
"657 0 CURVE SMOOTH",
"657 63 OFFCURVE",
"629 114 OFFCURVE",
"587 137 CURVE",
"615 196 OFFCURVE",
"627 271 OFFCURVE",
"627 358 CURVE SMOOTH",
"627 590 OFFCURVE",
"547 724 OFFCURVE",
"344 724 CURVE SMOOTH",
"157 724 OFFCURVE",
"58 592 OFFCURVE",
"58 359 CURVE SMOOTH",
"58 125 OFFCURVE",
"153 -10 OFFCURVE",
"343 -10 CURVE SMOOTH",
"456 -10 OFFCURVE",
"531 35 OFFCURVE",
"576 114 CURVE",
"607 92 OFFCURVE",
"629 49 OFFCURVE",
"629 0 CURVE SMOOTH",
"629 -97 OFFCURVE",
"576 -137 OFFCURVE",
"521 -137 CURVE SMOOTH",
"486 -137 OFFCURVE",
"444 -126 OFFCURVE",
"444 -84 CURVE",
"428 -84 OFFCURVE",
"418 -93 OFFCURVE",
"418 -106 CURVE SMOOTH",
"418 -140 OFFCURVE",
"462 -160 OFFCURVE",
"517 -160 CURVE SMOOTH"
);
},
{
closed = 1;
nodes = (
"172 15 OFFCURVE",
"86 143 OFFCURVE",
"86 358 CURVE SMOOTH",
"86 573 OFFCURVE",
"172 699 OFFCURVE",
"344 699 CURVE SMOOTH",
"530 699 OFFCURVE",
"599 573 OFFCURVE",
"599 358 CURVE SMOOTH",
"599 145 OFFCURVE",
"524 15 OFFCURVE",
"343 15 CURVE SMOOTH"
);
}
);
width = 686;
},
{
layerId = "75A83886-EED5-4C31-9670-660514D8A4F6";
paths = (
{
closed = 1;
nodes = (
"594 -189 OFFCURVE",
"667 -130 OFFCURVE",
"667 -38 CURVE SMOOTH",
"667 35 OFFCURVE",
"632 79 OFFCURVE",
"571 99 CURVE",
"616 163 OFFCURVE",
"639 250 OFFCURVE",
"639 358 CURVE SMOOTH",
"639 583 OFFCURVE",
"539 728 OFFCURVE",
"344 728 CURVE SMOOTH",
"142 728 OFFCURVE",
"45 583 OFFCURVE",
"45 359 CURVE SMOOTH",
"45 133 OFFCURVE",
"142 -14 OFFCURVE",
"343 -14 CURVE SMOOTH",
"407 -14 OFFCURVE",
"462 3 OFFCURVE",
"506 34 CURVE",
"517 18 OFFCURVE",
"524 -6 OFFCURVE",
"524 -33 CURVE SMOOTH",
"524 -93 OFFCURVE",
"492 -111 OFFCURVE",
"462 -111 CURVE SMOOTH",
"432 -111 OFFCURVE",
"420 -99 OFFCURVE",
"410 -63 CURVE",
"350 -63 OFFCURVE",
"327 -88 OFFCURVE",
"327 -110 CURVE SMOOTH",
"327 -164 OFFCURVE",
"383 -189 OFFCURVE",
"477 -189 CURVE SMOOTH"
);
},
{
closed = 1;
nodes = (
"254 54 OFFCURVE",
"221 165 OFFCURVE",
"221 358 CURVE SMOOTH",
"221 550 OFFCURVE",
"254 660 OFFCURVE",
"344 660 CURVE SMOOTH",
"432 660 OFFCURVE",
"464 550 OFFCURVE",
"464 358 CURVE SMOOTH",
"464 165 OFFCURVE",
"432 54 OFFCURVE",
"343 54 CURVE SMOOTH"
);
}
);
width = 684;
},
{
layerId = "C91144B6-58F5-45F2-9CE4-7ED6CE127FD4";
paths = (
{
closed = 1;
nodes = (
"456 -160 OFFCURVE",
"504 -117 OFFCURVE",
"504 -34 CURVE SMOOTH",
"504 29 OFFCURVE",
"475 70 OFFCURVE",
"428 89 CURVE",
"465 152 OFFCURVE",
"485 243 OFFCURVE",
"485 358 CURVE SMOOTH",
"485 610 OFFCURVE",
"414 724 OFFCURVE",
"265 724 CURVE SMOOTH",
"118 724 OFFCURVE",
"44 596 OFFCURVE",
"44 359 CURVE SMOOTH",
"44 137 OFFCURVE",
"116 -10 OFFCURVE",
"264 -10 CURVE SMOOTH",
"327 -10 OFFCURVE",
"378 17 OFFCURVE",
"415 68 CURVE",
"452 52 OFFCURVE",
"474 18 OFFCURVE",
"474 -33 CURVE SMOOTH",
"474 -101 OFFCURVE",
"440 -135 OFFCURVE",
"386 -135 CURVE SMOOTH",
"345 -135 OFFCURVE",
"324 -119 OFFCURVE",
"324 -78 CURVE",
"309 -78 OFFCURVE",
"299 -86 OFFCURVE",
"299 -108 CURVE SMOOTH",
"299 -136 OFFCURVE",
"330 -160 OFFCURVE",
"386 -160 CURVE SMOOTH"
);
},
{
closed = 1;
nodes = (
"137 15 OFFCURVE",
"72 153 OFFCURVE",
"72 358 CURVE SMOOTH",
"72 574 OFFCURVE",
"131 699 OFFCURVE",
"265 699 CURVE SMOOTH",
"406 699 OFFCURVE",
"457 574 OFFCURVE",
"457 358 CURVE SMOOTH",
"457 146 OFFCURVE",
"392 15 OFFCURVE",
"264 15 CURVE SMOOTH"
);
}
);
width = 530;
},
{
layerId = "E7C4F5EE-4982-479C-BF20-1C8706EFFC5D";
paths = (
{
closed = 1;
nodes = (
"519 -171 OFFCURVE",
"571 -122 OFFCURVE",
"571 -43 CURVE SMOOTH",
"571 15 OFFCURVE",
"542 65 OFFCURVE",
"487 93 CURVE",
"529 157 OFFCURVE",
"552 248 OFFCURVE",
"552 358 CURVE SMOOTH",
"552 581 OFFCURVE",
"469 726 OFFCURVE",
"298 726 CURVE SMOOTH",
"127 726 OFFCURVE",
"44 581 OFFCURVE",
"44 359 CURVE SMOOTH",
"44 137 OFFCURVE",
"127 -11 OFFCURVE",
"297 -11 CURVE SMOOTH",
"361 -11 OFFCURVE",
"414 13 OFFCURVE",
"454 55 CURVE",
"480 34 OFFCURVE",
"491 3 OFFCURVE",
"491 -42 CURVE SMOOTH",
"491 -97 OFFCURVE",
"466 -125 OFFCURVE",
"431 -125 CURVE SMOOTH",
"399 -125 OFFCURVE",
"383 -113 OFFCURVE",
"375 -78 CURVE",
"340 -78 OFFCURVE",
"320 -94 OFFCURVE",
"320 -112 CURVE SMOOTH",
"320 -150 OFFCURVE",
"364 -171 OFFCURVE",
"434 -171 CURVE SMOOTH"
);
},
{
closed = 1;
nodes = (
"189 42 OFFCURVE",
"144 160 OFFCURVE",
"144 358 CURVE SMOOTH",
"144 557 OFFCURVE",
"189 674 OFFCURVE",
"298 674 CURVE SMOOTH",
"409 674 OFFCURVE",
"452 557 OFFCURVE",
"452 358 CURVE SMOOTH",
"452 160 OFFCURVE",
"411 42 OFFCURVE",
"297 42 CURVE SMOOTH"
);
}
);
width = 597;
},
{
layerId = "E17BEC9D-CAAD-449F-91D9-03766E30097E";
paths = (
{
closed = 1;
nodes = (
"706 -185 OFFCURVE",
"791 -137 OFFCURVE",
"791 -27 CURVE SMOOTH",
"791 50 OFFCURVE",
"753 99 OFFCURVE",
"698 121 CURVE",
"743 182 OFFCURVE",
"766 263 OFFCURVE",
"766 358 CURVE SMOOTH",
"766 580 OFFCURVE",
"639 728 OFFCURVE",
"412 728 CURVE SMOOTH",
"171 728 OFFCURVE",
"54 580 OFFCURVE",
"54 359 CURVE SMOOTH",
"54 137 OFFCURVE",
"171 -14 OFFCURVE",
"411 -14 CURVE SMOOTH",
"505 -14 OFFCURVE",
"582 15 OFFCURVE",
"640 60 CURVE",
"656 49 OFFCURVE",
"664 23 OFFCURVE",
"664 -20 CURVE SMOOTH",
"664 -71 OFFCURVE",
"628 -91 OFFCURVE",
"606 -91 CURVE SMOOTH",
"575 -91 OFFCURVE",
"565 -77 OFFCURVE",
"560 -68 CURVE",
"514 -68 OFFCURVE",
"500 -88 OFFCURVE",
"500 -118 CURVE SMOOTH",
"500 -137 OFFCURVE",
"524 -185 OFFCURVE",
"613 -185 CURVE SMOOTH"
);
},
{
closed = 1;
nodes = (
"304 59 OFFCURVE",
"264 172 OFFCURVE",
"264 358 CURVE SMOOTH",
"264 544 OFFCURVE",
"304 655 OFFCURVE",
"412 655 CURVE SMOOTH",
"518 655 OFFCURVE",
"556 544 OFFCURVE",
"556 358 CURVE SMOOTH",
"556 172 OFFCURVE",
"518 59 OFFCURVE",
"411 59 CURVE SMOOTH"
);
}
);
width = 820;
},
{
associatedMasterId = "1D4F67F9-897D-45AD-B7F0-CA61A6862C03";
background = {
paths = (
{
closed = 1;
nodes = (
"562 122 LINE",
"601 104 OFFCURVE",
"629 56 OFFCURVE",
"629 0 CURVE SMOOTH",
"629 -102 OFFCURVE",
"576 -137 OFFCURVE",
"501 -137 CURVE SMOOTH",
"436 -137 OFFCURVE",
"404 -96 OFFCURVE",
"404 -54 CURVE",
"388 -54 OFFCURVE",
"378 -63 OFFCURVE",
"378 -76 CURVE SMOOTH",
"378 -120 OFFCURVE",
"422 -160 OFFCURVE",
"497 -160 CURVE SMOOTH",
"589 -160 OFFCURVE",
"657 -121 OFFCURVE",
"657 0 CURVE SMOOTH",
"657 70 OFFCURVE",
"623 124 OFFCURVE",
"574 143 CURVE"
);
},
{
closed = 1;
nodes = (
"545 -10 OFFCURVE",
"627 135 OFFCURVE",
"627 358 CURVE SMOOTH",
"627 590 OFFCURVE",
"547 725 OFFCURVE",
"344 725 CURVE SMOOTH",
"157 725 OFFCURVE",
"58 592 OFFCURVE",
"58 359 CURVE SMOOTH",
"58 125 OFFCURVE",
"153 -10 OFFCURVE",
"343 -10 CURVE SMOOTH"
);
},
{
closed = 1;
nodes = (
"172 15 OFFCURVE",
"86 143 OFFCURVE",
"86 358 CURVE SMOOTH",
"86 573 OFFCURVE",
"172 700 OFFCURVE",
"344 700 CURVE SMOOTH",
"530 700 OFFCURVE",
"599 573 OFFCURVE",
"599 358 CURVE SMOOTH",
"599 145 OFFCURVE",
"524 15 OFFCURVE",
"343 15 CURVE SMOOTH"
);
}
);
};
layerId = "1086D230-603B-4D38-8D45-DC229094BA3E";
paths = (
{
closed = 1;
nodes = (
"589 -160 OFFCURVE",
"657 -116 OFFCURVE",
"657 0 CURVE SMOOTH",
"657 63 OFFCURVE",
"629 114 OFFCURVE",
"587 137 CURVE",
"615 196 OFFCURVE",
"627 271 OFFCURVE",
"627 358 CURVE SMOOTH",
"627 590 OFFCURVE",
"547 725 OFFCURVE",
"344 725 CURVE SMOOTH",
"157 725 OFFCURVE",
"58 592 OFFCURVE",
"58 359 CURVE SMOOTH",
"58 125 OFFCURVE",
"153 -10 OFFCURVE",
"343 -10 CURVE SMOOTH",
"456 -10 OFFCURVE",
"531 35 OFFCURVE",
"576 114 CURVE",
"607 92 OFFCURVE",
"629 49 OFFCURVE",
"629 0 CURVE SMOOTH",
"629 -97 OFFCURVE",
"576 -137 OFFCURVE",
"521 -137 CURVE SMOOTH",
"486 -137 OFFCURVE",
"444 -126 OFFCURVE",
"444 -84 CURVE",
"428 -84 OFFCURVE",
"418 -93 OFFCURVE",
"418 -106 CURVE SMOOTH",
"418 -140 OFFCURVE",
"462 -160 OFFCURVE",
"517 -160 CURVE SMOOTH"
);
},
{
closed = 1;
nodes = (
"172 15 OFFCURVE",
"86 143 OFFCURVE",
"86 358 CURVE SMOOTH",
"86 573 OFFCURVE",
"172 700 OFFCURVE",
"344 700 CURVE SMOOTH",
"530 700 OFFCURVE",
"599 573 OFFCURVE",
"599 358 CURVE SMOOTH",
"599 145 OFFCURVE",
"524 15 OFFCURVE",
"343 15 CURVE SMOOTH"
);
}
);
width = 686;
},
{
layerId = "642E8BFC-F41E-4F9A-93D4-B8BFD55081C9";
paths = (
{
closed = 1;
nodes = (
"561 -180 OFFCURVE",
"625 -125 OFFCURVE",
"625 -39 CURVE SMOOTH",
"625 27 OFFCURVE",
"592 74 OFFCURVE",
"534 97 CURVE",
"578 161 OFFCURVE",
"601 251 OFFCURVE",
"601 358 CURVE SMOOTH",
"601 582 OFFCURVE",
"509 727 OFFCURVE",
"324 727 CURVE SMOOTH",
"136 727 OFFCURVE",
"45 582 OFFCURVE",
"45 359 CURVE SMOOTH",
"45 136 OFFCURVE",
"136 -11 OFFCURVE",
"323 -11 CURVE SMOOTH",
"387 -11 OFFCURVE",
"441 8 OFFCURVE",
"484 45 CURVE",
"501 26 OFFCURVE",
"510 -1 OFFCURVE",
"510 -36 CURVE SMOOTH",
"510 -94 OFFCURVE",
"481 -116 OFFCURVE",
"449 -116 CURVE SMOOTH",
"418 -116 OFFCURVE",
"404 -104 OFFCURVE",
"395 -68 CURVE",
"346 -68 OFFCURVE",
"324 -90 OFFCURVE",
"324 -109 CURVE SMOOTH",
"324 -156 OFFCURVE",
"375 -180 OFFCURVE",
"459 -180 CURVE SMOOTH"
);
},
{
closed = 1;
nodes = (
"226 50 OFFCURVE",
"187 164 OFFCURVE",
"187 358 CURVE SMOOTH",
"187 553 OFFCURVE",
"226 666 OFFCURVE",
"324 666 CURVE SMOOTH",
"422 666 OFFCURVE",
"459 553 OFFCURVE",
"459 358 CURVE SMOOTH",
"459 164 OFFCURVE",
"423 50 OFFCURVE",
"323 50 CURVE SMOOTH"
);
}
);
width = 646;
}
);
leftKerningGroup = "On-oldgeorgian";
note = uni10B3;
unicode = 10B3;
},
